<?xml version="1.0" encoding="UTF-8"?>
<svg width="20px" height="20px" viewBox="0 0 20 20" version="1.1" xmlns="http://www.w3.org/2000/svg" xmlns:xlink="http://www.w3.org/1999/xlink">
    <!-- Generator: Sketch 43.1 (39012) - http://www.bohemiancoding.com/sketch -->
    <title>编辑(1)</title>
    <desc>Created with Sketch.</desc>
    <defs></defs>
    <g id="Welcome" stroke="none" stroke-width="1" fill="none" fill-rule="evenodd">
        <g id="账号信息" transform="translate(-694.000000, -194.000000)" fill-rule="nonzero" fill="#8AD7FB">
            <g id="编辑(1)" transform="translate(694.000000, 194.000000)">
                <path d="M18.8892857,15.6887537 L0.63452381,15.6887537 C0.468571429,15.6887537 0.302619048,15.8712829 0.18547619,16.18419 C0.0683333333,16.4970971 4.16333634e-17,16.9403821 4.16333634e-17,17.3836672 C4.16333634e-17,17.8269522 0.0683333333,18.2702373 0.18547619,18.5831444 C0.302619048,18.8960515 0.468571429,19.0785806 0.63452381,19.0785806 L18.8892857,19.0785806 C19.2407143,19.0785806 19.5238095,18.3223885 19.5238095,17.3836672 C19.5238095,16.9403821 19.4554762,16.4970971 19.3383333,16.18419 C19.2211905,15.8712829 19.0552381,15.6887537 18.8892857,15.6887537 Z M16.605,1.55351563 C16.4292857,1.35827753 15.7459524,0.674944196 15.5507143,0.499229911 C14.867381,-0.164579613 14.5257143,-0.145055804 13.8911905,0.499229911 C10.8064286,3.59375372 7.92666667,6.4247061 4.86142857,9.4899442 C3.53380952,10.8175632 3.02619048,12.174468 2.47952381,13.7851823 C2.37214286,14.019468 2.42095238,14.3025632 2.60642857,14.4978013 C2.79190476,14.6930394 3.0847619,14.7320871 3.31904762,14.6247061 C4.92,14.0780394 6.28666667,13.5704204 7.61428571,12.2428013 C9.57642857,10.2806585 11.4311905,8.40637277 13.325,6.49303943 L13.4128571,6.40518229 C13.5007143,6.29780134 13.5592857,6.15137277 13.5592857,5.99518229 C13.5592857,5.64375372 13.2664286,5.35089658 12.915,5.35089658 C12.7392857,5.35089658 12.5830952,5.41922991 12.4659524,5.52661086 L12.4464286,5.54613467 L12.4171429,5.57542039 L7.97547619,10.0170871 L5.91571429,12.076849 C5.66190476,12.3306585 5.26166667,12.3306585 5.00785714,12.076849 C4.75404762,11.8230394 4.75404762,11.4228013 5.00785714,11.1689918 L7.06761905,9.10922991 L11.5288095,4.67732515 L13.5885714,2.61756324 C13.842381,2.41256324 14.2133333,2.42232515 14.447619,2.65661086 C14.6819048,2.89089658 14.6916667,3.26184896 14.4866667,3.51565848 L13.8814286,4.12089658 C13.842381,4.15018229 13.8130952,4.17946801 13.7838095,4.21851563 C13.6959524,4.32589658 13.637381,4.47232515 13.637381,4.61875372 C13.637381,4.97018229 13.9302381,5.26303943 14.2816667,5.26303943 C14.4378571,5.26303943 14.5745238,5.21422991 14.6819048,5.11661086 C14.7209524,5.08732515 14.7502381,5.04827753 14.7795238,5.01899182 L16.5952381,3.20327753 C17.2492857,2.58827753 17.2785714,2.23684896 16.605,1.55351563 L16.605,1.55351563 Z" id="Shape"></path>
            </g>
        </g>
    </g>
</svg>