<?xml version="1.0" encoding="UTF-8"?>
<svg width="30px" height="30px" viewBox="0 0 30 30" version="1.1" xmlns="http://www.w3.org/2000/svg" xmlns:xlink="http://www.w3.org/1999/xlink">
    <!-- Generator: Sketch 46 (44423) - http://www.bohemiancoding.com/sketch -->
    <title>表情</title>
    <desc>Created with Sketch.</desc>
    <defs>
        <linearGradient x1="50%" y1="0%" x2="50%" y2="97.4788744%" id="linearGradient-1">
            <stop stop-color="#EE626A" offset="0%"></stop>
            <stop stop-color="#CA6DCF" offset="100%"></stop>
        </linearGradient>
    </defs>
    <g id="Page-1" stroke="none" stroke-width="1" fill="none" fill-rule="evenodd">
        <g id="创建直播" transform="translate(-1371.000000, -1222.000000)" fill-rule="nonzero" fill="url(#linearGradient-1)">
            <g id="图文配套" transform="translate(1349.000000, 40.000000)">
                <g id="表情" transform="translate(22.000000, 1182.000000)">
                    <path d="M15.0666279,0.00348837209 C19.2082674,0.0629651163 22.8214186,1.5435 25.746907,4.54772093 C28.6294884,7.50784884 30.0567209,11.1124884 29.9860465,15.2422674 C29.9139767,19.4528721 28.3205233,23.0533953 25.2478953,25.9420814 C22.3432674,28.6727791 18.846593,30.024907 14.8682093,29.9897791 C10.8071512,29.9538488 7.27646512,28.4864651 4.4085,25.6110698 C1.33255814,22.5271395 -0.140476744,18.7462674 0.0278023256,14.3908953 C0.184569767,10.3347558 1.77163953,6.87090698 4.72594186,4.08603488 C7.60175581,1.37522093 11.0587326,0.0483139535 15.066593,0.00348837209 L15.0666279,0.00348837209 Z M28.5298256,16.2094186 C28.5582907,11.3241628 27.0823953,8.01415116 24.7534884,5.61530233 C22.1522093,2.9359186 18.9523953,1.52504651 15.2241628,1.46086047 C11.6176744,1.39876744 8.44147674,2.61774419 5.79718605,5.08297674 C2.94868605,7.73856977 1.48367442,11.0596744 1.45960465,14.9450233 C1.43682558,18.6260581 2.7535814,21.8356744 5.331,24.4687674 C7.83160465,27.023407 10.9101628,28.3985581 14.4869302,28.5289535 C18.1929767,28.664093 21.4562442,27.4617558 24.1771395,24.9409186 C27.0527791,22.2766744 28.4747442,18.9360349 28.5298256,16.2093837 L28.5298256,16.2094186 Z" id="Shape"></path>
                    <path d="M15.0061744,22.1309302 C14.009093,22.146907 13.0806628,21.8968256 12.219314,21.4107907 C11.5041977,21.0072907 10.9142442,20.4656512 10.5112674,19.7359535 C10.1860465,19.1470465 10.0170349,18.5210233 10.0073023,17.8474535 C10.0028721,17.5424651 10.3060116,17.1211047 10.713314,17.1467442 C11.1266163,17.1727674 11.4334186,17.4449302 11.438407,17.8429186 C11.4460814,18.4514651 11.6672442,18.9738488 12.0593023,19.4371047 C12.6424535,20.1262326 13.406093,20.4972209 14.2697093,20.6402442 C15.177907,20.790593 16.0727093,20.6856628 16.9038837,20.2549535 C17.5046163,19.9436163 17.9953953,19.5069767 18.3105,18.8977674 C18.4900116,18.5506395 18.576314,18.1729535 18.5725814,17.7846279 C18.5695814,17.4745116 18.9022326,17.1688605 19.2167442,17.1419651 C19.7337209,17.0978023 20.0703488,17.578186 19.9851628,18.0804767 C19.9236628,18.4430581 19.8818023,18.8055 19.7576163,19.1539884 C19.5765349,19.6621395 19.2934186,20.1046395 18.9272791,20.4998023 C18.498907,20.9620465 18.0026163,21.3303837 17.433314,21.5957442 C16.8926163,21.847814 16.3275,22.0253372 15.7292442,22.0783605 C15.4886163,22.0996744 15.2472209,22.113593 15.0061744,22.1309302 L15.0061744,22.1309302 Z M20.0058488,13.5828837 C18.7936047,13.6288953 17.7985465,12.5949419 17.8324535,11.4085116 C17.8675116,10.1817558 18.7477326,9.28793023 19.9797209,9.27460465 C21.1424651,9.26204651 22.1855581,10.1605116 22.1481977,11.5302558 C22.1186163,12.6139186 21.1914767,13.6182907 20.0058488,13.5828837 Z M12.1519535,11.4365581 C12.2206744,12.5619767 11.1924767,13.6644419 9.87718605,13.5911512 C8.9282093,13.5382674 7.76113953,12.7007791 7.86456977,11.2603953 C7.9412093,10.1931279 8.80426744,9.27795349 10.0090116,9.27216279 C11.1853953,9.26647674 12.1922442,10.2092093 12.1519535,11.4365581 Z" id="Shape"></path>
                </g>
            </g>
        </g>
    </g>
</svg>