<?xml version="1.0" encoding="UTF-8"?>
<svg width="34px" height="32px" viewBox="0 0 34 32" version="1.1" xmlns="http://www.w3.org/2000/svg" xmlns:xlink="http://www.w3.org/1999/xlink">
    <!-- Generator: Sketch 46 (44423) - http://www.bohemiancoding.com/sketch -->
    <title>视频(1)</title>
    <desc>Created with Sketch.</desc>
    <defs>
        <filter x="-4.3%" y="-10.0%" width="108.6%" height="128.0%" filterUnits="objectBoundingBox" id="filter-1">
            <feOffset dx="0" dy="2" in="SourceAlpha" result="shadowOffsetOuter1"></feOffset>
            <feGaussianBlur stdDeviation="2" in="shadowOffsetOuter1" result="shadowBlurOuter1"></feGaussianBlur>
            <feColorMatrix values="0 0 0 0 0   0 0 0 0 0   0 0 0 0 0  0 0 0 0.2794101 0" type="matrix" in="shadowBlurOuter1" result="shadowMatrixOuter1"></feColorMatrix>
            <feMerge>
                <feMergeNode in="shadowMatrixOuter1"></feMergeNode>
                <feMergeNode in="SourceGraphic"></feMergeNode>
            </feMerge>
        </filter>
    </defs>
    <g id="Page-1" stroke="none" stroke-width="1" fill="none" fill-rule="evenodd" opacity="0.6">
        <g id="素材-视频" transform="translate(-487.000000, -57.000000)" stroke="#FFFFFF" fill-rule="nonzero" stroke-width="0.4" fill="#FFFFFF">
            <g id="发稿icon" filter="url(#filter-1)" transform="translate(472.000000, 46.000000)">
                <g id="视频(1)" transform="translate(20.000000, 14.000000)">
                    <path d="M19.7318791,7.1060128e-15 L4.26466831,7.1060128e-15 C1.91391707,7.1060128e-15 0,1.88834307 0,4.20775291 L0,16.5367687 C0,18.8561785 1.9138854,20.7445216 4.26466831,20.7445216 L12,20.7445216 C12.0173264,20.7445216 12.0312002,20.7445216 12.0485266,20.741115 C12.0589161,20.741115 12.936132,20.682954 14.000549,20.7992761 C15.3354415,20.9463819 16.327037,21.2953169 16.8679245,21.8050152 C17.0066307,21.9349946 17.1834423,22 17.3602855,22 C17.5474866,22 17.7312667,21.9281503 17.8734255,21.7844822 C18.1438692,21.5039591 18.1369324,21.0626728 17.8526465,20.7958383 C17.0759996,20.0569337 15.8312868,19.5916766 14.1600659,19.4069426 C13.064417,19.287214 12.1490957,19.3316864 11.9791893,19.3419373 L4.26466831,19.3419373 C2.69750082,19.3419373 1.4215561,18.083021 1.4215561,16.5367687 L1.4215561,4.20775291 C1.4215561,2.66150052 2.69750082,1.4025843 4.26466831,1.4025843 L19.7353317,1.4025843 C21.3024992,1.4025843 22.5784439,2.66150052 22.5784439,4.20775291 L22.5784439,16.5367687 C22.5784439,18.083021 21.3024992,19.3419373 19.7353317,19.3419373 C19.3435398,19.3419373 19.0245378,19.6566507 19.0245378,20.0432138 C19.0245378,20.4297769 19.3435398,20.7444903 19.7353317,20.7444903 C22.0861146,20.7444903 24,18.8561472 24,16.5367374 L24,4.20775291 C23.9965474,1.88834307 22.0826303,0 19.7318791,0 L19.7318791,7.1060128e-15 Z" id="Shape"></path>
                    <path d="M18.6513149,9.80308689 L9.06653151,4.09964935 C8.8490567,3.96796241 8.57640125,3.96796241 8.35552101,4.09271679 C8.13460924,4.21747118 8,4.45308318 8,4.70949286 L8,16.2896502 C8,16.6811973 8.3175252,17 8.70757353,17 C9.09759033,17 9.41511552,16.6811973 9.41511552,16.2896502 L9.41511552,5.95687845 L16.9393591,10.4337281 L12.887334,13.0082395 C12.694044,13.1260613 12.0554936,13.444864 11.5826743,13.4205842 C11.1926575,13.3997866 10.8613214,13.701242 10.844042,14.0927891 C10.8233256,14.4843678 11.1236029,14.8169723 11.5136197,14.8378017 C11.551584,14.8412521 11.5930168,14.8412521 11.630981,14.8412521 C12.5801197,14.8412521 13.5189474,14.283387 13.6294033,14.2175435 C13.6328402,14.214093 13.6363087,14.214093 13.6397457,14.2106109 L18.6720313,11.0123909 C18.8791322,10.880704 19.0033675,10.6485741 18.9999305,10.4025157 C18.993025,10.1565207 18.8618528,9.92780962 18.6513149,9.80308689 L18.6513149,9.80308689 Z" id="Shape"></path>
                </g>
            </g>
        </g>
    </g>
</svg>