<?xml version="1.0" encoding="UTF-8"?>
<svg width="37px" height="37px" viewBox="0 0 37 37" version="1.1" xmlns="http://www.w3.org/2000/svg" xmlns:xlink="http://www.w3.org/1999/xlink">
    <!-- Generator: Sketch 46 (44423) - http://www.bohemiancoding.com/sketch -->
    <title>链接</title>
    <desc>Created with Sketch.</desc>
    <defs></defs>
    <g id="Page-1" stroke="none" stroke-width="1" fill="none" fill-rule="evenodd">
        <g id="素材管理-分享URL弹窗" transform="translate(-467.000000, -426.000000)" fill-rule="nonzero" fill="#F95759">
            <g id="Group" transform="translate(-1.000000, -43.000000)">
                <g id="链接" transform="translate(468.000000, 469.000000)">
                    <path d="M12.7237185,26.6093581 L26.6004171,12.7326596 C27.2721733,12.0609033 27.2721733,10.9569683 26.6004171,10.2852121 C25.9286608,9.61345583 24.8247258,9.61345583 24.1529696,10.2852121 L10.276271,24.1619106 C9.6045148,24.8336668 9.6045148,25.9376019 10.276271,26.6093581 L10.276271,26.6093581 C10.9433297,27.2811143 12.0472647,27.2811143 12.7237185,26.6093581 L12.7237185,26.6093581 Z" id="Shape"></path>
                    <path d="M17.3038746,24.2088865 C17.5481496,24.5471135 17.590428,24.9041307 17.590428,25.1061274 C17.590428,25.3457048 17.5340568,25.8060692 17.1441564,26.1959696 L9.86758021,33.4678482 C9.47767973,33.8577487 9.02201291,33.9141198 8.77773795,33.9141198 C8.53816055,33.9141198 8.07779616,33.8577487 7.68789569,33.4678482 L3.54931364,29.3292662 C3.15941316,28.9393657 3.10304204,28.4836989 3.10304204,28.2394239 C3.10304204,27.9951489 3.1594132,27.5394821 3.54931364,27.1495817 L10.8211922,19.8777031 C11.2110927,19.4878026 11.6667595,19.4314315 11.9110345,19.4314315 C12.0801479,19.4314315 12.3573061,19.4643147 12.6391618,19.6099401 L14.8470319,17.40207 C13.0384575,15.9082345 10.3373398,16.006884 8.64150766,17.6980186 L1.37432665,24.9745947 C-0.424852616,26.773774 -0.424852616,29.7097714 1.37432665,31.5042531 L5.5129087,35.6428352 C7.31208796,37.4420144 10.2480854,37.4420144 12.0425671,35.6428352 L19.3144457,28.3709566 C21.0478586,26.6375437 21.1089274,23.8283813 19.4882568,22.0198068 L17.3038746,24.2088865 L17.3038746,24.2088865 Z" id="Shape"></path>
                    <path d="M35.6291965,5.52654733 L31.4906145,1.38796528 C29.6914352,-0.411213983 26.7554378,-0.411213983 24.9609561,1.38796528 L17.6890775,8.66454147 C15.9979429,10.355676 15.8992934,13.0567937 17.3931289,14.8700658 L19.600999,12.6621957 C19.450676,12.3756423 19.4177928,12.0984841 19.4177928,11.9340683 C19.4177928,11.6944909 19.474164,11.2341265 19.8640644,10.844226 L27.135943,3.57234745 C27.5258435,3.18244697 27.9815103,3.12607585 28.2257852,3.12607585 C28.4653626,3.12607585 28.925727,3.18244701 29.3156275,3.57234745 L33.4542096,7.7109295 C33.84411,8.10082998 33.9004811,8.5564968 33.9004811,8.80077176 C33.9004811,9.04034916 33.84411,9.50071354 33.4542096,9.89061402 L26.1776334,17.157795 C25.787733,17.5476955 25.3320661,17.6040666 25.0877912,17.6040666 C24.8857945,17.6040666 24.5287773,17.5617882 24.1905503,17.3175133 L22.0061682,19.5018954 C23.8147426,21.122566 26.6145099,21.0661949 28.357318,19.3280843 L35.6291965,12.0562058 C37.4236782,10.2617241 37.4236782,7.32102902 35.6291965,5.52654733 L35.6291965,5.52654733 Z" id="Shape"></path>
                </g>
            </g>
        </g>
    </g>
</svg>