<?xml version="1.0" encoding="UTF-8"?>
<svg width="336px" height="214px" viewBox="0 0 336 214" version="1.1" xmlns="http://www.w3.org/2000/svg" xmlns:xlink="http://www.w3.org/1999/xlink">
    <!-- Generator: Sketch 46 (44423) - http://www.bohemiancoding.com/sketch -->
    <title>排版单图片</title>
    <desc>Created with Sketch.</desc>
    <defs>
        <linearGradient x1="0.25781251%" y1="49.7500002%" x2="101.257813%" y2="49.7500002%" id="linearGradient-1">
            <stop stop-color="#3023AE" offset="0%"></stop>
            <stop stop-color="#53A0FD" offset="100%"></stop>
        </linearGradient>
        <rect id="path-2" x="39" y="30" width="259" height="151"></rect>
        <mask id="mask-3" maskContentUnits="userSpaceOnUse" maskUnits="objectBoundingBox" x="0" y="0" width="259" height="151" fill="white">
            <use xlink:href="#path-2"></use>
        </mask>
        <linearGradient x1="0.25781251%" y1="49.7500002%" x2="101.257813%" y2="49.7500002%" id="linearGradient-4">
            <stop stop-color="#3023AE" stop-opacity="0.441830842" offset="0%"></stop>
            <stop stop-color="#53A0FD" stop-opacity="0.569095335" offset="100%"></stop>
        </linearGradient>
    </defs>
    <g id="Page-1" stroke="none" stroke-width="1" fill="none" fill-rule="evenodd">
        <g id="创建图文" transform="translate(-1515.000000, -1191.000000)">
            <g id="Group" transform="translate(1510.000000, 157.000000)">
                <g id="Group-2" transform="translate(1.000000, 109.000000)">
                    <g id="排版方式" transform="translate(1.000000, 823.000000)">
                        <g id="封面" transform="translate(3.000000, 102.000000)">
                            <g id="排版单图片">
                                <rect id="Rectangle-3-Copy-3" stroke="#CCCCCC" x="0.5" y="0.5" width="335" height="213" rx="4"></rect>
                                <use id="Rectangle-3" stroke="url(#linearGradient-1)" mask="url(#mask-3)" stroke-width="2" stroke-dasharray="3" xlink:href="#path-2"></use>
                                <g id="图片" transform="translate(137.000000, 62.000000)" fill-rule="nonzero" fill="url(#linearGradient-4)">
                                    <path d="M56.700144,1.58752804 C59.298552,1.58752804 61.412472,3.70144804 61.412472,6.29985601 L61.412472,56.699856 C61.412472,59.298408 59.298552,61.412472 56.700144,61.412472 L6.29985601,61.412472 C3.70144804,61.412472 1.58752804,59.2984079 1.58752804,56.699856 L1.58752804,6.29985601 C1.58752804,3.70144804 3.70144804,1.58752804 6.29985601,1.58752804 L56.700144,1.58752804 L56.700144,1.58752804 Z M56.700144,0 L6.29985601,0 C2.820528,0 0,2.820528 0,6.29985601 L0,56.699856 C0,60.179472 2.820528,63 6.29985601,63 L56.700144,63 C60.179472,63 63,60.179472 63,56.699856 L63,6.29985601 C63,2.820528 60.179472,0 56.700144,0 Z" id="Shape"></path>
                                    <path d="M32.801188,46.9999992 C32.5886526,47.0002972 32.3847715,46.9138046 32.2346987,46.7596772 C31.9217671,46.4392726 31.9217671,45.9197035 32.2346987,45.5992988 L41.9961182,35.6022272 C45.3840798,32.1326282 50.8969391,32.1325537 54.2853368,35.6022272 L63.7653648,45.3109718 C64.0782238,45.6313764 64.0782238,46.1509455 63.7652921,46.4713502 C63.4524331,46.7917548 62.9452454,46.7918292 62.632241,46.4713502 L53.1523583,36.7626056 C50.3888066,33.9327739 45.8925029,33.9327739 43.1293147,36.7626056 L33.3678225,46.7596772 C33.2176869,46.9137993 33.0137641,47.0002874 32.801188,46.9999992 Z" id="Shape"></path>
                                    <path d="M1.79654423,38.9999993 C1.58541549,39.0002585 1.38287311,38.9182435 1.23368064,38.7720803 C0.92233544,38.4678819 0.92211867,37.9744345 1.2329581,37.6698826 L13.0575015,26.0861677 C15.0885793,24.0960473 17.7893854,23.0000001 20.662302,23 C23.5354353,22.9999293 26.2364581,24.0959766 28.2678249,26.0862383 L39.767078,37.3520402 C40.0779174,37.6565921 40.0776284,38.1500395 39.7662832,38.4541672 C39.4550102,38.7583656 38.9506006,38.7580121 38.6397612,38.4534603 L27.1405803,27.1875877 C25.4102263,25.4922633 23.1094942,24.5586013 20.6624464,24.5586013 C18.2154709,24.5586719 15.9149556,25.492334 14.1848184,27.187517 L2.36013037,38.7713734 C2.210889,38.9179829 2.00803052,39.0002751 1.79654423,38.9999993 L1.79654423,38.9999993 Z" id="Shape"></path>
                                    <path d="M48.999889,21 C45.6915383,21 43,18.3084195 43,15 C43,11.6915805 45.6916123,9 48.999889,9 C52.3083877,9 55.0000001,11.6915805 55,15 C54.9999999,18.3084195 52.3083877,21 48.999889,21 Z M48.999889,10.6326611 C46.591803,10.6326611 44.6326647,12.59181 44.6326646,15 C44.6326645,17.40819 46.5918029,19.3673389 48.999889,19.3673389 C51.408123,19.3673389 53.3673354,17.40819 53.3673354,15 C53.3673354,12.59181 51.408123,10.6326611 48.999889,10.6326611 L48.999889,10.6326611 Z" id="Shape"></path>
                                </g>
                            </g>
                        </g>
                    </g>
                </g>
            </g>
        </g>
    </g>
</svg>