<?xml version="1.0" encoding="UTF-8"?>
<svg width="58px" height="58px" viewBox="0 0 58 58" version="1.1" xmlns="http://www.w3.org/2000/svg" xmlns:xlink="http://www.w3.org/1999/xlink">
    <!-- Generator: Sketch 46 (44423) - http://www.bohemiancoding.com/sketch -->
    <title>消息</title>
    <desc>Created with Sketch.</desc>
    <defs></defs>
    <g id="Page-1" stroke="none" stroke-width="1" fill="none" fill-rule="evenodd">
        <g id="新媒体首页" transform="translate(-258.000000, -153.000000)">
            <g id="左侧">
                <g id="消息" transform="translate(258.000000, 153.000000)">
                    <circle id="Oval-2" fill="#58D0FF" cx="29" cy="29" r="29"></circle>
                    <path d="M46,27.6931607 C46,35.7260401 39.4461719,42.2044441 31.3422545,42.3817677 C31.0206585,42.794511 30.9294196,42.9092231 30.7716183,43.094857 C30.7196875,43.1582655 30.7196875,43.1582655 30.6650781,43.2201561 C30.400067,43.5264976 30.1297656,43.8079842 29.4186049,44.5188347 C27.5109933,46.1654061 24.819029,46.9962052 22.858817,46.9999999 C22.6718737,47.0001236 22.4915445,46.9216007 22.3527679,46.7796449 C22.1303592,46.5538622 22.0389554,46.2054679 22.1163839,45.8786449 C22.1450112,45.7427967 22.1936272,45.6280847 22.2588504,45.5096159 C22.3301004,45.3798012 22.4213393,45.2469887 22.5711384,45.04629 C22.6097433,44.9941896 22.8760937,44.6403012 22.9606362,44.5255892 C23.1251004,44.3029575 23.2642522,44.1052566 23.3967411,43.90452 C24.214375,42.6631784 24.5646317,41.5750267 24.3342411,40.5766941 C24.2670089,40.2823816 24.3422433,39.9699686 24.5333259,39.7571651 C24.7234468,39.5431843 25.0001756,39.4610993 25.2584152,39.5420847 C25.5169515,39.622139 25.7180489,39.8526396 25.7857589,40.1465334 C26.1586161,41.7644552 25.6619085,43.3083816 24.5985491,44.9217878 C24.5572656,44.9851583 24.5153125,45.04629 24.4727232,45.1089396 C25.8469978,44.8093146 27.3564397,44.1626316 28.4664062,43.2072923 C29.1089286,42.5613682 29.3619531,42.297982 29.5956585,42.0278414 L29.6875335,41.9214396 C29.8546763,41.7222209 29.9458817,41.6067499 30.4372991,40.9743726 C30.5797313,40.7912591 30.7845458,40.686055 30.999933,40.6853726 C38.479308,40.6853726 44.4997991,34.837107 44.4997991,27.6931607 C44.4997991,20.5480759 38.4792746,14.6997723 30.999933,14.6997723 C23.5205915,14.6997723 17.500067,20.5480759 17.500067,27.6931607 C17.500067,31.1568727 18.9169643,34.4129798 21.4118527,36.836087 C21.7267857,37.1417075 21.7627455,37.678232 21.49375,38.0344352 C21.2234152,38.3913593 20.7500112,38.4320758 20.4350446,38.1272142 C17.62,35.3909731 16,31.6715022 16,27.6931607 C16,19.5466696 22.7396205,13 31,13 C39.2603795,13 46,19.5466696 46,27.6931607 Z" id="Shape" fill="#FFFFFF" fill-rule="nonzero"></path>
                    <path d="M25.0000026,23.7665394 C25.0000026,23.4538447 25.3057934,23.2 25.6872723,23.2 L35.3126997,23.2 C35.692337,23.2 36,23.4515676 36,23.7665394 C36,24.0794871 35.6942092,24.3333318 35.3126997,24.3333318 L25.6872723,24.3333318 C25.5048137,24.3336825 25.3297102,24.2740715 25.2007209,24.1676939 C25.0717317,24.0613163 24.9994958,23.9169459 25.0000026,23.7665394 L25.0000026,23.7665394 Z" id="Path" stroke="#FFFFFF" stroke-width="2" fill="#FFFFFF"></path>
                    <path d="M25,29.4333333 C25,29.121075 25.3422668,28.8666667 25.751172,28.8666667 L33.2494977,28.8666667 C33.6636938,28.8666667 34,29.1205946 34,29.4333333 C34,29.746072 33.6636938,30 33.2494977,30 L25.751172,30 C25.5519204,30.0000186 25.3608013,29.9403381 25.2197727,29.8340606 C25.0785596,29.7284996 25,29.5836724 25,29.4333333 Z" id="Path" stroke="#FFFFFF" stroke-width="2" fill="#FFFFFF"></path>
                </g>
            </g>
        </g>
    </g>
</svg>