<?xml version="1.0" encoding="UTF-8"?>
<svg width="529px" height="529px" viewBox="0 0 529 529" version="1.1" xmlns="http://www.w3.org/2000/svg" xmlns:xlink="http://www.w3.org/1999/xlink">
    <!-- Generator: Sketch 46 (44423) - http://www.bohemiancoding.com/sketch -->
    <title>无内容</title>
    <desc>Created with Sketch.</desc>
    <defs></defs>
    <g id="Page-1" stroke="none" stroke-width="1" fill="none" fill-rule="evenodd" opacity="0.4">
        <g id="素材-视频空图" transform="translate(-878.000000, -234.000000)" fill-rule="nonzero">
            <g id="无内容" transform="translate(878.000000, 234.000000)">
                <path d="M497,248.500583 C497,385.74642 385.73916,497 248.5,497 C111.259673,496.998833 0,385.745254 0,248.500583 C0,111.255913 111.259673,0 248.5,0 C385.739161,0 497,111.255912 497,248.500583 Z" id="Shape" fill="#EFF1FB"></path>
                <path d="M501,386.004657 C501,447.310915 451.296822,497 389.997672,497 C328.698521,497 279,447.310915 279,386.004657 C279,324.693743 328.699685,275 389.997672,275 C451.295658,275 501.000001,324.693742 501,386.004657 L501,386.004657 Z" id="Shape" fill="#DFE3EF"></path>
                <path d="M497.935818,122.314216 C490.538952,113.846216 477.673772,113.038518 477.131257,113.007003 L325.98902,113 C305.246295,113 296.154217,130.770543 294.730845,133.860108 C294.04716,134.938596 291.592427,138.809014 288.423675,143.763756 L96.7946811,143.763756 L95.7458193,143.895649 C94.6526233,144.175776 69.2104378,151.023709 65.3183333,178.374587 L22,178.374587 L22.2088387,183.509078 C22.6008493,193.181622 31.8830992,420.680751 36.7202295,442.948496 C40.7360041,461.439198 60.1743609,468 75.5992768,468 L472.704804,467.992997 L473.117816,463.510968 C473.40249,460.423738 501.629584,154.650183 502.911785,138.514881 C503.418131,132.126823 501.742753,126.678357 497.935818,122.314216 Z M97.3826965,152.215415 L282.998529,152.215415 C278.131065,159.764832 272.971926,167.667908 270.06218,171.827791 C266.672922,176.675151 257.274003,178.401433 249.609963,178.401433 C248.891277,178.401433 248.454932,178.382758 248.159757,178.375755 L73.8550631,178.375755 C77.2419875,159.173064 94.2711129,153.160843 97.3826965,152.215415 L97.3826965,152.215415 Z M493.075353,137.735195 C491.885321,152.734817 467.223657,420.020118 463.707229,458.123197 L75.9924542,458.125531 L75.6004436,458.1302 C71.3454957,458.1302 49.9330855,457.29799 46.3618229,440.854548 C42.7112248,424.052777 35.6783686,271.237782 32.2762767,188.245555 L247.913584,188.238552 C247.913584,188.238552 248.536601,188.271233 249.609963,188.271233 C255.920633,188.271233 271.338548,187.220758 278.146232,177.486352 C284.858245,167.89201 302.506888,140.024064 303.254741,138.84403 L303.625751,138.137877 C303.894091,137.514595 310.386766,122.872134 325.98902,122.872134 L476.679745,122.872134 C477.688939,122.95734 486.145167,123.817562 490.505117,128.809655 C492.528172,131.12537 493.369361,134.044524 493.075353,137.735195 L493.075353,137.735195 Z" id="Shape" fill="#5D71D1"></path>
                <path d="M525,413.503492 C525,475.078658 475.079822,525 413.498836,525 C351.920178,525 302,475.077493 302,413.503492 C302,351.91785 351.920178,302 413.498836,302 C475.079822,302 525,351.91785 525,413.503492 L525,413.503492 Z" id="Shape" fill="#8CDCE0"></path>
                <path d="M413.498833,529 C349.813575,529 298,477.185901 298,413.502334 C298,349.814099 349.813575,298 413.498833,298 C477.186425,298 529,349.814099 529,413.502334 C529,477.185901 477.186425,529 413.498833,529 Z M413.498833,305.402514 C353.896472,305.402514 305.40244,353.894702 305.402439,413.502334 C305.402439,473.105298 353.896472,521.597486 413.498833,521.597486 C473.103528,521.597486 521.597561,473.105298 521.597561,413.502334 C521.597561,353.893535 473.103528,305.402514 413.498833,305.402514 Z" id="Shape" fill="#5D71D1"></path>
                <polygon id="Shape" fill="#FFFFFF" points="479 402.315178 430.681988 402.315178 430.681988 354 404.320345 354 404.320345 402.315178 356 402.315178 356 428.677821 404.320345 428.677821 404.320345 477 430.681988 477 430.681988 428.677821 479 428.677821"></polygon>
                <path d="M435.631055,482 L399.368944,482 L399.368944,433.629356 L351,433.629356 L351,397.365972 L399.368944,397.365972 L399.368944,349 L435.631055,349 L435.631055,397.365972 L484,397.365972 L484,433.629356 L435.631055,433.629356 L435.631055,482 L435.631055,482 Z M409.245234,472.125699 L425.757101,472.125699 L425.757101,423.75272 L474.12371,423.75272 L474.12371,407.240273 L425.757101,407.240273 L425.757101,358.877804 L409.245234,358.877804 L409.245234,407.241441 L360.873954,407.241441 L360.873954,423.753888 L409.245234,423.753888 L409.245234,472.125699 L409.245234,472.125699 Z" id="Shape" fill="#5D71D1"></path>
                <polygon id="Shape" fill="#FFFFFF" points="476 398.315178 427.681988 398.315178 427.681988 350 401.320345 350 401.320345 398.315178 353 398.315178 353 424.677822 401.320345 424.677822 401.320345 473 427.681988 473 427.681988 424.677822 476 424.677822"></polygon>
                <path d="M429.656532,476 L398.348137,476 L398.348137,427.650099 L350,427.650099 L350,396.340562 L398.348137,396.340562 L398.348137,348 L429.656532,348 L429.656532,396.340562 L478,396.340562 L478,427.650099 L429.656532,427.650099 L429.656532,476 L429.656532,476 Z M403.281001,471.063454 L424.720166,471.063454 L424.720166,422.713554 L473.065969,422.713554 L473.065969,401.273606 L424.720166,401.273606 L424.720166,352.933044 L403.281001,352.933044 L403.281001,401.273606 L354.935199,401.273606 L354.935199,422.713554 L403.281001,422.713554 L403.281001,471.063454 Z" id="Shape" fill="#5D71D1"></path>
                <path d="M277.141226,315.739381 L254.205449,310.600555 C250.40328,309.750128 246.414043,313.117913 245.295139,318.126893 C244.176234,323.132364 246.334538,327.882824 250.148399,328.727402 L273.071315,333.868567 C276.867638,334.718994 280.863891,331.353548 281.981625,326.346908 C283.11456,321.341437 280.930534,316.595657 277.141226,315.739381 L277.141226,315.739381 Z M290.30267,253.957669 C286.958819,250.063485 281.088373,249.615461 277.202023,252.95868 C273.314504,256.300729 272.862032,262.162477 276.209391,266.053151 L296.357846,289.557457 C299.700528,293.448132 305.563959,293.898495 309.452647,290.557615 C313.346012,287.219075 313.786792,281.352649 310.448787,277.459636 L290.30267,253.957669 L290.30267,253.957669 Z M354.537344,236.068287 C349.443233,235.513813 344.944233,238.396141 344.510468,242.527789 L341.77459,267.41243 C341.336148,271.53589 345.099734,275.332983 350.198522,275.883947 C355.292633,276.44778 359.791633,273.551414 360.239428,269.429124 L362.963614,244.545652 C363.413748,240.418683 359.634962,236.61925 354.537344,236.068287 L354.537344,236.068287 Z" id="Shape" fill="#5D71D1"></path>
            </g>
        </g>
    </g>
</svg>