<?xml version="1.0" encoding="UTF-8"?>
<svg width="30px" height="30px" viewBox="0 0 30 30" version="1.1" xmlns="http://www.w3.org/2000/svg" xmlns:xlink="http://www.w3.org/1999/xlink">
    <!-- Generator: Sketch 46 (44423) - http://www.bohemiancoding.com/sketch -->
    <title>预览</title>
    <desc>Created with Sketch.</desc>
    <defs>
        <linearGradient x1="99.8024758%" y1="49.7500002%" x2="0.25781251%" y2="49.7500002%" id="linearGradient-1">
            <stop stop-color="#6BE3F9" offset="0%"></stop>
            <stop stop-color="#5853FD" offset="100%"></stop>
        </linearGradient>
    </defs>
    <g id="Page-1" stroke="none" stroke-width="1" fill="none" fill-rule="evenodd">
        <g id="内容--主栏目" transform="translate(-827.000000, -173.000000)" fill-rule="nonzero">
            <g id="预览" transform="translate(827.000000, 173.000000)">
                <path d="M15,0 C6.71616793,0 0,6.71616793 0,15 C0,23.2838321 6.71616793,30 15,30 C23.2838321,30 30,23.2838321 30,15 C30,6.71616793 23.2838321,0 15,0 Z" id="Shape" fill="url(#linearGradient-1)" opacity="0.779721467"></path>
                <path d="M23.0544419,11.6678119 C21.5942898,10.0298038 19.0078309,8.07692308 14.9747087,8.07692308 C10.9415864,8.07692308 8.35512758,10.0298038 6.89497546,11.6678119 C6.07216456,12.5923317 5.51238338,13.5202013 5.1886545,14.1331982 C5.04027877,14.4145738 4.90876391,14.68925 4.79410993,14.9572268 C4.64236202,15.3223451 4.61538462,15.4127873 4.61538462,15.5769231 C4.61538462,15.7410589 4.64236202,15.831501 4.79410993,16.1966194 C4.90539173,16.4612464 5.04027877,16.7392723 5.1886545,17.020648 C5.51238338,17.6336448 6.07216456,18.5581647 6.89497546,19.4860343 C8.35512758,21.1240423 10.9415864,23.0769231 14.9747087,23.0769231 C19.0078309,23.0769231 21.5942898,21.1240423 23.0544419,19.4860343 C23.8772528,18.5581647 24.437034,17.6336448 24.7607629,17.020648 C24.9091386,16.7392723 25.0406535,16.4645961 25.1553074,16.1966194 C25.3070553,15.8348507 25.3441493,15.808053 25.3846154,15.5769231 C25.3407771,15.3826399 24.6258758,13.4297592 23.0544419,11.6678119 Z M23.0207201,16.166472 C22.7442017,16.6890267 22.2720971,17.4762085 21.5740567,18.2600405 C20.3803065,19.5999244 18.2659523,21.1977359 14.9713365,21.1977359 C11.6767207,21.1977359 9.56573869,19.5999244 8.36861628,18.2600405 C7.67057589,17.4762085 7.1950991,16.6890267 6.92195286,16.166472 C6.81741541,15.9654894 6.71962232,15.7645068 6.63531792,15.5735734 C6.71962232,15.3826399 6.81404324,15.1816573 6.92195286,14.977325 C7.1950991,14.4547703 7.67057589,13.6709383 8.36861628,12.8871062 C9.56236652,11.5472223 11.6767207,9.94941079 14.9713365,9.94941079 C18.2625801,9.94941079 20.3803065,11.5472223 21.5740567,12.8871062 C22.4845442,13.9087677 23.0409532,14.9840245 23.3039829,15.5802728 C23.2230507,15.7712062 23.1286298,15.9688391 23.0207201,16.166472 Z" id="Shape" fill="#FFFFFF"></path>
                <path d="M15,11.5384615 C13.0892831,11.5384615 11.5384615,13.0904184 11.5384615,15 C11.5384615,16.9095816 13.0892831,18.4615385 15,18.4615385 C16.9107169,18.4615385 18.4615385,16.9095816 18.4615385,15 C18.4615385,13.0904184 16.9107169,11.5384615 15,11.5384615 Z M15,16.5721997 C14.1329795,16.5721997 13.426276,15.8670715 13.426276,15 C13.426276,14.1329285 14.1329795,13.4278003 15,13.4278003 C15.8670205,13.4278003 16.573724,14.1329285 16.573724,15 C16.573724,15.8670715 15.8670205,16.5721997 15,16.5721997 Z" id="Shape" fill="#FFFFFF"></path>
            </g>
        </g>
    </g>
</svg>