<?xml version="1.0" encoding="UTF-8"?>
<svg width="27px" height="31px" viewBox="0 0 27 31" version="1.1" xmlns="http://www.w3.org/2000/svg" xmlns:xlink="http://www.w3.org/1999/xlink">
    <!-- Generator: Sketch 46 (44423) - http://www.bohemiancoding.com/sketch -->
    <title>标题</title>
    <desc>Created with Sketch.</desc>
    <defs>
        <linearGradient x1="0.25781251%" y1="49.7500002%" x2="99.3676862%" y2="49.7500002%" id="linearGradient-1">
            <stop stop-color="#6D74C2" offset="0%"></stop>
            <stop stop-color="#71ABF1" offset="100%"></stop>
        </linearGradient>
    </defs>
    <g id="Page-1" stroke="none" stroke-width="1" fill="none" fill-rule="evenodd">
        <g id="创建图文-弹出框" transform="translate(-438.000000, -179.000000)" fill-rule="nonzero" fill="url(#linearGradient-1)">
            <g id="输入标题" transform="translate(434.000000, 178.000000)">
                <g id="标题" transform="translate(4.000000, 1.000000)">
                    <path d="M13.2012669,30.9914991 L8.76254535,28.4857989 L4.20442498,30.8512171 L3.94909658,30.8512171 C1.79121382,30.8512171 0.0356375264,29.0956826 0.0356375264,26.937758 L0.0356375264,3.93476616 C0.0356375264,1.7768834 1.79121382,0.0213071016 3.94909658,0.0213071016 L22.4703448,0.0213071016 C24.6282275,0.0213071016 26.3838038,1.7768834 26.3838038,3.93476616 L26.3838038,26.9377162 C26.3838038,29.0955989 24.6282694,30.8511752 22.4703448,30.8511752 L22.1872697,30.8511752 L18.1383832,28.48718 L13.2012669,30.9914991 Z M3.94913842,2.11381978 C2.94506715,2.11381978 2.12819204,2.93069489 2.12819204,3.93476616 L2.12819204,26.9377162 C2.12819204,27.8646156 2.82424547,28.6319818 3.72118009,28.7444753 L8.80447927,26.1065282 L13.2540819,28.6183805 L18.2088171,26.1051472 L22.7234551,28.7411273 C23.6082113,28.6175853 24.2913329,27.8559526 24.2913329,26.9377161 L24.291333,3.93476616 C24.291333,2.93069489 23.4744579,2.11381978 22.4703866,2.11381978 L3.94913842,2.11381978 Z" id="Shape"></path>
                    <path d="M19.9152613,7.75397843 L6.79478829,7.75397843 C6.21696183,7.75397843 5.74853195,7.28554855 5.74853195,6.70772209 C5.74853195,6.12989563 6.21696183,5.66146575 6.79478829,5.66146575 L19.9152613,5.66146575 C20.4930877,5.66146575 20.9615176,6.12989563 20.9615176,6.70772209 C20.9615176,7.28554855 20.4930458,7.75397843 19.9152613,7.75397843 Z" id="Shape"></path>
                    <path d="M19.9152613,15.2883633 L6.79478829,15.2883633 C6.21696183,15.2883633 5.74853195,14.8199334 5.74853195,14.2421069 C5.74853195,13.6642805 6.21696183,13.1958506 6.79478829,13.1958506 L19.9152613,13.1958506 C20.4930877,13.1958506 20.9615176,13.6642805 20.9615176,14.2421069 C20.9615176,14.8199334 20.4930458,15.2883633 19.9152613,15.2883633 Z" id="Shape"></path>
                    <path d="M19.9152613,22.8227063 L6.79478829,22.8227063 C6.21696183,22.8227063 5.74853195,22.3542764 5.74853195,21.7764499 C5.74853195,21.1986235 6.21696183,20.7301936 6.79478829,20.7301936 L19.9152613,20.7301936 C20.4930877,20.7301936 20.9615176,21.1986235 20.9615176,21.7764499 C20.9615176,22.3542764 20.4930458,22.8227063 19.9152613,22.8227063 Z" id="Shape"></path>
                </g>
            </g>
        </g>
    </g>
</svg>