<?xml version="1.0" encoding="UTF-8"?>
<svg width="18px" height="16px" viewBox="0 0 18 16" version="1.1" xmlns="http://www.w3.org/2000/svg" xmlns:xlink="http://www.w3.org/1999/xlink">
    <!-- Generator: Sketch 46 (44423) - http://www.bohemiancoding.com/sketch -->
    <title>观看人数</title>
    <desc>Created with Sketch.</desc>
    <defs>
        <linearGradient x1="50%" y1="0%" x2="50%" y2="100%" id="linearGradient-1">
            <stop stop-color="#F06266" offset="0%"></stop>
            <stop stop-color="#CB6DD1" offset="100%"></stop>
        </linearGradient>
    </defs>
    <g id="Page-1" stroke="none" stroke-width="1" fill="none" fill-rule="evenodd">
        <g id="直播" transform="translate(-443.000000, -193.000000)" fill-rule="nonzero" fill="url(#linearGradient-1)">
            <g id="人数" transform="translate(443.000000, 187.000000)">
                <g id="观看人数">
                    <g transform="translate(0.000000, 6.000000)" id="Shape">
                        <path d="M9.97834821,8.41541353 C11.1917411,7.53571429 11.9109375,6.15413534 11.9109375,4.67481203 C11.9109375,2.10338346 9.76138393,0.0112781955 7.12165179,0.0112781955 C4.48191964,0.0112781955 2.33035714,2.10338346 2.33035714,4.67481203 C2.33035714,6.15413534 3.04754464,7.53571429 4.26294643,8.41541353 C1.55089286,9.55075188 0,11.7161654 0,14.3890977 C0,14.5545113 0.0100446429,14.7161654 0.0220982143,14.8778195 L0.0241071429,14.8890977 C0.0241071429,14.9191729 0.028125,14.9492481 0.0321428571,14.9774436 L0.0341517857,14.9943609 L0.0361607143,14.9943609 C0.0984375,15.3515038 0.421875,15.6259398 0.809598214,15.6259398 C1.24151786,15.6259398 1.59308036,15.2857143 1.59308036,14.8665414 C1.59308036,14.8477444 1.59107143,14.8308271 1.58705357,14.7988722 C1.575,14.6635338 1.56495536,14.5281955 1.56495536,14.3890977 C1.56495536,11.5150376 3.95357143,9.34586466 7.12165179,9.34586466 C10.2897321,9.34586466 12.6803571,11.5131579 12.6803571,14.3890977 C12.6803571,14.5338346 12.6703125,14.674812 12.65625,14.8157895 L12.6542411,14.843985 L12.6542411,14.8590226 L12.6361607,14.9962406 L12.6703125,14.9962406 C12.740625,15.3477444 13.0560268,15.6090226 13.4377232,15.6090226 C13.8194196,15.6090226 14.1368304,15.3477444 14.2071429,14.9962406 L14.2212054,14.8778195 C14.2352679,14.7161654 14.2433036,14.5545113 14.2433036,14.3890977 C14.2412946,11.7161654 12.6924107,9.55075188 9.97834821,8.41541353 Z M10.3279018,4.67481203 C10.3279018,6.40037594 8.88950893,7.80451128 7.12165179,7.80451128 C5.35379464,7.80451128 3.91540179,6.40037594 3.91540179,4.67481203 C3.91540179,2.94924812 5.35379464,1.54511278 7.12165179,1.54511278 C8.88950893,1.54511278 10.3279018,2.94924812 10.3279018,4.67481203 Z"></path>
                        <path d="M14.4542411,8.31015038 C15.4587054,7.57142857 16.0513393,6.41917293 16.0513393,5.18609023 C16.0513393,3.35714286 14.7736607,1.78947368 12.9455357,1.37406015 C12.9174107,1.36654135 12.8872768,1.36654135 12.8571429,1.37218045 C12.8410714,1.37030075 12.825,1.36842105 12.8089286,1.36842105 C12.3669643,1.36842105 12.0073661,1.71616541 12.0073661,2.14473684 C12.0073661,2.52819549 12.2926339,2.84774436 12.6522321,2.90037594 C12.7064732,2.92105263 12.7747768,2.93984962 12.7948661,2.94360902 C13.7651786,3.26503759 14.4160714,4.15225564 14.4160714,5.15413534 C14.4160714,6.28195489 13.5924107,7.2462406 12.4613839,7.44736842 L12.4292411,7.45300752 C11.9852679,7.5 11.6417411,7.86654135 11.6417411,8.30263158 C11.6417411,8.7462406 11.9872768,9.10902256 12.4372768,9.15413534 L12.4915179,9.16353383 C14.8741071,9.39661654 16.4129464,11 16.4129464,13.2443609 C16.4129464,13.6672932 16.7685268,14.0131579 17.2064732,14.0131579 C17.6263393,14.0131579 17.9698661,13.6992481 17.9959821,13.2932331 L18,13.2443609 C18,11.0488722 16.7122768,9.2612782 14.4542411,8.31015038 Z"></path>
                    </g>
                </g>
            </g>
        </g>
    </g>
</svg>