<?xml version="1.0" encoding="UTF-8"?>
<svg width="577px" height="489px" viewBox="0 0 577 489" version="1.1" xmlns="http://www.w3.org/2000/svg" xmlns:xlink="http://www.w3.org/1999/xlink">
    <!-- Generator: Sketch 46 (44423) - http://www.bohemiancoding.com/sketch -->
    <title>视频添加</title>
    <desc>Created with Sketch.</desc>
    <defs></defs>
    <g id="Page-1" stroke="none" stroke-width="1" fill="none" fill-rule="evenodd" opacity="0.14">
        <g id="内容发布审阅-本地上传" transform="translate(-672.000000, -404.000000)">
            <g id="视频添加" transform="translate(674.000000, 404.000000)">
                <g id="Group" transform="translate(69.811938, 412.913930)">
                    <path d="M33.5840351,32.0170583 L0.496315789,32.0170583 L0.496315789,14.4316935 C0.496315789,6.53170931 6.97,0.0680858874 14.8822807,0.0680858874 L19.1980702,0.0680858874 C27.1103509,0.0680858874 33.5840351,6.53170931 33.5840351,14.4316935 L33.5840351,32.0170583 Z" id="Shape" fill="#FFE2E2" fill-rule="nonzero"></path>
                    <path d="M33.5840351,32.0170583 L0.496315789,32.0170583 L0.496315789,14.4316935 C0.496315789,6.53170931 6.97,0.0680858874 14.8822807,0.0680858874 L19.1980702,0.0680858874 C27.1103509,0.0680858874 33.5840351,6.53170931 33.5840351,14.4316935 L33.5840351,32.0170583 Z" id="Shape" stroke="#FF6666" stroke-width="4"></path>
                </g>
                <g id="Group" transform="translate(300.666667, 412.913930)">
                    <path d="M33.707482,32.0170583 L0.619762691,32.0170583 L0.619762691,14.4316935 C0.619762691,6.53170931 7.0934469,0.0680858874 15.0057276,0.0680858874 L19.3215171,0.0680858874 C27.2337978,0.0680858874 33.707482,6.53170931 33.707482,14.4316935 L33.707482,32.0170583 Z" id="Shape" fill="#FFE2E2" fill-rule="nonzero"></path>
                    <path d="M33.707482,32.0170583 L0.619762691,32.0170583 L0.619762691,14.4316935 C0.619762691,6.53170931 7.0934469,0.0680858874 15.0057276,0.0680858874 L19.3215171,0.0680858874 C27.2337978,0.0680858874 33.707482,6.53170931 33.707482,14.4316935 L33.707482,32.0170583 Z" id="Shape" stroke="#FF6666" stroke-width="4"></path>
                </g>
                <path d="M511.89264,394.636817 L437.115833,394.636817 C435.90885,394.414181 434.993903,393.362765 434.993903,392.093022 C434.993903,390.750025 436.019622,389.659827 437.330184,389.527682 L449.719377,389.527682 C453.839517,389.527682 457.179938,386.192452 457.179938,382.078715 C457.179938,377.964977 453.839517,374.629748 449.719377,374.629748 L370.428254,374.629748 C366.308114,374.629748 362.967693,377.964977 362.967693,382.078715 C362.967693,386.192452 366.308114,389.527682 370.428254,389.527682 L418.517657,389.527682 C419.82678,389.659827 420.853938,390.750025 420.853938,392.093022 C420.853938,393.362765 419.938991,394.414181 418.732008,394.636817 L414.816149,394.636817 C410.696008,394.636817 407.355587,397.972046 407.355587,402.085784 C407.355587,406.199521 410.696008,409.534751 414.816149,409.534751 L511.895517,409.534751 C516.015657,409.534751 519.356078,406.199521 519.356078,402.085784 C519.356078,397.972046 516.01278,394.636817 511.89264,394.636817 Z" id="Shape" fill="#FFE2E2" fill-rule="nonzero"></path>
                <path d="M288.480043,156.684984 C288.474289,164.584968 281.99485,171.048592 274.08257,171.048592 L132.839728,171.048592 C124.927447,171.048592 118.453763,164.584968 118.453763,156.684984 L118.453763,70.8710466 C118.453763,62.9710624 124.927447,56.507439 132.839728,56.507439 L274.168885,56.507439 C282.081166,56.507439 288.550535,62.9710624 288.543342,70.8710466 L288.480043,156.684984 Z" id="Shape" fill="#FFE2E2" fill-rule="nonzero"></path>
                <path d="M288.480043,297.768647 C288.474289,305.668631 281.99485,312.132255 274.08257,312.132255 L132.839728,312.132255 C124.927447,312.132255 118.453763,305.668631 118.453763,297.768647 L118.453763,211.95471 C118.453763,204.054725 124.927447,197.591102 132.839728,197.591102 L274.168885,197.591102 C282.081166,197.591102 288.550535,204.054725 288.543342,211.95471 L288.480043,297.768647 Z" id="Shape" fill="#FFE2E2" fill-rule="nonzero"></path>
                <path d="M288.481482,432.003742 C288.474289,439.903726 281.99485,446.36735 274.08257,446.36735 L132.839728,446.36735 C124.927447,446.36735 118.453763,439.903726 118.453763,432.003742 L118.453763,358.258108 C118.453763,350.358124 124.927447,343.8945 132.839728,343.8945 L274.168885,343.8945 C282.081166,343.8945 288.549096,350.358124 288.541903,358.258108 L288.481482,432.003742 Z" id="Shape" fill="#FFE2E2" fill-rule="nonzero"></path>
                <path d="M370.610956,27.9928052 L366.695096,27.9928052 C362.574956,27.9928052 359.234535,31.3280349 359.234535,35.4417721 C359.234535,39.5555093 362.574956,42.890739 366.695096,42.890739 L463.774464,42.890739 C467.894605,42.890739 471.235026,39.5555093 471.235026,35.4417721 C471.235026,31.3280349 467.894605,27.9928052 463.774464,27.9928052 L388.997657,27.9928052" id="Shape" fill="#FFE2E2" fill-rule="nonzero"></path>
                <path d="M267.910991,0.364405919 L263.995131,0.364405919 C259.874991,0.364405919 256.53457,3.69963561 256.53457,7.81337283 C256.53457,11.92711 259.874991,15.2623397 263.995131,15.2623397 L361.0745,15.2623397 C365.19464,15.2623397 368.535061,11.92711 368.535061,7.81337283 C368.535061,3.69963561 365.19464,0.364405919 361.0745,0.364405919 L286.297693,0.364405919" id="Shape" fill="#FFE2E2" fill-rule="nonzero"></path>
                <g id="Group" transform="translate(0.000000, 405.053735)" fill-rule="nonzero">
                    <ellipse id="Oval" stroke="#F55759" stroke-width="4" fill="#FFE2E2" cx="9.3491662" cy="9.36464245" rx="8.83010526" ry="8.81638235"></ellipse>
                    <ellipse id="Oval" fill="#F55759" cx="125.114464" cy="66.859291" rx="7.84898246" ry="7.83678431"></ellipse>
                    <polygon id="Shape" fill="#F55759" points="60.3517276 66.859291 50.5534469 83.8040389 40.7551662 66.859291"></polygon>
                </g>
                <g id="Group" transform="translate(387.741763, 51.708987)">
                    <g fill-rule="nonzero">
                        <ellipse id="Oval" stroke="#F55759" stroke-width="4" fill="#FFE2E2" cx="132.903298" cy="156.179385" rx="8.83010526" ry="8.81638235"></ellipse>
                        <ellipse id="Oval" stroke="#F55759" stroke-width="4" fill="#FFE2E2" cx="95.7400351" cy="205.439377" rx="5.95291228" ry="5.94366083"></ellipse>
                        <ellipse id="Oval" fill="#F55759" cx="8.22877193" cy="284.350165" rx="7.84898246" ry="7.83678431"></ellipse>
                        <ellipse id="Oval" fill="#F55759" cx="114.263404" cy="72.6463885" rx="7.84898246" ry="7.83678431"></ellipse>
                        <ellipse id="Oval" fill="#F55759" cx="159.461228" cy="233.821866" rx="7.84898246" ry="7.83678431"></ellipse>
                        <polygon id="Shape" fill="#F55759" points="90.2014386 233.821866 107.174 243.604919 90.2014386 253.387972"></polygon>
                        <polygon id="Shape" fill="#F55759" points="91.6659298 19.6963854 74.6933684 9.91333226 91.6659298 0.130279115"></polygon>
                    </g>
                    <g transform="translate(165.438596, 91.169120)" id="Shape" stroke="#F55759" stroke-width="4" stroke-linecap="round">
                        <path d="M0.166877193,9.85688448 L19.7878947,9.85688448"></path>
                        <path d="M9.97810526,0.0609040836 L9.97810526,19.6514285"></path>
                    </g>
                </g>
                <g id="Group" opacity="0.5" transform="translate(124.478605, 80.436203)" fill-rule="nonzero" fill="#FFFFFF">
                    <path d="M164.014386,94.5997264 C164.011509,102.499711 157.534947,108.963334 149.622667,108.963334 L15.0218246,108.963334 C7.10954386,108.963334 0.635859649,102.499711 0.635859649,94.5997264 L0.635859649,14.7955225 C0.635859649,6.8955383 7.10954386,0.431914875 15.0218246,0.431914875 L149.671579,0.431914875 C157.58386,0.431914875 164.054667,6.8955383 164.050351,14.7955225 L164.014386,94.5997264 Z" id="Shape"></path>
                </g>
                <g id="Group" opacity="0.5" transform="translate(132.350877, 223.393887)" fill-rule="nonzero" fill="#FFFFFF">
                    <path d="M163.991096,94.2022842 C163.988219,102.102268 157.510219,108.565892 149.597938,108.565892 L14.9985346,108.565892 C7.08625392,108.565892 0.612569708,102.102268 0.612569708,94.2022842 L0.612569708,14.3980803 C0.612569708,6.49809608 7.08625392,0.0344726583 14.9985346,0.0344726583 L149.648289,0.0344726583 C157.56057,0.0344726583 164.031377,6.49809608 164.0285,14.3980803 L163.991096,94.2022842 Z" id="Shape"></path>
                </g>
                <g id="Group" opacity="0.5" transform="translate(132.350877, 354.781108)" fill-rule="nonzero" fill="#FFFFFF">
                    <path d="M163.991096,94.6557445 C163.988219,102.555729 157.510219,109.019352 149.597938,109.019352 L14.9985346,109.019352 C7.08625392,109.019352 0.612569708,102.555729 0.612569708,94.6557445 L0.612569708,14.8515406 C0.612569708,6.95155637 7.08625392,0.487932944 14.9985346,0.487932944 L149.648289,0.487932944 C157.56057,0.487932944 164.031377,6.95155637 164.0285,14.8515406 L163.991096,94.6557445 Z" id="Shape"></path>
                </g>
                <path d="M345.789412,432.003742 C345.789412,439.903726 339.315728,446.36735 331.403447,446.36735 L69.8536574,446.36735 C61.9413767,446.36735 55.4676925,439.903726 55.4676925,432.003742 L55.4676925,57.2543466 C55.4676925,49.3543624 61.9413767,42.890739 69.8536574,42.890739 L331.403447,42.890739 C339.315728,42.890739 345.789412,49.3543624 345.789412,57.2543466 L345.789412,432.003742 Z" id="Shape" stroke="#F55759" stroke-width="4"></path>
                <g id="Group" transform="translate(69.811938, 58.212399)">
                    <path d="M33.5840351,48.1094673 C33.5840351,56.0094515 27.1103509,62.473075 19.1980702,62.473075 L14.8822807,62.473075 C6.97,62.473075 0.496315789,56.0094515 0.496315789,48.1094673 L0.496315789,14.7025888 C0.496315789,6.80260457 6.97,0.33898114 14.8822807,0.33898114 L19.1980702,0.33898114 C27.1103509,0.33898114 33.5840351,6.80260457 33.5840351,14.7025888 L33.5840351,48.1094673 Z" id="Shape" fill="#FFE2E2" fill-rule="nonzero"></path>
                    <path d="M33.5840351,48.1094673 C33.5840351,56.0094515 27.1103509,62.473075 19.1980702,62.473075 L14.8822807,62.473075 C6.97,62.473075 0.496315789,56.0094515 0.496315789,48.1094673 L0.496315789,14.7025888 C0.496315789,6.80260457 6.97,0.33898114 14.8822807,0.33898114 L19.1980702,0.33898114 C27.1103509,0.33898114 33.5840351,6.80260457 33.5840351,14.7025888 L33.5840351,48.1094673 Z" id="Shape" stroke="#FF6666" stroke-width="4"></path>
                </g>
                <g id="Group" transform="translate(69.811938, 150.139488)">
                    <path d="M33.5840351,47.8006498 C33.5840351,55.700634 27.1103509,62.1642574 19.1980702,62.1642574 L14.8822807,62.1642574 C6.97,62.1642574 0.496315789,55.700634 0.496315789,47.8006498 L0.496315789,14.3937712 C0.496315789,6.493787 6.97,0.030163576 14.8822807,0.030163576 L19.1980702,0.030163576 C27.1103509,0.030163576 33.5840351,6.493787 33.5840351,14.3937712 L33.5840351,47.8006498 Z" id="Shape" fill="#FFE2E2" fill-rule="nonzero"></path>
                    <path d="M33.5840351,47.8006498 C33.5840351,55.700634 27.1103509,62.1642574 19.1980702,62.1642574 L14.8822807,62.1642574 C6.97,62.1642574 0.496315789,55.700634 0.496315789,47.8006498 L0.496315789,14.3937712 C0.496315789,6.493787 6.97,0.030163576 14.8822807,0.030163576 L19.1980702,0.030163576 C27.1103509,0.030163576 33.5840351,6.493787 33.5840351,14.3937712 L33.5840351,47.8006498 Z" id="Shape" stroke="#FF6666" stroke-width="4"></path>
                </g>
                <g id="Group" transform="translate(69.811938, 240.630216)">
                    <path d="M33.5840351,48.1683581 C33.5840351,56.0683423 27.1103509,62.5319657 19.1980702,62.5319657 L14.8822807,62.5319657 C6.97,62.5319657 0.496315789,56.0683423 0.496315789,48.1683581 L0.496315789,14.7614795 C0.496315789,6.86149536 6.97,0.397871931 14.8822807,0.397871931 L19.1980702,0.397871931 C27.1103509,0.397871931 33.5840351,6.86149536 33.5840351,14.7614795 L33.5840351,48.1683581 Z" id="Shape" fill="#FFE2E2" fill-rule="nonzero"></path>
                    <path d="M33.5840351,48.1683581 C33.5840351,56.0683423 27.1103509,62.5319657 19.1980702,62.5319657 L14.8822807,62.5319657 C6.97,62.5319657 0.496315789,56.0683423 0.496315789,48.1683581 L0.496315789,14.7614795 C0.496315789,6.86149536 6.97,0.397871931 14.8822807,0.397871931 L19.1980702,0.397871931 C27.1103509,0.397871931 33.5840351,6.86149536 33.5840351,14.7614795 L33.5840351,48.1683581 Z" id="Shape" stroke="#FF6666" stroke-width="4"></path>
                </g>
                <g id="Group" transform="translate(69.811938, 331.799336)">
                    <path d="M33.5840351,47.9309289 C33.5840351,55.8309131 27.1103509,62.2945365 19.1980702,62.2945365 L14.8822807,62.2945365 C6.97,62.2945365 0.496315789,55.8309131 0.496315789,47.9309289 L0.496315789,14.5240503 C0.496315789,6.62406612 6.97,0.160442691 14.8822807,0.160442691 L19.1980702,0.160442691 C27.1103509,0.160442691 33.5840351,6.62406612 33.5840351,14.5240503 L33.5840351,47.9309289 Z" id="Shape" fill="#FFE2E2" fill-rule="nonzero"></path>
                    <path d="M33.5840351,47.9309289 C33.5840351,55.8309131 27.1103509,62.2945365 19.1980702,62.2945365 L14.8822807,62.2945365 C6.97,62.2945365 0.496315789,55.8309131 0.496315789,47.9309289 L0.496315789,14.5240503 C0.496315789,6.62406612 6.97,0.160442691 14.8822807,0.160442691 L19.1980702,0.160442691 C27.1103509,0.160442691 33.5840351,6.62406612 33.5840351,14.5240503 L33.5840351,47.9309289 Z" id="Shape" stroke="#FF6666" stroke-width="4"></path>
                </g>
                <g id="Group" transform="translate(300.666667, 327.490254)">
                    <path d="M33.707482,46.4845136 C33.707482,54.3844978 27.2337978,60.8481212 19.3215171,60.8481212 L15.0057276,60.8481212 C7.0934469,60.8481212 0.619762691,54.3844978 0.619762691,46.4845136 L0.619762691,14.5139958 C0.619762691,6.61401159 7.0934469,0.150388165 15.0057276,0.150388165 L19.3215171,0.150388165 C27.2337978,0.150388165 33.707482,6.61401159 33.707482,14.5139958 L33.707482,46.4845136 Z" id="Shape" fill="#FFE2E2" fill-rule="nonzero"></path>
                    <path d="M33.707482,46.4845136 C33.707482,54.3844978 27.2337978,60.8481212 19.3215171,60.8481212 L15.0057276,60.8481212 C7.0934469,60.8481212 0.619762691,54.3844978 0.619762691,46.4845136 L0.619762691,14.5139958 C0.619762691,6.61401159 7.0934469,0.150388165 15.0057276,0.150388165 L19.3215171,0.150388165 C27.2337978,0.150388165 33.707482,6.61401159 33.707482,14.5139958 L33.707482,46.4845136 Z" id="Shape" stroke="#FF6666" stroke-width="4"></path>
                </g>
                <g id="Group" transform="translate(228.057552, 48.078297)">
                    <ellipse id="Oval" stroke="#F55759" stroke-width="4" fill="#FFFFFF" fill-rule="nonzero" stroke-linecap="round" stroke-linejoin="round" cx="129.229123" cy="129.020246" rx="129.142807" ry="128.942106"></ellipse>
                    <ellipse id="Oval" fill="#FFE2E2" fill-rule="nonzero" cx="129.229123" cy="129.020246" rx="100.752105" ry="100.595526"></ellipse>
                    <g transform="translate(28.012623, 28.048823)" id="Shape">
                        <path d="M14.5065346,121.751254 C14.5065346,66.194256 59.6151662,21.1557279 115.25864,21.1557279 C145.529587,21.1557279 172.662956,34.5038285 191.131657,55.6054044 C174.518745,22.8463246 140.50457,0.377333166 101.215061,0.377333166 C45.5715873,0.377333166 0.462955673,45.4158612 0.462955673,100.972859 C0.462955673,126.305954 9.86274515,149.432798 25.3420434,167.118709 C18.4281487,153.483336 14.5065346,138.078367 14.5065346,121.751254 Z" fill="#FFE2E2" fill-rule="nonzero"></path>
                        <g transform="translate(41.040008, 22.303380)" stroke="#FFFFFF" stroke-width="5" stroke-linecap="round">
                            <path d="M118.123158,25.5758397 C122.233228,30.0501035 125.832596,34.9998027 128.824877,40.3358829"></path>
                            <path d="M24.9999298,8.35818327 C35.5750526,3.08099383 47.5067719,0.110599779 60.1318947,0.110599779 C77.5619298,0.110599779 93.6684561,5.76986118 106.707895,15.3475147"></path>
                            <path d="M0.218666667,27.7476172 C3.66122807,23.7143162 7.5037193,20.0314872 11.6871579,16.7637664"></path>
                        </g>
                    </g>
                    <ellipse id="Oval" stroke="#F55759" stroke-width="4" stroke-linecap="round" stroke-linejoin="round" cx="129.229123" cy="129.020246" rx="100.752105" ry="100.595526"></ellipse>
                </g>
                <polygon id="Shape" fill="#FEABAC" fill-rule="nonzero" opacity="0.256283967" points="327.681553 117.997037 429.229995 175.300015 327.681553 242.628194"></polygon>
                <path d="M322.108738,182.203298 L400.928932,182.203298" id="Line" stroke="#F55759" stroke-width="10" stroke-linecap="round"></path>
                <path d="M360.003883,142.128832 L360.003883,226.730481" id="Line" stroke="#F55759" stroke-width="10" stroke-linecap="round"></path>
            </g>
        </g>
    </g>
</svg>