<?xml version="1.0" encoding="UTF-8"?>
<svg width="23px" height="22px" viewBox="0 0 23 22" version="1.1" xmlns="http://www.w3.org/2000/svg" xmlns:xlink="http://www.w3.org/1999/xlink">
    <!-- Generator: Sketch 46 (44423) - http://www.bohemiancoding.com/sketch -->
    <title>素材管理上传视频icon</title>
    <desc>Created with Sketch.</desc>
    <defs></defs>
    <g id="Page-1" stroke="none" stroke-width="1" fill="none" fill-rule="evenodd">
        <g id="上传视频" transform="translate(-419.000000, -169.000000)" stroke="#FFFFFF" fill-rule="nonzero" fill="#FFFFFF">
            <g id="素材管理上传视频icon" transform="translate(420.000000, 170.000000)">
                <path d="M20.0205346,12.2440945 C20.2009721,11.511811 20.2851762,10.7440945 20.2851762,9.97637795 C20.2851762,4.47244094 15.7501823,0.0196850394 10.144593,0.0196850394 C4.53900365,0.0196850394 0.00400972053,4.47244094 0.00400972053,9.97637795 C0.00400972053,15.480315 4.53900365,19.9448819 10.144593,19.9448819 C11.2993925,19.9448819 12.4301337,19.7559055 13.4886999,19.3897638 C13.9578372,19.2244094 14.4149453,19.0354331 14.8479951,18.8110236 C14.9442284,18.7637795 14.9923451,18.6338583 14.9321993,18.5393701 C14.8840826,18.4448819 14.7517618,18.3976378 14.6555286,18.4566929 C14.2345079,18.6692913 13.8014581,18.8582677 13.3443499,19.011811 C12.3218712,19.3661417 11.2392467,19.5433071 10.1325638,19.5433071 C4.75552855,19.5433071 0.400972053,15.2677165 0.400972053,9.98818898 C0.400972053,4.70866142 4.76755772,0.433070866 10.144593,0.433070866 C15.5216282,0.433070866 19.8761847,4.70866142 19.8761847,9.98818898 C19.8761847,10.7322835 19.7919806,11.4527559 19.6235723,12.1614173 C19.599514,12.2677165 19.6716889,12.3858268 19.7799514,12.4094488 C19.8761847,12.4212598 19.9964763,12.3622047 20.0205346,12.2440945 L20.0205346,12.2440945 Z" id="Shape"></path>
                <path d="M15.9667072,17.1220472 L21.7767922,17.1220472 C21.8970838,17.1220472 21.981288,17.0275591 21.981288,16.9212598 C21.981288,16.8031496 21.8850547,16.7204724 21.7767922,16.7204724 L15.9667072,16.7204724 C15.8464156,16.7204724 15.7622114,16.8149606 15.7622114,16.9212598 C15.7501823,17.0275591 15.8464156,17.1220472 15.9667072,17.1220472 Z" id="Shape"></path>
                <path d="M18.6612394,14.0748031 L18.6612394,19.7795276 C18.6612394,19.8976378 18.7574727,19.980315 18.8657351,19.980315 C18.9739976,19.980315 19.0702309,19.8858268 19.0702309,19.7795276 L19.0702309,14.0748031 C19.0702309,13.9566929 18.9739976,13.8740157 18.8657351,13.8740157 C18.7574727,13.8740157 18.6612394,13.9566929 18.6612394,14.0748031 Z M5.2727825,13.7677165 C5.2727825,14.8188976 6.13888214,15.6692913 7.20947752,15.6692913 C8.2800729,15.6692913 9.14617254,14.8188976 9.14617254,13.7677165 C9.14617254,12.7165354 8.2800729,11.8661417 7.20947752,11.8661417 C6.13888214,11.8661417 5.2727825,12.7165354 5.2727825,13.7677165 L5.681774,13.7677165 C5.681774,12.9409449 6.36743621,12.2795276 7.19744836,12.2795276 C8.03948967,12.2795276 8.71312272,12.9527559 8.71312272,13.7677165 C8.71312272,14.5944882 8.02746051,15.2559055 7.19744836,15.2559055 C6.35540705,15.2559055 5.681774,14.5826772 5.681774,13.7677165 L5.2727825,13.7677165 Z M10.9144593,13.7677165 C10.9144593,14.8188976 11.7805589,15.6692913 12.8511543,15.6692913 C13.9217497,15.6692913 14.7878493,14.8188976 14.7878493,13.7677165 C14.7878493,12.7165354 13.9217497,11.8661417 12.8511543,11.8661417 C11.7805589,11.8661417 10.9144593,12.7165354 10.9144593,13.7677165 L11.3234508,13.7677165 C11.3234508,12.9409449 12.009113,12.2795276 12.8391252,12.2795276 C13.6811665,12.2795276 14.3547995,12.9527559 14.3547995,13.7677165 C14.3547995,14.5944882 13.6691373,15.2559055 12.8391252,15.2559055 C11.9970838,15.2559055 11.3234508,14.5826772 11.3234508,13.7677165 L10.9144593,13.7677165 Z M3.50449575,8.52362205 C3.50449575,9.57480315 4.37059538,10.4251969 5.44119077,10.4251969 C6.51178615,10.4251969 7.37788578,9.57480315 7.37788578,8.52362205 C7.37788578,7.47244094 6.51178615,6.62204724 5.44119077,6.62204724 C4.37059538,6.62204724 3.50449575,7.47244094 3.50449575,8.52362205 L3.91348724,8.52362205 C3.91348724,7.69685039 4.59914945,7.03543307 5.4291616,7.03543307 C6.27120292,7.03543307 6.94483597,7.70866142 6.94483597,8.52362205 C6.94483597,9.3503937 6.25917375,10.011811 5.4291616,10.011811 C4.58712029,10.011811 3.91348724,9.33858268 3.91348724,8.52362205 L3.50449575,8.52362205 L3.50449575,8.52362205 Z M12.7188335,8.52362205 C12.7188335,9.57480315 13.5849332,10.4251969 14.6555286,10.4251969 C15.7261239,10.4251969 16.5922236,9.57480315 16.5922236,8.52362205 C16.5922236,7.47244094 15.7261239,6.62204724 14.6555286,6.62204724 C13.5849332,6.62204724 12.7188335,7.47244094 12.7188335,8.52362205 L13.127825,8.52362205 C13.127825,7.69685039 13.8134872,7.03543307 14.6434994,7.03543307 C15.4855407,7.03543307 16.1591738,7.70866142 16.1591738,8.52362205 C16.1591738,9.3503937 15.4735115,10.011811 14.6434994,10.011811 C13.8134872,10.011811 13.127825,9.33858268 13.127825,8.52362205 L12.7188335,8.52362205 L12.7188335,8.52362205 Z M8.11166464,5.21653543 C8.11166464,6.26771654 8.97776428,7.11811024 10.0483597,7.11811024 C11.118955,7.11811024 11.9850547,6.26771654 11.9850547,5.21653543 C11.9850547,4.16535433 11.118955,3.31496063 10.0483597,3.31496063 C8.97776428,3.31496063 8.11166464,4.16535433 8.11166464,5.21653543 L8.52065614,5.21653543 C8.52065614,4.38976378 9.20631835,3.72834646 10.0363305,3.72834646 C10.8783718,3.72834646 11.5520049,4.4015748 11.5520049,5.21653543 C11.5520049,6.03149606 10.8663426,6.70472441 10.0363305,6.70472441 C9.19428919,6.70472441 8.52065614,6.03149606 8.52065614,5.21653543 L8.11166464,5.21653543 L8.11166464,5.21653543 Z" id="Shape"></path>
            </g>
        </g>
    </g>
</svg>