<?xml version="1.0" encoding="UTF-8"?>
<svg width="20px" height="20px" viewBox="0 0 20 20" version="1.1" xmlns="http://www.w3.org/2000/svg" xmlns:xlink="http://www.w3.org/1999/xlink">
    <!-- Generator: Sketch 46 (44423) - http://www.bohemiancoding.com/sketch -->
    <title>分享</title>
    <desc>Created with Sketch.</desc>
    <defs></defs>
    <g id="Page-1" stroke="none" stroke-width="1" fill="none" fill-rule="evenodd">
        <g id="素材管理-二次登陆" transform="translate(-667.000000, -469.000000)" fill-rule="nonzero" fill="#F95759">
            <g id="分享" transform="translate(667.000000, 469.000000)">
                <path d="M18.8660953,13.5723441 C18.1350967,12.8425616 17.1774565,12.4770853 16.2186232,12.4770853 C15.2610059,12.4770853 14.3033886,12.8425846 13.5723671,13.5723441 C13.4493409,13.6953933 13.3494194,13.8343197 13.2470659,13.9707682 L8.53453433,11.2148394 C8.65150327,10.8201323 8.73311538,10.41198 8.73311538,9.98067704 C8.73311538,9.58714009 8.66368657,9.21310561 8.56622011,8.85006135 L13.3226437,6.23427502 C13.3506584,6.21844361 13.3689448,6.192838 13.3932885,6.17335848 C14.0804409,6.97016067 15.0843594,7.48550776 16.2186461,7.48550776 C18.2861606,7.48550776 19.9614,5.81029128 19.9614,3.74275386 C19.9614,1.67521643 18.2861376,0 16.2186232,0 C14.1511087,0 12.4758693,1.67521648 12.4758693,3.7427539 C12.4758693,4.23497336 12.5769838,4.70158722 12.7499822,5.13289013 C12.740231,5.13775428 12.7292867,5.13653825 12.7207515,5.14142534 L8.07397769,7.69751112 C7.30397419,6.45114253 5.93822753,5.61414231 4.36655769,5.61414231 C1.95545556,5.61414231 0,7.56959785 0,9.9807 C0,12.3918022 1.9554785,14.3472577 4.36658063,14.3472577 C5.89926845,14.3472577 7.24308058,13.5540807 8.02161928,12.3601393 L12.6708252,15.0782562 C12.2578087,16.370926 12.547776,17.8402422 13.57239,18.8660952 C14.3034115,19.5958777 15.2610288,19.9613541 16.2186461,19.9613541 C17.1774794,19.9613541 18.1350967,19.5958548 18.8661182,18.8660952 C20.3268993,17.4040522 20.3268993,15.0331481 18.8660953,13.5723441 Z M16.2186232,1.24758462 C17.5941211,1.24758462 18.7137924,2.36723303 18.7137924,3.74275388 C18.7137924,5.11827473 17.5941211,6.23792314 16.2186232,6.23792314 C14.8431252,6.23792314 13.7234539,5.11827473 13.7234539,3.74275388 C13.7234539,2.36723303 14.8431252,1.24758462 16.2186232,1.24758462 Z M4.36658063,13.099673 C2.64749504,13.099673 1.24760758,11.6997626 1.24760758,9.98069998 C1.24760758,8.26159146 2.64749504,6.86172693 4.36658063,6.86172693 C6.08566621,6.86172693 7.48555368,8.26159146 7.48555368,9.98069998 C7.48553074,11.6997626 6.08564327,13.099673 4.36658063,13.099673 Z" id="Shape"></path>
            </g>
        </g>
    </g>
</svg>
