<?xml version="1.0" encoding="UTF-8"?>
<svg width="23px" height="22px" viewBox="0 0 23 22" version="1.1" xmlns="http://www.w3.org/2000/svg" xmlns:xlink="http://www.w3.org/1999/xlink">
    <!-- Generator: Sketch 43.1 (39012) - http://www.bohemiancoding.com/sketch -->
    <title>删除</title>
    <desc>Created with Sketch.</desc>
    <defs>
        <path d="M0.988262239,4.66531576 C1.01875721,4.18570006 1.44193168,3.79689471 1.91536879,3.79689471 L23.1281095,3.79689471 C23.6096413,3.79689471 24,4.18235627 24,4.66531576 L24,4.66531576 C24,5.14493147 23.6188753,5.53373682 23.1239153,5.53373682 L1.80913096,5.53373682 C1.32528272,5.53373682 0.957554666,5.14827526 0.988262239,4.66531576 L0.988262239,4.66531576 Z" id="path-1"></path>
    </defs>
    <g id="Welcome" stroke="none" stroke-width="1" fill="none" fill-rule="evenodd">
        <g id="运营工作室管理" transform="translate(-1731.000000, -381.000000)">
            <g id="公告内容" transform="translate(395.000000, 320.000000)">
                <g id="1" transform="translate(0.000000, 22.000000)">
                    <g id="操作" transform="translate(1296.000000, 39.721519)">
                        <g id="删除" transform="translate(39.000000, 0.000000)">
                            <path d="M19.4086712,3.86531576 C19.1165872,3.86531576 18.6748417,3.86531576 17.9260625,3.86531576 C15.6434538,3.86531576 15.6434538,3.86531576 12.9043234,3.86531576 C10.165193,3.86531576 10.165193,3.86531576 7.88258428,3.86531576 C7.01346884,3.86531576 6.9229895,3.86531576 6.42116347,3.86531576 C6.39997559,3.80733174 6.39997559,3.69880261 6.39997559,3.49898682 C6.39997559,3.10977466 6.39997559,3.10977466 6.39997559,2.77193176 C6.39997559,2.42249105 6.39997559,2.42249105 6.39997559,2.33265788 L6.39997559,2.33265788 C6.39997559,1.48885706 7.0897591,0.8 7.93092041,0.8 L17.8777264,0.8 C18.7266969,0.8 19.4086712,1.48066036 19.4086712,2.33265788 C19.4086712,2.62424012 19.4086712,2.62424012 19.4086712,3.49898682 C19.4086712,3.67400485 19.4086712,3.77898819 19.4086712,3.86531576 Z" id="Rectangle-21" stroke="#79A3E0" stroke-width="1.6"></path>
                            <g id="Rectangle-22">
                                <use fill="#D8D8D8" fill-rule="evenodd" xlink:href="#path-1"></use>
                                <path stroke="#79A3E0" stroke-width="1" d="M1.48725462,4.69704274 C1.50077826,4.48434699 1.70210498,4.29689471 1.91536879,4.29689471 L23.1281095,4.29689471 C23.3354031,4.29689471 23.5,4.46040059 23.5,4.66531576 C23.5,4.87262835 23.3388937,5.03373682 23.1239153,5.03373682 L1.80913096,5.03373682 C1.61159315,5.03373682 1.47500827,4.88964976 1.48725462,4.69704274 Z"></path>
                            </g>
                            <rect id="Rectangle-17-Copy-3" fill="#79A3E0" x="14.5652174" y="9.10846758" width="1.87826087" height="8.92022557" rx="0.939130435"></rect>
                            <rect id="Path" fill="#79A3E0" x="9.39130435" y="9.10846758" width="1.87826087" height="8.92022557" rx="0.939130435"></rect>
                            <path d="M20.470586,20.2 C20.1385255,20.2 19.6175579,20.2 18.6501819,20.2 C16.0297779,20.2 16.0297779,20.2 12.885293,20.2 C9.74080812,20.2 9.74080812,20.2 7.12040406,20.2 C6.05327064,20.2 6.00867708,20.2 5.31518317,20.2 C5.3,20.358373 5.3,20.0163547 5.3,19.2817736 C5.3,17.5635473 5.3,17.5635473 5.3,15.5016756 C5.3,13.9288278 5.3,13.9288278 5.3,12.5085207 C5.3,10.5293351 5.3,10.5293351 5.3,10.0033512 L5.3,10.0033512 C5.3,8.78682682 6.28553443,7.8 7.49824468,7.8 L18.2723413,7.8 C19.486969,7.8 20.470586,8.78477851 20.470586,10.0033512 C20.470586,11.3779323 20.470586,11.3779323 20.470586,15.5016756 C20.470586,17.5635473 20.470586,17.5635473 20.470586,19.2817736 C20.470586,19.6979645 20.470586,19.9881426 20.470586,20.2 Z" id="Rectangle-21" stroke="#79A3E0" stroke-width="1.6" transform="translate(12.885293, 14.000000) scale(1, -1) translate(-12.885293, -14.000000) "></path>
                        </g>
                    </g>
                </g>
            </g>
        </g>
    </g>
</svg>