<?xml version="1.0" encoding="UTF-8"?>
<svg width="25px" height="24px" viewBox="0 0 25 24" version="1.1" xmlns="http://www.w3.org/2000/svg" xmlns:xlink="http://www.w3.org/1999/xlink">
    <!-- Generator: Sketch 43.1 (39012) - http://www.bohemiancoding.com/sketch -->
    <title>导入</title>
    <desc>Created with Sketch.</desc>
    <defs></defs>
    <g id="Page-1" stroke="none" stroke-width="1" fill="none" fill-rule="evenodd" stroke-linecap="round">
        <g id="内容管理" transform="translate(-550.000000, -191.000000)" stroke="#F95759" stroke-width="1.5">
            <g id="直播头内容" transform="translate(399.000000, 181.000000)">
                <g id="搜索" transform="translate(2.000000, 0.000000)">
                    <g id="按钮" transform="translate(0.000000, 2.000000)">
                        <g id="Group-5" transform="translate(150.000000, 8.000000)">
                            <g id="导入" transform="translate(0.000000, 1.000000)">
                                <path d="M0.5,8.5 C0.5,8.5 0.5,15.254628 0.5,19.5 C0.5,21.2444086 1.89248614,22.0092561 2.5,22.0092561 C4.5,22.0092561 18.5054727,22.0092561 20.5,22.0092561 C21.0385965,22.0092561 22.9504725,21.451735 23,20 C23.1194064,16.5 23,8.5 23,8.5" id="Path-17" stroke-linejoin="round"></path>
                                <path d="M9,15.75 L15.5,15.75" id="Path-18"></path>
                                <polygon id="Path-19" stroke-linejoin="round" points="9 0 15 0 15 6.77804104 18.5000618 6.77804104 12 13.5092561 6 6.75462804 9 6.75462804"></polygon>
                            </g>
                        </g>
                    </g>
                </g>
            </g>
        </g>
    </g>
</svg>