<?xml version="1.0" encoding="UTF-8"?>
<svg width="22px" height="21px" viewBox="0 0 22 21" version="1.1" xmlns="http://www.w3.org/2000/svg" xmlns:xlink="http://www.w3.org/1999/xlink">
    <!-- Generator: Sketch 43.1 (39012) - http://www.bohemiancoding.com/sketch -->
    <title>设置</title>
    <desc>Created with Sketch.</desc>
    <defs></defs>
    <g id="Welcome" stroke="none" stroke-width="1" fill="none" fill-rule="evenodd">
        <g id="运营内容管理" transform="translate(-1730.000000, -478.000000)" stroke="#79A3E0" stroke-width="0.3" fill="#79A3E0" fill-rule="nonzero">
            <g id="公告内容" transform="translate(395.000000, 412.000000)">
                <g id="1" transform="translate(0.000000, 2.000000)">
                    <g id="操作" transform="translate(1296.000000, 64.721519)">
                        <g id="设置" transform="translate(40.000000, 0.000000)">
                            <path d="M10.7957427,19.9997426 L9.20425734,19.9997426 C8.2431818,19.9986079 7.4643591,19.2197852 7.46322441,18.2587097 L7.46322441,17.5637379 C7.4621994,17.5232335 7.43565912,17.487812 7.3970734,17.4754508 C7.10814939,17.3755142 6.82530407,17.2588007 6.54998006,17.1259057 C6.51310225,17.1090883 6.46962065,17.1174541 6.44161594,17.1467549 L5.95410613,17.6342647 C5.62829625,17.9618299 5.18498242,18.1454395 4.72297654,18.144168 C4.26097067,18.1454395 3.81765683,17.9618299 3.49184695,17.6342647 L2.36625012,16.5084104 C2.03972267,16.1819007 1.85627998,15.7390479 1.85627998,15.2772809 C1.85627998,14.8155138 2.03972267,14.372661 2.36625012,14.0461513 L2.85375992,13.5586415 C2.8829892,13.5305978 2.89134568,13.4871648 2.87460908,13.4502773 C2.74169036,13.174876 2.62497646,12.8919436 2.52506402,12.6029266 C2.51270276,12.5643409 2.4772813,12.5378006 2.43677687,12.5367756 L1.74180512,12.5367756 C0.780428031,12.5360664 0.00113544935,11.7571193 0,10.7957427 L0,9.20425734 C0.00113468533,8.2431818 0.779957388,7.4643591 1.74103293,7.46322441 L2.4514485,7.46322441 C2.49366383,7.46405512 2.53186337,7.43831419 2.54694277,7.39887518 C2.64709705,7.11680006 2.76328663,6.84067794 2.89494344,6.57185879 C2.91222131,6.53479332 2.90405227,6.49084595 2.87460908,6.4624651 L2.36625012,5.95384873 C2.03972267,5.627339 1.85627998,5.18448615 1.85627998,4.72271914 C1.85627998,4.26095213 2.03972267,3.81809928 2.36625012,3.49158955 L3.49158955,2.36625012 C4.17198263,1.687425 5.27345565,1.687425 5.95384873,2.36625012 L6.48460123,2.89700262 C6.51282686,2.92611615 6.5563001,2.93435752 6.59322273,2.91759437 C6.85590092,2.79285444 7.1252943,2.68277695 7.40016217,2.58786889 C7.43840804,2.57398034 7.46369923,2.53743713 7.46322441,2.49675037 L7.46322441,1.74103293 C7.4643591,0.779957388 8.2431818,0.00113468533 9.20425734,0 L10.7957427,0 C11.7568182,0.00113468533 12.5356409,0.779957388 12.5367756,1.74103293 L12.5367756,2.5188865 C12.5361509,2.55944558 12.5610839,2.59602093 12.5990656,2.61026242 C12.8666603,2.70528699 13.128904,2.81475568 13.3846411,2.93818613 C13.421821,2.95553201 13.4659034,2.94747948 13.4945496,2.91810916 L14.0461513,2.36625012 C14.7265443,1.687425 15.8280174,1.687425 16.5084104,2.36625012 L17.6337499,3.49158955 C18.312575,4.17198263 18.312575,5.27345565 17.6337499,5.95384873 L17.0821482,6.50545037 C17.0527779,6.53409661 17.0447254,6.57817898 17.0620713,6.61535887 C17.1854079,6.87110431 17.2947905,7.13334754 17.3897376,7.40093436 C17.4039791,7.43891605 17.4405544,7.4638491 17.4811135,7.46322441 L18.2589671,7.46322441 C19.2199421,7.46450089 19.9986082,8.24328215 19.9997426,9.20425734 L19.9997426,10.7957427 C19.9986079,11.7568182 19.2197852,12.5356409 18.2587097,12.5367756 L17.5029922,12.5367756 C17.462184,12.5360413 17.4253961,12.5612555 17.4113589,12.5995804 C17.3164593,12.8744515 17.2063816,13.1438453 17.0816334,13.4065199 C17.0649497,13.443452 17.0731821,13.4868778 17.1022252,13.5151414 L17.6329777,14.0458939 C18.3118028,14.7262869 18.3118028,15.82776 17.6329777,16.508153 L16.5076383,17.6334925 C16.1811285,17.9600199 15.7382757,18.1434626 15.2765087,18.1434626 C14.8147417,18.1434626 14.3718888,17.9600199 14.0453791,17.6334925 L13.5370201,17.1251335 C13.5085563,17.0956465 13.4645131,17.0874789 13.427369,17.1047992 C13.1585541,17.2364652 12.8824314,17.352655 12.6003526,17.4527998 C12.5609136,17.4678792 12.5351727,17.5060788 12.5360034,17.5482941 L12.5360034,18.2587097 C12.5348697,19.2194842 11.7565166,19.9981826 10.7957427,19.9997426 L10.7957427,19.9997426 Z M6.5121427,16.087309 C6.68033935,16.0871909 6.84638448,16.1251164 6.99785074,16.1982471 C7.2369437,16.3137216 7.48257519,16.415137 7.73349121,16.5019755 C8.18698889,16.6578333 8.49190347,17.0839491 8.49306959,17.5634805 L8.49306959,18.2584523 C8.49335305,18.6511963 8.81151359,18.9695872 9.20425734,18.9701548 L10.7957427,18.9701548 C11.1884865,18.9697292 11.5067622,18.6514536 11.5071878,18.2587097 L11.5071878,17.5482941 C11.5071613,17.0704557 11.8070431,16.6440096 12.2567277,16.4824134 C12.5016714,16.3953584 12.7414412,16.2943801 12.9748652,16.179972 C13.4071249,15.9686841 13.9258924,16.0555764 14.2657109,16.3961854 L14.7745846,16.9055739 C14.9080077,17.0390047 15.0889728,17.113966 15.277667,17.113966 C15.4663611,17.113966 15.6473262,17.0390047 15.7807493,16.9055739 L16.9060887,15.7802345 C17.1835191,15.5022183 17.1835191,15.052086 16.9060887,14.7740698 L16.3753362,14.2433173 C16.0387674,13.9068356 15.9496795,13.3952754 16.1526879,12.9648267 C16.2610805,12.7366783 16.3567219,12.5026875 16.4391707,12.2639348 C16.5964031,11.8108495 17.0234004,11.507106 17.5029922,11.5071878 L18.2581949,11.5071878 C18.6511398,11.507046 18.9697288,11.1886874 18.9701548,10.7957427 L18.9701548,9.20425734 C18.9697292,8.81151345 18.6514536,8.49323777 18.2587097,8.49281219 L17.4811135,8.49281219 C17.0050985,8.49309712 16.5801963,8.19437796 16.4193511,7.74636105 C16.3368495,7.51393391 16.2418166,7.28614702 16.1346701,7.06400176 C15.9273783,6.63251216 16.0153193,6.11714898 16.3539723,5.77881881 L16.9055739,5.22515797 C17.0390047,5.09173493 17.113966,4.9107698 17.113966,4.72207564 C17.113966,4.53338149 17.0390047,4.35241636 16.9055739,4.21899332 L15.7802345,3.09365389 C15.6468115,2.96022308 15.4658463,2.88526178 15.2771522,2.88526178 C15.088458,2.88526178 14.9074929,2.96022308 14.7740698,3.09365389 L14.2224682,3.64525553 C13.8841006,3.98383627 13.3687861,4.07176897 12.9372852,3.86455773 C12.7151476,3.75739418 12.4873598,3.66236086 12.2549259,3.5798767 C11.806909,3.41903153 11.5081899,2.99412927 11.5084748,2.51811432 L11.5084748,1.74103293 C11.5080485,1.34778667 11.188989,1.02930331 10.7957427,1.02958777 L9.20425734,1.02958777 C8.81151345,1.03001336 8.49323777,1.34828904 8.49281219,1.74103293 L8.49281219,2.49675037 C8.49344273,2.97681487 8.18959755,3.4044718 7.73606518,3.56185893 C7.4973175,3.64432105 7.26332749,3.73996221 7.0351733,3.84834172 C6.6047353,4.05142955 6.09312741,3.96233335 5.75668268,3.62569336 L5.22515797,3.09442607 C4.94714179,2.81699567 4.49700949,2.81699567 4.21899332,3.09442607 L3.09365389,4.21976551 C2.96022308,4.35318855 2.88526178,4.53415368 2.88526178,4.72284784 C2.88526178,4.911542 2.96022308,5.09250714 3.09365389,5.22593018 L3.60355723,5.73428914 C3.94422378,6.07394189 4.03131822,6.59257792 3.82028545,7.02487742 C3.70596987,7.25830937 3.60507763,7.49807883 3.51810145,7.74301488 C3.35650517,8.19269946 2.93005912,8.49258134 2.45222068,8.49255479 L1.74103293,8.49255479 C1.34818865,8.49298061 1.02987149,8.81141293 1.02958777,9.20425734 L1.02958777,10.7957427 C1.03001336,11.1884865 1.34828904,11.5067622 1.74103293,11.5071878 L2.43600469,11.5071878 C2.91553614,11.5083539 3.34165195,11.8132685 3.49750969,12.2667662 C3.58426433,12.5176765 3.68559372,12.7633079 3.80098068,13.0024067 C4.00767375,13.4332583 3.91986055,13.9476517 3.58193588,14.2855304 L3.09442607,14.7745846 C2.96099528,14.9080077 2.88603398,15.0889728 2.88603398,15.277667 C2.88603398,15.4663611 2.96099528,15.6473262 3.09442607,15.7807493 L4.21976551,16.9060887 C4.35318855,17.0395195 4.53415368,17.1144808 4.72284784,17.1144808 C4.911542,17.1144808 5.09250714,17.0395195 5.22593018,16.9060887 L5.71421217,16.4180641 C5.92584402,16.2064216 6.21284258,16.0874561 6.5121427,16.087309 L6.5121427,16.087309 Z" id="Shape"></path>
                            <path d="M9.96795408,14.1949267 C9.29786124,14.1947819 8.6376529,14.0333055 8.04313973,13.7241477 C7.88009629,13.6389936 7.77486712,13.4733253 7.76709101,13.2895485 C7.75931491,13.1057717 7.85017325,12.9318064 8.00544058,12.8331837 C8.16070792,12.734561 8.35679543,12.726264 8.51983887,12.8114181 C8.96653073,13.0455299 9.46363366,13.1670223 9.96795408,13.1653389 C11.3834771,13.1646303 12.6225476,12.2144992 12.9904872,10.8476318 C13.3584267,9.48076438 12.7637511,8.0370173 11.5398621,7.32581982 C10.3159732,6.61462235 8.76717753,6.81280599 7.7617994,7.80926013 C6.75642126,8.80571426 6.54443697,10.3526814 7.24469441,11.5828625 C7.3384062,11.7427133 7.33898102,11.9405936 7.2461995,12.1009861 C7.15341797,12.2613786 6.9815969,12.3595338 6.79630848,12.3579926 C6.61102006,12.3564515 6.4408555,12.2554517 6.35075482,12.093538 C5.99294637,11.4653193 5.80488286,10.7547586 5.8050733,10.0317885 C5.8050733,7.73632256 7.67248812,5.86890773 9.96795408,5.86890773 C12.26342,5.86890773 14.1310923,7.73657996 14.1310923,10.0320459 C14.1310923,12.3275119 12.26342,14.1949267 9.96795408,14.1949267 L9.96795408,14.1949267 Z" id="Shape"></path>
                        </g>
                    </g>
                </g>
            </g>
        </g>
    </g>
</svg>