<?xml version="1.0" encoding="UTF-8"?>
<svg width="476px" height="447px" viewBox="0 0 476 447" version="1.1" xmlns="http://www.w3.org/2000/svg" xmlns:xlink="http://www.w3.org/1999/xlink">
    <!-- Generator: Sketch 46 (44423) - http://www.bohemiancoding.com/sketch -->
    <title>音频背景图标</title>
    <desc>Created with Sketch.</desc>
    <defs></defs>
    <g id="Page-1" stroke="none" stroke-width="1" fill="none" fill-rule="evenodd" opacity="0.14">
        <g id="内容发布审阅---音频-copy-3" transform="translate(-722.000000, -424.000000)">
            <g id="音频背景图标" transform="translate(724.000000, 426.000000)">
                <path d="M214.002267,0 C115.298985,0 35,80.3155721 35,179.044711 L35,216.410859 C35,223.154219 40.4794115,228.635041 47.2174106,228.635041 L48.0748998,228.635041 L48.0748998,244.129129 C48.0748998,274.61501 95.3945356,274.632237 95.3945356,244.129129 L95.3945356,201.931335 C95.3945356,171.447267 48.0748998,171.426414 48.0748998,201.931335 L48.0748998,217.425423 L47.2174106,217.425423 C46.6590455,217.425423 46.2067333,216.972994 46.2067333,216.410859 L46.2067333,179.044711 C46.2067333,109.484515 90.8909034,45.5465809 156.13397,21.4962452 C222.187392,-2.85238483 298.214793,17.8876977 343.118321,71.9701256 C367.981434,101.915631 381.793267,140.115916 381.793267,179.044711 L381.793267,216.410859 C381.793267,216.972994 381.340954,217.425423 380.782589,217.425423 L379.9251,217.425423 L379.9251,201.931335 C379.9251,171.44636 332.60909,171.427774 332.60909,201.931335 L332.60909,244.129129 C332.60909,274.614103 379.9251,274.63269 379.9251,244.129129 L379.9251,228.635041 L380.782589,228.635041 C387.520588,228.635041 393,223.154219 393,216.410859 L393,179.044711 C393.000907,80.3155721 312.701922,0 214.002267,0 Z M59.2820871,201.931335 C59.2820871,185.916818 84.1878027,185.874204 84.1878027,201.931335 L84.1878027,244.129129 C84.1878027,260.141833 59.2820871,260.188073 59.2820871,244.129129 L59.2820871,201.931335 Z M368.71882,244.129129 C368.71882,260.142739 343.816731,260.187166 343.816731,244.129129 L343.816731,201.931335 C343.816731,185.917724 368.71882,185.873298 368.71882,201.931335 L368.71882,244.129129 Z" id="Shape" stroke="#F55759" stroke-width="4" fill="#FFF0F0" fill-rule="nonzero"></path>
                <path d="M299.579589,121 L166.461047,121 C152.993455,121 142.040172,133.094565 142.040172,147.964275 L142.040172,152.722767 L109,152.722767 L109,270.625915 L142.040172,270.625915 L142.040172,361.035725 C142.040172,375.905948 152.993919,388 166.461047,388 L299.579124,388 C313.046717,388 324,375.905435 324,361.035725 L324,147.964788 C324.000464,133.094565 313.046717,121 299.579589,121 Z" id="Shape" stroke="#F55759" stroke-width="4" fill-rule="nonzero"></path>
                <polygon id="Path" fill="#FFD4D4" points="142 165 142 205 120 205 120 165"></polygon>
                <polygon id="Path" fill="#FFF0F0" points="120 258 120 218 142 218 142 258"></polygon>
                <path d="M313,360.761327 C313,368.613864 307.200409,375 300.069101,375 L166.9309,375 C159.799592,375 154,368.613864 154,360.761327 L154,270.584086 L154,152.984898 L154,148.238673 C154,140.386136 159.799591,134 166.930899,134 L300.0691,134 C307.200408,134 313,140.386136 313,148.238673 L313,360.761327 L313,360.761327 Z" id="Path" fill="#FFFFFF"></path>
                <polygon id="Path" stroke="#F55759" stroke-width="4" fill="#FFE2E2" stroke-linejoin="round" points="171 293 287 293 287 151 171 151"></polygon>
                <polygon id="Shape" fill="#FFF0F0" fill-rule="nonzero" points="191.180897 171.173937 284.819103 171.173937 284.819103 290.826516 191.180897 290.826516"></polygon>
                <polygon id="Shape" stroke="#F55759" stroke-width="4" fill="#FCB6B6" fill-rule="nonzero" points="171 315 287 315 287 326 171 326"></polygon>
                <polygon id="Shape-Copy-2" stroke="#F55759" stroke-width="4" fill="#FFD4D4" fill-rule="nonzero" points="171 346 287 346 287 357 171 357"></polygon>
                <path d="M226,214 L250,214 L250,190 L226,190 L226,214 Z M233.757495,197.757495 L242.242505,197.757495 L242.242505,206.242505 L233.757495,206.242505 L233.757495,197.757495 Z" id="Shape" fill="#FFD4D4" fill-rule="nonzero"></path>
                <path d="M226,258 L250,258 L250,234 L226,234 L226,258 Z M233.757495,241.757495 L242.242505,241.757495 L242.242505,250.242505 L233.757495,250.242505 L233.757495,241.757495 Z" id="Shape" fill="#FFD4D4" fill-rule="nonzero"></path>
                <g id="Group" transform="translate(0.000000, 54.000000)">
                    <g fill-rule="nonzero">
                        <ellipse id="Oval" stroke="#F55759" stroke-width="4" fill="#FFE2E2" cx="419.830105" cy="164.816382" rx="8.83010526" ry="8.81638235"></ellipse>
                        <ellipse id="Oval-Copy-3" stroke="#F55759" stroke-width="4" fill="#FFE2E2" cx="8.83010526" cy="82.8163824" rx="8.83010526" ry="8.81638235"></ellipse>
                        <ellipse id="Oval" stroke="#F55759" stroke-width="4" fill="#FFE2E2" cx="382.740035" cy="214.439377" rx="5.95291228" ry="5.94366083"></ellipse>
                        <ellipse id="Oval" fill="#F55759" cx="89.8489825" cy="244.836784" rx="7.84898246" ry="7.83678431"></ellipse>
                        <ellipse id="Oval" fill="#F55759" cx="401.263404" cy="81.6463885" rx="7.84898246" ry="7.83678431"></ellipse>
                        <ellipse id="Oval" fill="#F55759" cx="97.8489825" cy="73.8367843" rx="7.84898246" ry="7.83678431"></ellipse>
                        <polygon id="Shape" fill="#F55759" points="345 245 361.972561 254.783053 345 264.566106"></polygon>
                        <polygon id="Shape" fill="#F55759" points="405.972561 19.5661063 389 9.78305315 405.972561 0"></polygon>
                        <polygon id="Shape-Copy" fill="#F55759" points="34.9725614 208.566106 18 198.783053 34.9725614 189"></polygon>
                    </g>
                    <g transform="translate(452.000000, 100.000000)" id="Shape" stroke="#F55759" stroke-width="4" stroke-linecap="round">
                        <path d="M0.166877193,9.85688448 L19.7878947,9.85688448"></path>
                        <path d="M9.97810526,0.0609040836 L9.97810526,19.6514285"></path>
                    </g>
                    <g id="Group-Copy" transform="translate(19.000000, 15.000000)" stroke="#F55759" stroke-width="4" stroke-linecap="round">
                        <path d="M0.166877193,9.85688448 L19.7878947,9.85688448" id="Shape"></path>
                        <path d="M9.97810526,0.0609040836 L9.97810526,19.6514285" id="Shape"></path>
                    </g>
                </g>
                <path d="M131.414124,336.654607 L65.4296884,336.654607 C64.3646248,336.458149 63.5572584,335.53036 63.5572584,334.409916 C63.5572584,333.22483 64.462372,332.262819 65.6188356,332.146212 L76.5512883,332.146212 C80.1869762,332.146212 83.1346255,329.203144 83.1346255,325.573106 C83.1346255,321.943068 80.1869762,319 76.5512883,319 L6.58333717,319 C2.94764923,319 0,321.943068 0,325.573106 C0,329.203144 2.94764923,332.146212 6.58333717,332.146212 L49.018315,332.146212 C50.1735091,332.262819 51.0798922,333.22483 51.0798922,334.409916 C51.0798922,335.53036 50.2725257,336.458149 49.2074621,336.654607 L45.7520353,336.654607 C42.1163473,336.654607 39.1686981,339.597675 39.1686981,343.227713 C39.1686981,346.857751 42.1163473,349.800819 45.7520353,349.800819 L131.416663,349.800819 C135.052351,349.800819 138,346.857751 138,343.227713 C138,339.597675 135.049812,336.654607 131.414124,336.654607 Z" id="Shape" fill="#FFE2E2" fill-rule="nonzero"></path>
                <path d="M386.414124,431.654607 L320.429688,431.654607 C319.364625,431.458149 318.557258,430.53036 318.557258,429.409916 C318.557258,428.22483 319.462372,427.262819 320.618836,427.146212 L331.551288,427.146212 C335.186976,427.146212 338.134625,424.203144 338.134625,420.573106 C338.134625,416.943068 335.186976,414 331.551288,414 L261.583337,414 C257.947649,414 255,416.943068 255,420.573106 C255,424.203144 257.947649,427.146212 261.583337,427.146212 L304.018315,427.146212 C305.173509,427.262819 306.079892,428.22483 306.079892,429.409916 C306.079892,430.53036 305.272526,431.458149 304.207462,431.654607 L300.752035,431.654607 C297.116347,431.654607 294.168698,434.597675 294.168698,438.227713 C294.168698,441.857751 297.116347,444.800819 300.752035,444.800819 L386.416663,444.800819 C390.052351,444.800819 393,441.857751 393,438.227713 C393,434.597675 390.049812,431.654607 386.414124,431.654607 Z" id="Shape-Copy-3" fill="#FFE2E2" fill-rule="nonzero"></path>
                <path d="M149.376421,54 L145.460561,54 C141.340421,54 138,57.3352297 138,61.4489669 C138,65.5627041 141.340421,68.8979338 145.460561,68.8979338 L242.53993,68.8979338 C246.66007,68.8979338 250.000491,65.5627041 250.000491,61.4489669 C250.000491,57.3352297 246.66007,54 242.53993,54 L167.763123,54" id="Shape" fill="#FFE2E2" fill-rule="nonzero"></path>
                <path d="M362.636241,29 L360.007783,29 C357.242204,29 355,31.2387196 355,34 C355,36.7612804 357.242204,39 360.007783,39 L425.170757,39 C427.936336,39 430.17854,36.7612804 430.17854,34 C430.17854,31.2387196 427.936336,29 425.170757,29 L374.978021,29" id="Shape-Copy-4" fill="#FFE2E2" fill-rule="nonzero"></path>
                <path d="M152,157.5 L152,265.5" id="Line-3" stroke="#F55759" stroke-width="4" stroke-linecap="square"></path>
                <path d="M109.5,212 L142.5,212" id="Line-2" stroke="#F55759" stroke-width="4" stroke-linecap="square"></path>
                <path d="M11.3764211,0 L7.4605614,0 C3.34042105,0 0,3.33522969 0,7.44896691 C0,11.5627041 3.34042105,14.8979338 7.4605614,14.8979338 L104.53993,14.8979338 C108.66007,14.8979338 112.000491,11.5627041 112.000491,7.44896691 C112.000491,3.33522969 108.66007,0 104.53993,0 L29.7631228,0" id="Shape" fill="#FFE2E2" fill-rule="nonzero"></path>
                <path d="M129,223 C134.333333,223 137.166667,224.333333 137.5,227" id="Path-8-Copy" stroke="#FFFFFF" stroke-width="4" stroke-linecap="round"></path>
                <path d="M129,170 C134.333333,170 137.166667,171.333333 137.5,174" id="Path-8" stroke="#FFFFFF" stroke-width="4" stroke-linecap="round"></path>
            </g>
        </g>
    </g>
</svg>