<?xml version="1.0" encoding="UTF-8"?>
<svg width="30px" height="29px" viewBox="0 0 30 29" version="1.1" xmlns="http://www.w3.org/2000/svg" xmlns:xlink="http://www.w3.org/1999/xlink">
    <!-- Generator: Sketch 43.1 (39012) - http://www.bohemiancoding.com/sketch -->
    <title>传真</title>
    <desc>Created with Sketch.</desc>
    <defs></defs>
    <g id="Welcome" stroke="none" stroke-width="1" fill="none" fill-rule="evenodd" stroke-linecap="round" stroke-linejoin="round">
        <g id="首页" transform="translate(-657.000000, -1401.000000)" stroke="#CCCCCC" fill-rule="nonzero">
            <g id="传真" transform="translate(658.000000, 1402.000000)">
                <path d="M0,5.35870809 L0,6.02740729 L0,18.0576013 C0,19.9049984 1.49379092,21.4074885 3.33472459,21.4074885 L3.66666668,21.4074885 L4.33333333,21.4074885 L4.33333333,20.7387894 L4.33333333,18.0639926 L23.6666667,18.0639926 L23.6666667,20.7387894 L23.6666667,21.4074885 L24.3333333,21.4074885 L27.3333334,21.4074885 L28,21.4074885 L28,20.7387894 L28,8.70859541 C28,6.86127504 26.5069021,5.35870809 24.6666496,5.35870809 L0.666666656,5.35870809 L0,5.35870809 Z M6.00000002,20.6534235 L6.00000002,26.7570821 C6.00000002,27.1263944 6.29847687,27.4257813 6.66666664,27.4257813 L21.3333334,27.4257813 C21.7015231,27.4257813 22,27.1263944 22,26.7570821 L22,20.6534235 M5.66666666,11.3770008 L14.3333334,11.3770008 L14.3333334,11.0091146 L5.66666666,11.0091146 L5.66666666,11.3770008 L5.66666666,11.3770008 Z M23.3333333,5 L23.3333333,0.677813773 L23.3333333,0.00911457422 L22.6666667,0.00911457422 L5.33333333,0.00911457422 L4.66666668,0.00911457422 L4.66666668,0.677813773 L4.66666668,5" id="Shape"></path>
            </g>
        </g>
    </g>
</svg>