<?xml version="1.0" encoding="UTF-8"?>
<svg width="24px" height="24px" viewBox="0 0 24 24" version="1.1" xmlns="http://www.w3.org/2000/svg" xmlns:xlink="http://www.w3.org/1999/xlink">
    <!-- Generator: Sketch 46 (44423) - http://www.bohemiancoding.com/sketch -->
    <title>不通过</title>
    <desc>Created with Sketch.</desc>
    <defs></defs>
    <g id="Page-1" stroke="none" stroke-width="1" fill="none" fill-rule="evenodd">
        <g id="运营内容管理---待审核-" transform="translate(-1740.000000, -631.000000)" fill="#79A3E0">
            <g id="公告内容" transform="translate(395.000000, 407.000000)">
                <g id="操作" transform="translate(1296.000000, 224.000000)">
                    <g id="不通过" transform="translate(49.000000, 0.000000)">
                        <g id="Shape">
                            <path d="M12,0.0126984127 C5.37959614,0.0126984127 0.0126984127,5.37959614 0.0126984127,12 C0.0126984127,18.6204039 5.37959614,23.9873016 12,23.9873016 C18.6204039,23.9873016 23.9873016,18.6204039 23.9873016,12 C23.9873016,8.82076995 22.7243574,5.77175289 20.4763022,3.52369776 C18.2282471,1.27564263 15.17923,0.0126984127 12,0.0126984127 L12,0.0126984127 Z M19.3142857,19.3142857 C15.4990315,23.0348686 9.48170241,23.2486295 5.41205724,19.8081513 C1.34241208,16.3676731 0.552006255,10.3986529 3.58593105,6.01753408 C6.61985584,1.63641524 12.4854353,0.276664853 17.1375623,2.87601394 C21.7896894,5.47536303 23.7062253,11.1833253 21.5654603,16.0634921 C21.0310527,17.2817475 20.2667028,18.3855018 19.3142857,19.3142857 L19.3142857,19.3142857 Z M16.7867937,7.30260317 C16.4707811,6.99284896 15.9650284,6.99284896 15.6490159,7.30260317 L12.0487619,10.9028571 L8.44850794,7.30260317 C8.1249562,7.05993937 7.67220636,7.09211531 7.38622433,7.37809735 C7.1002423,7.66407938 7.06806636,8.11682922 7.31073016,8.44038095 L10.9109841,12 L7.31073016,15.600254 C7.06806636,15.9238057 7.1002423,16.3765555 7.38622433,16.6625376 C7.67220636,16.9485196 8.1249562,16.9806955 8.44850794,16.7380317 L12.0487619,13.1377778 L15.6490159,16.7380317 C15.9725676,16.9806955 16.4253174,16.9485196 16.7112995,16.6625376 C16.9972815,16.3765555 17.0294575,15.9238057 16.7867937,15.600254 L13.1865397,12 L16.7867937,8.39974603 C17.0708938,8.08920658 17.0708938,7.61314263 16.7867937,7.30260317 L16.7867937,7.30260317 Z" fill-rule="nonzero"></path>
                        </g>
                    </g>
                </g>
            </g>
        </g>
    </g>
</svg>