<?xml version="1.0" encoding="UTF-8"?>
<svg width="25px" height="24px" viewBox="0 0 25 24" version="1.1" xmlns="http://www.w3.org/2000/svg" xmlns:xlink="http://www.w3.org/1999/xlink">
    <!-- Generator: Sketch 43.1 (39012) - http://www.bohemiancoding.com/sketch -->
    <title>分享</title>
    <desc>Created with Sketch.</desc>
    <defs></defs>
    <g id="Welcome" stroke="none" stroke-width="1" fill="none" fill-rule="evenodd">
        <g id="内容发布审阅" transform="translate(-1734.000000, -171.000000)">
            <g id="按钮" transform="translate(1413.000000, 148.000000)">
                <g id="分享" transform="translate(304.000000, 16.000000)">
                    <g transform="translate(17.500000, 7.000000)">
                        <path d="M0.5,10 C0.5,10 0.5,8 2.5,8 C4.5,8 14.5,8 16,8 C17.5,8 18,8 18,11 L18,17 C18,19.5 14.5,19 14.5,19 C14.5,19 15,23.5 15,23.5 L9,19 L2.5,19 C2.5,19 0.5,19 0.5,17 L0.5,10 Z" id="Path-11" stroke="#F68A6F" stroke-linecap="round" stroke-linejoin="round"></path>
                        <circle id="Oval" fill="#F68A6F" cx="6" cy="14" r="1"></circle>
                        <circle id="Oval-Copy" fill="#F68A6F" cx="9" cy="14" r="1"></circle>
                        <circle id="Oval-Copy-2" fill="#F68A6F" cx="12" cy="14" r="1"></circle>
                        <path d="M6.5,3.5 C6,0.5 7,0.5 8.5,0.5 L22,0.5 C22,0.5 24,0.5 24,3 C24,5.5 24,8 24,9.5 C24,11 22.5,11 20.5,11" id="Path-12" stroke="#F68A6F" stroke-linecap="round" stroke-linejoin="round"></path>
                    </g>
                </g>
            </g>
        </g>
    </g>
</svg>