<?xml version="1.0" encoding="UTF-8"?>
<svg width="23px" height="22px" viewBox="0 0 23 22" version="1.1" xmlns="http://www.w3.org/2000/svg" xmlns:xlink="http://www.w3.org/1999/xlink">
    <!-- Generator: Sketch 43.1 (39012) - http://www.bohemiancoding.com/sketch -->
    <title>删除 copy</title>
    <desc>Created with Sketch.</desc>
    <defs>
        <path d="M0.988261768,6.29689471 C1.01875107,6.02075234 1.27063411,5.79689471 1.5442036,5.79689471 L23.4949904,5.79689471 C23.7715393,5.79689471 23.9957265,6.02882831 23.9957265,6.29689471 L23.9957265,6.29689471 C23.9957265,6.57303709 23.7674671,6.79689471 23.4925816,6.79689471 L1.43620085,6.79689471 C1.15832162,6.79689471 0.958664143,6.56496112 0.988261768,6.29689471 L0.988261768,6.29689471 Z" id="path-1"></path>
    </defs>
    <g id="Welcome" stroke="none" stroke-width="1" fill="none" fill-rule="evenodd">
        <g id="运营广告管理" transform="translate(-1709.000000, -403.000000)">
            <g id="公告内容" transform="translate(394.000000, 232.000000)">
                <g id="1-copy" transform="translate(0.000000, 142.000000)">
                    <g id="操作" transform="translate(1314.000000, 29.000000)">
                        <g id="删除-copy">
                            <path d="M19.5678103,4.63321276 C19.2819462,4.63321276 18.9695652,4.63321276 17.5434783,4.63321276 C15.2608696,4.63321276 15.2608696,4.63321276 12.5217391,4.63321276 C9.7826087,4.63321276 9.7826087,4.63321276 7.5,4.63321276 C6.07391304,4.63321276 5.76153209,4.63321276 5.47566795,4.63321276 C5.7173913,4.32509285 5.7173913,4.27716585 5.7173913,3.84990957 C5.7173913,2.88743218 5.7173913,2.88743218 5.7173913,2.56660638 L5.7173913,2.56660638 C5.7173913,1.42485715 6.64024782,0.5 7.77874888,0.5 L17.2647294,0.5 C18.4066699,0.5 19.326087,1.41885079 19.326087,2.56660638 C19.326087,2.60066957 19.326087,2.60066957 19.326087,2.74878701 C19.326087,3.20104841 19.326087,3.20104841 19.326087,3.84990957 C19.326087,4.27716585 19.326087,4.32509285 19.326087,4.61111772 L19.5678103,4.63321276 Z" id="Rectangle-21" stroke="#79A3E0"></path>
                            <g id="Rectangle-22">
                                <use fill="#D8D8D8" fill-rule="evenodd" xlink:href="#path-1"></use>
                                <path stroke="#79A3E0" stroke-width="1" d="M1.48524168,6.35176703 C1.48764851,6.32996829 1.52455861,6.29689471 1.5442036,6.29689471 L23.4949904,6.29689471 C23.4915515,6.29689471 23.4957265,6.30111003 23.4957265,6.29689471 C23.4957265,6.29470395 23.4935129,6.29689471 23.4925816,6.29689471 L1.43620085,6.29689471 C1.46039053,6.29689471 1.48787092,6.3279539 1.48524168,6.35176703 Z"></path>
                            </g>
                            <rect id="Rectangle-17-Copy-3" fill="#79A3E0" x="14.5652174" y="9.10526316" width="1" height="8.92022557" rx="0.5"></rect>
                            <rect id="Path" fill="#79A3E0" x="10.3913043" y="9.10526316" width="1" height="8.92022557" rx="0.5"></rect>
                            <path d="M6,8 L6,19 C6,19 6.43899018,21 8.19495091,21 C9.95091164,21 17.8527349,21 17.8527349,21 C17.8527349,21 19.6086957,20.5 19.6086957,18 L19.6086957,8" id="Path-2" stroke="#79A3E0" stroke-linecap="round"></path>
                        </g>
                    </g>
                </g>
            </g>
        </g>
    </g>
</svg>