<?xml version="1.0" encoding="UTF-8"?>
<svg width="27px" height="26px" viewBox="0 0 27 26" version="1.1" xmlns="http://www.w3.org/2000/svg" xmlns:xlink="http://www.w3.org/1999/xlink">
    <!-- Generator: Sketch 46 (44423) - http://www.bohemiancoding.com/sketch -->
    <title>标题2</title>
    <desc>Created with Sketch.</desc>
    <defs></defs>
    <g id="Page-1" stroke="none" stroke-width="1" fill="none" fill-rule="evenodd">
        <g id="内容发布审阅-添加副标题" transform="translate(-138.000000, -338.000000)" fill="#F95759">
            <g id="Group" transform="translate(138.000000, 226.000000)">
                <g id="输入标题" transform="translate(0.000000, 109.000000)">
                    <g id="标题" transform="translate(0.000000, 4.000000)">
                        <g id="标题2">
                            <path d="M24.1238214,6.552 L22.0933452,8.40914286 C21.5882024,8.83504762 21.3207738,9.37485714 21.2811548,10.0335238 L25.9809643,10.0335238 L25.9809643,11.1379048 L20.0034405,11.1379048 C20.0430595,10.0929524 20.1965833,9.30057143 20.4689643,8.7607619 C20.582869,8.45371429 20.8750595,8.06247619 21.3405833,7.60190476 L23.4899167,5.57142857 C24.3021071,4.9127619 24.6883929,4.0807619 24.6487738,3.07542857 C24.6091548,1.79771429 24.0495357,1.13904762 22.9649643,1.10438095 C21.8061071,1.10438095 21.2613452,1.99580952 21.3405833,3.77371429 L20.1222976,3.77371429 L20.1222976,3.13485714 C20.0826786,2.20380952 20.3154405,1.45104762 20.8205833,0.871619048 C21.3603929,0.292190476 22.0982976,0 23.0243929,0 C24.8815357,0.0792380952 25.84725,1.12419048 25.9264881,3.13485714 C25.9611548,4.368 25.3619167,5.50704762 24.1238214,6.552 Z" id="Path" stroke="#F95759"></path>
                            <path d="M2.94991846,1.77028886 L0,1.77028886 L0,0 L8.06402942,0 L8.06402942,1.77028886 L5.11411096,1.77028886 L5.11411096,9.57565337 L2.94991846,9.57565337 L2.94991846,1.77028886 Z M9.01207143,9.5489127 L9.01207143,0.00402380952 L11.0227381,0.00402380952 L11.0227381,3.77113492 L14.6346746,3.77113492 L14.6346746,0.00402380952 L16.7014683,0.00402380952 L16.7014683,9.5489127 L14.6875,9.5489127 L14.6875,5.36910317 L11.0260397,5.36910317 L11.0260397,9.5489127 L9.01207143,9.5489127 Z M0,13 L26,13 L26,14.625 L0,14.625 L0,13 Z M0,17.875 L26,17.875 L26,19.5 L0,19.5 L0,17.875 Z M0,22.75 L19.5,22.75 L19.5,24.375 L0,24.375 L0,22.75 Z" id="Shape" fill-rule="nonzero"></path>
                        </g>
                    </g>
                </g>
            </g>
        </g>
    </g>
</svg>