<?xml version="1.0" encoding="UTF-8"?>
<svg width="26px" height="26px" viewBox="0 0 26 26" version="1.1" xmlns="http://www.w3.org/2000/svg" xmlns:xlink="http://www.w3.org/1999/xlink">
    <!-- Generator: Sketch 46 (44423) - http://www.bohemiancoding.com/sketch -->
    <title>发布操作</title>
    <desc>Created with Sketch.</desc>
    <defs></defs>
    <g id="Page-1" stroke="none" stroke-width="1" fill="none" fill-rule="evenodd">
        <g id="运营内容管理---待审核-" transform="translate(-1690.000000, -630.000000)" stroke="#79A3E0" fill="#79A3E0">
            <g id="公告内容" transform="translate(395.000000, 407.000000)">
                <g id="操作" transform="translate(1296.000000, 224.000000)">
                    <g id="发布操作">
                        <g id="发布-(6)">
                            <path d="M12.0009668,0.0037983871 C18.6197946,0.0037983871 23.9849184,5.37672581 23.9849184,11.9998306 C23.9849184,18.6253306 18.6192387,23.9958629 12.0009668,23.9958629 C5.38213897,23.9958629 0.0170151057,18.6253306 0.0170151057,11.9998306 C0.0170151057,5.37672581 5.38213897,0.0037983871 12.0009668,0.0037983871 L12.0009668,0.0037983871 L12.0009668,0.0037983871 Z M0.938513595,11.9998306 C0.938513595,18.1069839 5.89991541,23.0739919 12.0009426,23.0739919 C18.1013172,23.0739919 23.0633716,18.1069355 23.0633716,11.9998306 C23.0633716,5.89330645 18.1013172,0.926879032 12.0009426,0.926879032 C5.89993958,0.926879032 0.938513595,5.89328226 0.938513595,11.9998306 L0.938513595,11.9998306 Z M11.6339094,20.7342097 L8.73000604,14.984879 L2.7395287,12.2885081 L19.0763505,4.92217742 L11.6339094,20.7342581 L11.6339094,20.7342097 Z M11.6339094,19.2958306 L17.4411601,7.07733871 L9.45629003,14.984879 L11.6339094,19.2958548 L11.6339094,19.2958306 Z M4.37227795,12.2884839 L8.9113716,14.4442742 L16.7154562,6.71772581 L4.37225378,12.2884839 L4.37227795,12.2884839 Z" id="Shape" stroke-width="0.6" fill-rule="nonzero"></path>
                        </g>
                    </g>
                </g>
            </g>
        </g>
    </g>
</svg>