<?xml version="1.0" encoding="UTF-8"?>
<svg width="20px" height="21px" viewBox="0 0 20 21" version="1.1" xmlns="http://www.w3.org/2000/svg" xmlns:xlink="http://www.w3.org/1999/xlink">
    <!-- Generator: Sketch 43.1 (39012) - http://www.bohemiancoding.com/sketch -->
    <title>发表</title>
    <desc>Created with Sketch.</desc>
    <defs></defs>
    <g id="Welcome" stroke="none" stroke-width="1" fill="none" fill-rule="evenodd">
        <g id="账号信息" transform="translate(-81.000000, -248.000000)" stroke="#F95759">
            <g id="左侧栏" transform="translate(78.000000, 169.000000)">
                <g id="发表" transform="translate(3.000000, 79.000000)">
                    <path d="M12.5,0.5 L2.5,0.5 C2.5,0.5 1,0.438708927 1,2.5 C1,4.56129107 1,18 1,18 C1,18 0.535533906,20.0355339 2.76776695,19.767767 C5,19.5 17.5018303,19.767767 17.5018303,19.767767 C17.5018303,19.767767 19.4654998,20.0736947 19.4827499,17.7868474 C19.5,15.5 19.4827499,7.49998554 19.4827499,7.49998554" id="Path-2" stroke-linecap="round"></path>
                    <polygon id="Path-3" stroke-linecap="round" stroke-linejoin="round" points="16.6818182 0.5 7.05016672 10.1316515 4 16 9.63636364 13.1818182 19.5 3.31818182"></polygon>
                    <path d="M14,3 L17,6" id="Path-4"></path>
                    <path d="M7,10 L9.76134025,12.7613403" id="Path-5"></path>
                </g>
            </g>
        </g>
    </g>
</svg>