<?xml version="1.0" encoding="UTF-8"?>
<svg width="24px" height="22px" viewBox="0 0 24 22" version="1.1" xmlns="http://www.w3.org/2000/svg" xmlns:xlink="http://www.w3.org/1999/xlink">
    <!-- Generator: Sketch 43.1 (39012) - http://www.bohemiancoding.com/sketch -->
    <title>图标-飞机</title>
    <desc>Created with Sketch.</desc>
    <defs></defs>
    <g id="Welcome" stroke="none" stroke-width="1" fill="none" fill-rule="evenodd">
        <g id="内容发布审阅" transform="translate(-1431.000000, -170.000000)" fill-rule="nonzero" fill="#FFFFFF">
            <g id="按钮" transform="translate(1413.000000, 160.000000)">
                <g id="发布">
                    <g id="图标-飞机" transform="translate(18.000000, 10.000000)">
                        <path d="M23.2882709,0.0490669693 C23.2088159,0.0163556564 23.1214153,0 23.0260693,0 C22.7559222,0 22.5334481,0.0899561104 22.358647,0.269868331 C8.962528,7.20466666 1.72417427,10.9582898 0.643585788,11.5307378 C0.198637589,11.7760726 -0.00794550355,12.1113636 0.0238365106,12.5366107 C0.0556185248,12.8800794 0.238365106,13.1090586 0.572076256,13.2235482 L7.48466434,15.4560953 L7.6038469,15.5051623 L8.00906758,14.2784881 L1.95459387,12.3158093 L20.5470722,2.35521453 L10.1543535,14.4747559 C9.69351433,15.0144926 9.46309473,15.5951184 9.46309473,16.2166333 L9.46309473,21.3441316 C9.47898573,21.5076882 9.54652251,21.6467113 9.66570507,21.7612009 C9.78488762,21.8756905 9.92790669,21.9329353 10.0947623,21.9329353 C10.2616178,21.9329353 10.4046369,21.8756905 10.5238195,21.7612009 C10.643002,21.6467113 10.7105388,21.5076882 10.7264298,21.3441316 C10.7423208,18.2202013 10.7423208,16.5437465 10.7264298,16.3147673 C10.7264298,15.9876542 10.8138303,15.7177858 10.9886314,15.5051623 C12.7843152,13.3952826 16.4869199,9.07738932 22.0964454,2.5514824 L19.045372,18.1793121 C19.029481,18.2447347 18.997699,18.2774461 18.950026,18.2774461 L18.9023529,18.2774461 L12.22813,16.1920999 L12.1089474,16.1675664 L11.7037267,17.3942406 L11.8229093,17.4433076 L14.0873778,18.1302452 C14.7071271,18.326513 15.3348219,18.5227809 15.9704621,18.7190488 L18.6163148,19.5531873 C18.7434429,19.5858986 18.8626254,19.6022542 18.9738625,19.6022542 C19.2916826,19.6022542 19.573748,19.4959425 19.8200586,19.2833189 C20.0663692,19.0706954 20.2213065,18.7926492 20.2848706,18.4491805 L21.6197152,11.6288717 C22.9704508,4.79220733 23.6537641,1.30027469 23.6696551,1.15307378 L23.6934916,1.07947332 C23.7729466,0.572447975 23.6378731,0.22897919 23.2882709,0.0490669693 Z" id="Shape"></path>
                    </g>
                </g>
            </g>
        </g>
    </g>
</svg>