<?xml version="1.0" encoding="UTF-8"?>
<svg width="15px" height="15px" viewBox="0 0 15 15" version="1.1" xmlns="http://www.w3.org/2000/svg" xmlns:xlink="http://www.w3.org/1999/xlink">
    <!-- Generator: Sketch 43.1 (39012) - http://www.bohemiancoding.com/sketch -->
    <title>图片编辑</title>
    <desc>Created with Sketch.</desc>
    <defs></defs>
    <g id="Welcome" stroke="none" stroke-width="1" fill="none" fill-rule="evenodd">
        <g id="运营广告管理" transform="translate(-844.000000, -406.000000)" fill-rule="nonzero" fill="#F95759">
            <g id="公告内容" transform="translate(395.000000, 232.000000)">
                <g id="图片编辑" transform="translate(449.000000, 174.000000)">
                    <path d="M13.1273785,0.49056303 C12.4440452,-0.173246494 12.1023785,-0.153722684 11.4678547,0.49056303 C8.38309281,3.58508684 5.50333091,6.41603922 2.43809281,9.48127732 C1.11047377,10.8088964 0.602854719,12.1658011 0.0561880524,13.7765154 C-0.0511929,14.0108011 -0.00238337616,14.2938964 0.183092814,14.4891345 C0.368569005,14.6843726 0.661426148,14.7234202 0.895711862,14.6160392 C2.49666424,14.0693726 3.86333091,13.5617535 5.19094996,12.2341345 C7.15309281,10.2719916 9.00785472,8.39770589 10.9016642,6.48437255 L10.9895214,6.39651541 C11.0773785,6.28913446 11.13595,6.14270589 11.13595,5.98651541 C11.13595,5.63508684 10.8430928,5.3422297 10.4916642,5.3422297 C10.31595,5.3422297 10.1597595,5.41056303 10.0426166,5.51794398 L9.9938071,5.56675351 L5.55214043,10.0084202 L3.49237853,12.0681821 C3.238569,12.3219916 2.83833091,12.3219916 2.58452139,12.0681821 C2.33071186,11.8143726 2.33071186,11.4141345 2.58452139,11.1603249 L4.64428329,9.10056303 L9.10547377,4.66865827 L11.1652357,2.60889636 C11.4190452,2.40389636 11.7899976,2.41365827 12.0242833,2.64794398 C12.258569,2.8822297 12.2683309,3.25318208 12.0633309,3.5069916 L11.4580928,4.1122297 C11.4190452,4.14151541 11.3897595,4.17080113 11.3604738,4.20984874 C11.2726166,4.3172297 11.2140452,4.46365827 11.2140452,4.61008684 C11.2140452,4.96151541 11.5069023,5.25437255 11.8583309,5.25437255 C12.0145214,5.25437255 12.1511881,5.20556303 12.258569,5.10794398 C12.2976166,5.07865827 12.3269023,5.03961065 12.3561881,5.01032493 L14.1719023,3.19461065 C14.82595,2.57961065 14.8552357,2.22818208 14.1816642,1.54484874 C14.00595,1.34961065 13.3226166,0.666277316 13.1273785,0.49056303 Z" id="Shape-Copy"></path>
                </g>
            </g>
        </g>
    </g>
</svg>