<?xml version="1.0" encoding="UTF-8"?>
<svg width="24px" height="27px" viewBox="0 0 24 27" version="1.1" xmlns="http://www.w3.org/2000/svg" xmlns:xlink="http://www.w3.org/1999/xlink">
    <!-- Generator: Sketch 46 (44423) - http://www.bohemiancoding.com/sketch -->
    <title>审核不通过</title>
    <desc>Created with Sketch.</desc>
    <defs></defs>
    <g id="Page-1" stroke="none" stroke-width="1" fill="none" fill-rule="evenodd">
        <g id="运营内容管理---待审核-" transform="translate(-549.000000, -285.000000)" stroke-width="0.4" stroke="#F95759" fill="#F95759" fill-rule="nonzero">
            <g id="直播头内容" transform="translate(397.000000, 174.000000)">
                <g id="搜索" transform="translate(2.000000, 0.000000)">
                    <g id="按钮" transform="translate(0.000000, 105.000000)">
                        <g id="Group-5" transform="translate(151.000000, 7.000000)">
                            <g id="审核不通过">
                                <path d="M19.5425428,3.10344486 L18.9283965,3.10344486 C18.5934077,3.10344486 18.3142503,3.38260223 18.3142503,3.71759108 C18.3142503,4.05257993 18.5934077,4.3317373 18.9283965,4.3317373 L19.5425428,4.3317373 C20.2125204,4.3317373 20.7708352,4.87609418 20.7708352,5.56002974 L20.7708352,22.7142503 C20.7708352,23.3981859 20.2264783,23.9425428 19.5425428,23.9425428 L2.44415366,23.9425428 C1.77417596,23.9425428 1.21586121,23.3981859 1.21586121,22.7142503 L1.21586121,5.54607187 C1.21586121,4.86213631 1.76021809,4.31777943 2.44415366,4.31777943 L3.05829988,4.31777943 C3.39328872,4.31777943 3.6724461,4.03862206 3.6724461,3.70363321 C3.6724461,3.36864436 3.39328872,3.08948699 3.05829988,3.08948699 L2.44415366,3.08948699 C1.0902404,3.08948699 0.00152664188,4.19215861 0.00152664188,5.54607187 L0.00152664188,22.7002924 C0.00152664188,24.0542057 1.0902404,25.1568773 2.44415366,25.1568773 L19.5425428,25.1568773 C20.896456,25.1568773 21.9851698,24.0542057 21.9851698,22.7002924 L21.9851698,5.54607187 C21.9851698,4.19215861 20.8824981,3.10344486 19.5425428,3.10344486 Z M5.48696902,6.77436431 L16.4857695,6.77436431 C16.8207584,6.77436431 17.0999157,6.49520694 17.0999157,6.16021809 L17.0999157,3.70363321 C17.0999157,3.36864436 16.8207584,3.08948699 16.4857695,3.08948699 L15.0899827,3.08948699 C14.5595836,1.31683767 12.926513,0.018755886 11.0003271,0.018755886 C9.0601834,0.018755886 7.42711276,1.31683767 6.91067162,3.08948699 L5.51488476,3.08948699 C5.17989591,3.08948699 4.90073854,3.36864436 4.90073854,3.70363321 L4.90073854,6.16021809 C4.8728228,6.49520694 5.15198017,6.77436431 5.48696902,6.77436431 L5.48696902,6.77436431 Z M10.9863693,1.2610062 C12.2425774,1.2610062 13.3173333,2.0147311 13.777943,3.10344486 L8.19479554,3.10344486 C8.6554052,2.0147311 9.73016109,1.2610062 10.9863693,1.2610062 Z M6.71526146,4.31777943 L15.2714349,4.31777943 C15.6064238,4.31777943 15.8855812,4.5969368 15.8855812,4.93192565 C15.8855812,5.2669145 15.6064238,5.54607187 15.2714349,5.54607187 L6.71526146,5.54607187 C6.38027261,5.54607187 6.10111524,5.2669145 6.10111524,4.93192565 C6.10111524,4.5969368 6.38027261,4.31777943 6.71526146,4.31777943 Z M14.4479207,10.6546518 C14.2106369,10.417368 13.8198166,10.417368 13.5825328,10.6546518 L10.9863693,13.2508154 L8.3902057,10.6546518 C8.15292193,10.417368 7.76210161,10.417368 7.52481784,10.6546518 C7.28753408,10.8919356 7.28753408,11.2827559 7.52481784,11.5200397 L10.1209814,14.1162032 L7.52481784,16.7123668 C7.28753408,16.9496506 7.28753408,17.3404709 7.52481784,17.5777546 C7.76210161,17.8150384 8.15292193,17.8150384 8.3902057,17.5777546 L10.9863693,14.9815911 L13.5825328,17.5777546 C13.8198166,17.8150384 14.2106369,17.8150384 14.4479207,17.5777546 C14.6852045,17.3404709 14.6852045,16.9496506 14.4479207,16.7123668 L11.8517571,14.1162032 L14.4479207,11.5200397 C14.6852045,11.2827559 14.6852045,10.9058934 14.4479207,10.6546518 Z" id="Shape"></path>
                            </g>
                        </g>
                    </g>
                </g>
            </g>
        </g>
    </g>
</svg>