<?xml version="1.0" encoding="UTF-8"?>
<svg width="22px" height="22px" viewBox="0 0 22 22" version="1.1" xmlns="http://www.w3.org/2000/svg" xmlns:xlink="http://www.w3.org/1999/xlink">
    <!-- Generator: Sketch 46 (44423) - http://www.bohemiancoding.com/sketch -->
    <title>审批_已撤回</title>
    <desc>Created with Sketch.</desc>
    <defs></defs>
    <g id="Symbols" stroke="none" stroke-width="1" fill="none" fill-rule="evenodd">
        <g id="审批_已撤回" fill-rule="nonzero" fill="#F7B346">
            <g id="Shape">
                <path d="M11,0.00556440281 C4.92779391,0.00556440281 0.00556440281,4.92779391 0.00556440281,11 C0.00556440281,17.0722061 4.92779391,21.9944356 11,21.9944356 C17.0722061,21.9944356 21.9944356,17.0722061 21.9944356,11 C21.9944356,4.92779391 17.0722061,0.00556440281 11,0.00556440281 Z M17.8487494,11.6949321 C17.6888244,11.8606276 17.4728431,11.947185 17.2543888,11.947185 C17.1084778,11.947185 16.9617424,11.9084403 16.8298454,11.8293021 L14.1020515,10.187185 C13.7121311,9.95224356 13.5860047,9.44608899 13.8209461,9.05534426 C14.0567119,8.66542389 14.5636909,8.54012178 14.9527869,8.77423888 L16.2222951,9.53841686 C15.5784731,7.30276347 13.5167588,5.68949883 11.1327213,5.68949883 C8.2046089,5.68949883 5.8230445,8.07188759 5.8230445,10.9991756 C5.8230445,13.9264637 8.20543326,16.3088525 11.1327213,16.3088525 C11.8655738,16.3088525 12.5753443,16.1621171 13.2422482,15.8735925 C13.6593724,15.6930585 14.1457424,15.8843091 14.3262763,16.3022576 C14.5076347,16.7202061 14.3155597,17.2057518 13.8976112,17.3862857 C13.0229696,17.7654895 12.093096,17.9575644 11.1327213,17.9575644 C7.29534426,17.9575644 4.17433255,14.8357283 4.17433255,10.9991756 C4.17433255,7.16262295 7.29616862,4.04078689 11.1327213,4.04078689 C14.3312225,4.04078689 17.1035316,6.25088525 17.8751288,9.29028571 L18.8701265,8.25736768 C19.1858548,7.93009836 19.7084965,7.92020609 20.0357658,8.23593443 C20.3630351,8.55166276 20.3737518,9.07348009 20.0571991,9.40157377 L17.8487494,11.6949321 Z"></path>
            </g>
        </g>
    </g>
</svg>