<?xml version="1.0" encoding="UTF-8"?>
<svg width="23px" height="23px" viewBox="0 0 23 23" version="1.1" xmlns="http://www.w3.org/2000/svg" xmlns:xlink="http://www.w3.org/1999/xlink">
    <!-- Generator: Sketch 46 (44423) - http://www.bohemiancoding.com/sketch -->
    <title>待审核</title>
    <desc>Created with Sketch.</desc>
    <defs></defs>
    <g id="Symbols" stroke="none" stroke-width="1" fill="none" fill-rule="evenodd">
        <g id="待审核" fill-rule="nonzero" fill="#2EA9DF">
            <g id="Shape">
                <path d="M19.2134846,3.57627831 C17.1275748,1.49189637 14.3735219,0.352 11.4402113,0.352 C8.50690056,0.352 5.73655158,1.49189637 3.66693793,3.57627831 C1.59732428,5.66066025 0.424,8.41269578 0.424,11.3601421 C0.424,14.2913042 1.56473193,17.059624 3.65064176,19.1277217 C5.73655158,21.1958194 8.49060439,22.352 11.4239151,22.352 C14.3572258,22.352 17.1275748,21.2121036 19.1971884,19.1277217 C21.2830982,17.0433397 22.4238302,14.2913042 22.4238302,11.3601421 C22.4401263,8.41269578 21.2830982,5.66066025 19.2134846,3.57627831 Z M5.42692434,12.8094389 C4.64470816,12.8094389 4.02545368,12.1743538 4.02545368,11.4089948 C4.02545368,10.6436358 4.66100433,10.0085507 5.42692434,10.0085507 C6.19284435,10.0085507 6.828395,10.6273516 6.828395,11.4089948 C6.828395,12.190638 6.19284435,12.8094389 5.42692434,12.8094389 L5.42692434,12.8094389 Z M11.4239151,12.8094389 C10.6416989,12.8094389 10.0224444,12.1743538 10.0224444,11.4089948 C10.0224444,10.6436358 10.6579951,10.0085507 11.4239151,10.0085507 C12.1898351,10.0085507 12.8253857,10.6436358 12.8253857,11.4089948 C12.8253857,12.1743538 12.1898351,12.8094389 11.4239151,12.8094389 Z M17.3720173,12.8094389 C16.5898011,12.8094389 15.9705466,12.1743538 15.9705466,11.4089948 C15.9705466,10.6436358 16.6060973,10.0085507 17.3720173,10.0085507 C18.1379373,10.0085507 18.773488,10.6436358 18.773488,11.4089948 C18.773488,12.1743538 18.1542335,12.8094389 17.3720173,12.8094389 Z"></path>
            </g>
        </g>
    </g>
</svg>