<?xml version="1.0" encoding="UTF-8"?>
<svg width="22px" height="22px" viewBox="0 0 22 22" version="1.1" xmlns="http://www.w3.org/2000/svg" xmlns:xlink="http://www.w3.org/1999/xlink">
    <!-- Generator: Sketch 46 (44423) - http://www.bohemiancoding.com/sketch -->
    <title>未通过</title>
    <desc>Created with Sketch.</desc>
    <defs></defs>
    <g id="Page-1" stroke="none" stroke-width="1" fill="none" fill-rule="evenodd">
        <g id="内容管理" transform="translate(-1493.000000, -482.000000)">
            <g id="公告内容" transform="translate(396.000000, 413.000000)">
                <g id="未通过" transform="translate(1097.000000, 69.000000)">
                    <g id="未通过(1)">
                        <path d="M0.00816722408,10.9932062 C0.00816722408,17.0615658 4.9275446,21.9809431 10.9959041,21.9809431 C17.0642637,21.9809431 21.983641,17.0615658 21.983641,10.9932062 C21.983641,4.92484672 17.0642637,0.00546934225 10.9959041,0.00546934225 C4.9275446,0.00546934225 0.00816722408,4.92484672 0.00816722408,10.9932062 L0.00816722408,10.9932062 Z" id="Shape" fill="#E26161" fill-rule="nonzero"></path>
                        <path d="M9.73800446,14.9152642 C9.73800446,14.5824928 9.8600223,14.3096143 10.1040825,14.0966288 C10.3480446,13.8836433 10.647534,13.7771505 11.0025998,13.7771505 C11.3619822,13.7771505 11.6603188,13.884796 11.8977324,14.0999643 C12.1350479,14.3152308 12.2538283,14.5869565 12.2538283,14.9152642 C12.2538283,15.2347179 12.138408,15.5054136 11.9077391,15.7272531 C11.6769721,15.949068 11.3996054,16.0600245 11.0757614,16.0600245 C10.6674983,16.0600245 10.3425262,15.9490435 10.1007469,15.7272531 C9.85884504,15.5054136 9.73800446,15.2347425 9.73800446,14.9152642 L9.73800446,14.9152642 Z M12.1207001,5.59082051 L11.8544437,12.7255897 L10.1107046,12.7255897 L9.85781494,5.59082051 L12.1207001,5.59082051 Z" id="Shape" fill="#FFFFFF" fill-rule="nonzero"></path>
                    </g>
                </g>
            </g>
        </g>
    </g>
</svg>