<?xml version="1.0" encoding="UTF-8"?>
<svg width="26px" height="25px" viewBox="0 0 26 25" version="1.1" xmlns="http://www.w3.org/2000/svg" xmlns:xlink="http://www.w3.org/1999/xlink">
    <!-- Generator: Sketch 43.1 (39012) - http://www.bohemiancoding.com/sketch -->
    <title>标题</title>
    <desc>Created with Sketch.</desc>
    <defs></defs>
    <g id="Welcome" stroke="none" stroke-width="1" fill="none" fill-rule="evenodd">
        <g id="内容发布审阅" transform="translate(-141.000000, -162.000000)" fill-rule="nonzero" fill="#F95759">
            <g id="输入标题" transform="translate(141.000000, 158.000000)">
                <g id="标题" transform="translate(0.000000, 4.000000)">
                    <path d="M2.94991846,1.77028886 L2.94991846,9.57565337 L5.11411096,9.57565337 L5.11411096,1.77028886 L8.06402942,1.77028886 L8.06402942,0 L0,0 L0,1.77028886 L2.94991846,1.77028886 Z M10.4699837,1.56911965 L10.4699837,0 L8.51256118,0 L8.51256118,1.56911965 L10.4699837,1.56911965 Z M8.51256118,2.64202202 L8.51256118,9.57565337 L10.4699837,9.57565337 L10.4699837,2.64202202 L8.51256118,2.64202202 Z M13.9649266,2.64202202 L13.9649266,0.563273725 L12.0075041,0.563273725 L12.0075041,2.64202202 L10.8220228,2.64202202 L10.8220228,3.91609352 L12.0075041,3.91609352 L12.0075041,8.00653369 C12.0075041,8.35522871 12.067237,8.63686274 12.1867047,8.85144429 C12.3061724,9.06602582 12.4692893,9.23142995 12.6760604,9.34766163 C12.8828314,9.46389328 13.1217632,9.54212497 13.392863,9.58235901 C13.6639627,9.62259304 13.9511404,9.64270976 14.2544046,9.64270976 C14.4473909,9.64270976 14.6449691,9.63823938 14.8471452,9.6292985 C15.0493213,9.6203576 15.233115,9.60247608 15.3985318,9.57565337 L15.3985318,8.10041266 C15.3066336,8.11829446 15.2101419,8.13170559 15.1090539,8.14064649 C15.0079658,8.14958739 14.9022844,8.15405777 14.7920065,8.15405777 C14.4611729,8.15405777 14.2406205,8.10041319 14.1303426,7.99312241 C14.0200647,7.88583166 13.9649266,7.67125333 13.9649266,7.34938103 L13.9649266,3.91609352 L15.3985318,3.91609352 L15.3985318,2.64202202 L13.9649266,2.64202202 Z M15.8608483,0 L15.8608483,9.57565337 L17.8182708,9.57565337 L17.8182708,0 L15.8608483,0 Z M23.6290376,5.36451167 L20.4447797,5.36451167 C20.4539696,5.23039821 20.4838361,5.07840524 20.5343801,4.90852819 C20.5849241,4.73865115 20.6722261,4.5777174 20.7962887,4.42572213 C20.9203514,4.27372689 21.0857657,4.146321 21.2925367,4.0435007 C21.4993077,3.94068035 21.7589162,3.88927096 22.0713703,3.88927096 C22.5492412,3.88927096 22.9053414,4.01444167 23.1396818,4.2647868 C23.3740224,4.51513192 23.5371393,4.88170323 23.6290376,5.36451167 L23.6290376,5.36451167 Z M20.4447797,6.57152684 L25.5864601,6.57152684 C25.6232194,6.03507298 25.5772709,5.52097906 25.4486135,5.02922971 C25.3199559,4.53748034 25.1108905,4.09938293 24.8214111,3.71492436 C24.5319316,3.33046576 24.1620468,3.02424459 23.7117455,2.79625173 C23.2614442,2.56825882 22.7330373,2.45426411 22.126509,2.45426411 C21.5843093,2.45426411 21.0903638,2.54814211 20.6446573,2.73590096 C20.198951,2.92365981 19.8152817,3.18070678 19.4936378,3.50704951 C19.1719941,3.83339227 18.9238725,4.22008029 18.7492659,4.66712518 C18.5746592,5.11417004 18.4873572,5.59697128 18.4873572,6.11554333 C18.4873572,6.65199719 18.5723618,7.14373918 18.7423735,7.59078404 C18.9123852,8.03782893 19.1536145,8.42228174 19.4660685,8.74415405 C19.7785224,9.06602638 20.1598945,9.31413255 20.6101958,9.48848007 C21.0604971,9.66282756 21.5659298,9.75 22.126509,9.75 C22.9352134,9.75 23.6244398,9.57118472 24.1942088,9.21354883 C24.7639779,8.85591291 25.1867034,8.26135215 25.462398,7.42984869 L23.7393148,7.42984869 C23.6749861,7.64443024 23.5003821,7.84783261 23.2154975,8.04006191 C22.9306131,8.23229118 22.5905947,8.3284044 22.1954323,8.3284044 C21.6440429,8.3284044 21.2213173,8.18982257 20.927243,7.91265475 C20.6331687,7.63548693 20.4723491,7.18844874 20.4447797,6.57152684 Z M0,13 L26,13 L26,14.625 L0,14.625 L0,13 Z M0,17.875 L26,17.875 L26,19.5 L0,19.5 L0,17.875 Z M0,22.75 L19.5,22.75 L19.5,24.375 L0,24.375 L0,22.75 Z" id="Shape"></path>
                </g>
            </g>
        </g>
    </g>
</svg>