<?xml version="1.0" encoding="UTF-8"?>
<svg width="28px" height="30px" viewBox="0 0 28 30" version="1.1" xmlns="http://www.w3.org/2000/svg" xmlns:xlink="http://www.w3.org/1999/xlink">
    <!-- Generator: Sketch 43.1 (39012) - http://www.bohemiancoding.com/sketch -->
    <title>电话</title>
    <desc>Created with Sketch.</desc>
    <defs></defs>
    <g id="Welcome" stroke="none" stroke-width="1" fill="none" fill-rule="evenodd">
        <g id="内容管理" transform="translate(-421.000000, -2851.000000)" stroke="#CCCCCC">
            <g id="公告内容" transform="translate(395.000000, 412.000000)">
                <g id="3-copy-6" transform="translate(0.000000, 1427.000000)">
                    <g id="电话" transform="translate(27.000000, 1013.000000)">
                        <path d="M10,8.5 C8.5,11 8,10 7.5,10.5 C7,11 6.61111111,12.5 7.5,13.5 C8.38888889,14.5 13.5,20 13.5,20 C13.5,20 15,21 16,20 C17,19 16,19 18,17.5 C20,16 26.5,20.5 26,23 C25.5,25.5 23.5,27 21.5,27.5 C19.5,28 14,27 9,22 C4,17 -2.5,8.5 1,3 C2.05818033,1.3371452 4.36039874,0.0441594958 5.5,0.5 C8,1.5 11.5,6 10,8.5 Z" id="Path-12"></path>
                        <path d="M14,8.5 C14,8.5 16.5,8.5 16.5,11.5" id="Path-13" stroke-linecap="round"></path>
                        <path d="M14.5,6 C14.5,6 18.5,5.5 19.5,11" id="Path-14" stroke-linecap="round"></path>
                        <path d="M13.5,2.5 C13.5,2.5 22,1.5 22.5,11" id="Path-15" stroke-linecap="round"></path>
                    </g>
                </g>
            </g>
        </g>
    </g>
</svg>