<?xml version="1.0" encoding="UTF-8"?>
<svg width="32px" height="29px" viewBox="0 0 32 29" version="1.1" xmlns="http://www.w3.org/2000/svg" xmlns:xlink="http://www.w3.org/1999/xlink">
    <!-- Generator: Sketch 46 (44423) - http://www.bohemiancoding.com/sketch -->
    <title>删除</title>
    <desc>Created with Sketch.</desc>
    <defs></defs>
    <g id="Symbols" stroke="none" stroke-width="1" fill="none" fill-rule="evenodd">
        <g id="白删除" transform="translate(-1.000000, 0.000000)" stroke="#FFFFFF">
            <g id="删除">
                <g>
                    <path d="M8.46010463,5.64257891 C8.49109275,5.64257891 8.525211,5.64257891 8.56307784,5.64257891 L27.786923,5.64257891 L26.986923,6.44257891 L26.986923,6.44253951 L26.986923,2.99495843 C26.986923,1.77978226 26.0017701,0.8 24.7797026,0.8 L10.7071868,0.8 C9.48914503,0.8 8.49996643,1.78451792 8.49996643,2.99495843 L8.49996643,4.71876867 C8.49996643,5.22266517 8.49996643,5.33377028 8.49996643,5.61342144 L8.46010463,5.64257891 Z" id="Rectangle-21" stroke-width="1.6"></path>
                    <path d="M1.8578616,6.47416968 C1.83401162,6.85089895 2.10860326,7.14182703 2.48755507,7.14182703 L31.7953835,7.14182703 C32.1862859,7.14182703 32.5,6.82913008 32.5,6.44257891 C32.5,6.05363323 32.1889735,5.74333079 31.8011505,5.74333079 L2.63363208,5.74333079 C2.23438391,5.74333079 1.88318936,6.07409784 1.8578616,6.47416968 Z" id="Rectangle-22"></path>
                    <rect id="Rectangle-17-Copy-3" x="20.5271739" y="13.07836" width="1.5826087" height="11.3184067" rx="0.791304348"></rect>
                    <rect id="Path" x="13.4130435" y="13.07836" width="1.5826087" height="11.3184067" rx="0.791304348"></rect>
                    <path d="M6.9875,28.2 C7.04066282,28.2 7.10304645,28.2 7.17834028,28.2 L9.79055558,28.2 L25.6440001,28.2 C27.3076095,28.2 28.011063,28.2 28.4470557,28.2 C28.4470557,27.8756992 28.4470557,27.3700396 28.4470557,26.4478574 L28.4470557,12.6662875 C28.4470557,11.4516653 27.4651515,10.4666667 26.2560618,10.4666667 L9.17849394,10.4666667 C7.96916484,10.4666667 6.9875,11.4510862 6.9875,12.6662875 L6.9875,26.4478574 C6.9875,27.3700396 6.9875,27.8756992 6.9875,28.2 Z" id="Rectangle-21" stroke-width="1.6" transform="translate(17.717278, 19.333333) scale(1, -1) translate(-17.717278, -19.333333) "></path>
                </g>
            </g>
        </g>
    </g>
</svg>