<?xml version="1.0" encoding="UTF-8"?>
<svg width="22px" height="22px" viewBox="0 0 22 22" version="1.1" xmlns="http://www.w3.org/2000/svg" xmlns:xlink="http://www.w3.org/1999/xlink">
    <!-- Generator: Sketch 46 (44423) - http://www.bohemiancoding.com/sketch -->
    <title>白发布</title>
    <desc>Created with Sketch.</desc>
    <defs></defs>
    <g id="Page-1" stroke="none" stroke-width="1" fill="none" fill-rule="evenodd">
        <g id="运营内容管理---待审核-" transform="translate(-415.000000, -288.000000)" fill-rule="nonzero" fill="#FFFFFF">
            <g id="直播头内容" transform="translate(397.000000, 174.000000)">
                <g id="搜索" transform="translate(2.000000, 0.000000)">
                    <g id="按钮" transform="translate(0.000000, 105.000000)">
                        <g id="白发布" transform="translate(16.000000, 9.000000)">
                            <path d="M21.9917057,0.77266129 C21.9917057,0.771571429 21.9916299,0.770506912 21.9916299,0.769366359 C21.9916089,0.748453767 21.9907231,0.727551032 21.9889747,0.706711982 C21.9885195,0.700730415 21.9878621,0.694799539 21.9872805,0.688843318 C21.9854737,0.671385867 21.9830615,0.653996702 21.9800483,0.636707373 C21.9792138,0.631866359 21.9785816,0.627025346 21.977646,0.622209677 C21.9736052,0.60142967 21.9687207,0.580823458 21.9630046,0.560442396 C21.9612345,0.554156682 21.9591356,0.54797235 21.9571885,0.541762673 C21.9527168,0.527204689 21.9478088,0.512784946 21.9424713,0.498523041 C21.9396391,0.491046083 21.9368575,0.483569124 21.933823,0.476117512 C21.9265244,0.458256755 21.9185532,0.440679628 21.9099264,0.423423963 C21.9065126,0.416631336 21.902669,0.41006682 21.8990529,0.403324885 C21.8878254,0.382537154 21.8756579,0.362273403 21.8625885,0.342596774 C21.8530771,0.328360632 21.8430827,0.314454657 21.832623,0.300903226 C21.8293609,0.296670507 21.8263517,0.292387097 21.8230138,0.288230415 C21.8056294,0.266773113 21.7870739,0.246296348 21.7674322,0.226894009 C21.7531536,0.212539497 21.7382976,0.198773864 21.7229011,0.185631336 C21.721131,0.184085253 21.7195632,0.182387097 21.7177425,0.180891705 C21.7172368,0.180410138 21.7166552,0.1800553 21.7161241,0.179624424 C21.7015856,0.167488902 21.6865964,0.155906201 21.6711885,0.144900922 C21.6680782,0.142695853 21.6648161,0.140769585 21.6616805,0.138615207 C21.656092,0.134762673 21.6504276,0.131163594 21.6447885,0.127412442 C21.6307793,0.118288018 21.6165425,0.109695853 21.6020529,0.101559908 C21.5961103,0.0981889401 21.5902437,0.094640553 21.5842253,0.0914723502 C21.5659425,0.0818410138 21.5473057,0.0730207373 21.5284414,0.0649354839 C21.521108,0.0617672811 21.5135977,0.0590046083 21.5061126,0.0561152074 C21.4928999,0.0509366247 21.4795427,0.0461359109 21.4660575,0.041718894 C21.4580667,0.0391082949 21.4501264,0.0364470046 21.4420851,0.0341152074 C21.4227064,0.0284074016 21.4031103,0.0234695991 21.3833425,0.0193133641 C21.3777793,0.0181728111 21.3722161,0.0174631336 21.3666529,0.0164493088 C21.3434509,0.012157222 21.3200592,0.00896855245 21.2965563,0.00689400922 C21.2782811,0.00525206274 21.2599527,0.00427139442 21.2416069,0.00395391705 C21.2384207,0.00390322581 21.2352345,0.00362442396 21.232023,0.00362442396 C21.2103736,0.00362748652 21.1887339,0.0045407316 21.1671609,0.00636175115 C21.161623,0.00681797235 21.1561356,0.00750230415 21.150623,0.00805990783 C21.1333011,0.00983410138 21.1160299,0.0122926267 21.0987839,0.0152580645 C21.0936,0.0161705069 21.0884161,0.0169308756 21.0832322,0.0179193548 C21.0621931,0.0220506912 21.0412552,0.0269423963 21.0205195,0.0328732719 C21.0156391,0.0342672811 21.0108598,0.036016129 21.0060046,0.0374861751 C20.9825516,0.0446822237 20.9594548,0.0529966067 20.9367931,0.0624009217 C20.9227586,0.0682557604 20.9089264,0.06559447 20.8951701,0.0723364055 C20.8889747,0.0753778802 20.8826276,0.0722096774 20.8764575,0.0722096774 L0.417747126,10.7949286 C0.164443678,10.9276129 0.00642298851,11.1956935 0.00842068966,11.4821498 C0.0104436782,11.7685553 0.172131034,12.0321244 0.427255172,12.1611843 L5.92143908,14.9417765 C6.29728506,15.1320461 6.75587126,14.9813157 6.94557701,14.604477 C7.13528276,14.227765 6.9843931,13.7684263 6.60849655,13.5783088 L2.43952184,11.4694009 L18.1974138,3.21744931 L8.48378161,14.8884747 C8.36943577,15.0258529 8.3068107,15.199092 8.30682069,15.378 L8.30682069,21.2136774 C8.30682069,21.635682 8.64812414,21.9778479 9.06918391,21.9778479 C9.49026897,21.9778479 9.8315977,21.6357327 9.8315977,21.2136774 L9.8315977,15.6548756 L20.0783379,3.34349309 L17.7441885,19.152394 L12.2464644,16.4174747 C11.8693287,16.2299171 11.4118046,16.3842719 11.2246276,16.7622765 C11.0374253,17.1403065 11.1914253,17.5988594 11.5685862,17.7864931 L18.0059126,20.9888111 C18.2244645,21.0975445 18.4817399,21.0948497 18.697977,20.9815622 C18.9142117,20.8682932 19.0632997,20.6581375 19.0990345,20.4162281 L21.9835126,0.87959447 C21.9845241,0.872675115 21.9850299,0.865730415 21.9858391,0.85881106 C21.9867241,0.851511521 21.9876092,0.844262673 21.9882667,0.836963134 C21.9902138,0.8154447 21.991554,0.794002304 21.9916805,0.77266129 L21.9917057,0.77266129 Z" id="Shape"></path>
                        </g>
                    </g>
                </g>
            </g>
        </g>
    </g>
</svg>