<?xml version="1.0" encoding="UTF-8"?>
<svg width="23px" height="22px" viewBox="0 0 23 22" version="1.1" xmlns="http://www.w3.org/2000/svg" xmlns:xlink="http://www.w3.org/1999/xlink">
    <!-- Generator: Sketch 43.1 (39012) - http://www.bohemiancoding.com/sketch -->
    <title>管理</title>
    <desc>Created with Sketch.</desc>
    <defs></defs>
    <g id="Welcome" stroke="none" stroke-width="1" fill="none" fill-rule="evenodd">
        <g id="账号信息" transform="translate(-80.000000, -324.000000)" stroke="#979797">
            <g id="左侧栏" transform="translate(78.000000, 169.000000)">
                <g id="管理" transform="translate(3.000000, 156.000000)">
                    <path d="M19,20 L1.5,20 C0,20 0,18.5 0,18.5 L0,1.5 C6.4293957e-17,0.5 1.5,0 1.5,0 L15.5,0 C15.5,0 17.5,0 17.5,2 L17.5,4 L17.5,18.5 C17.5,18.5 17.5,19.4458276 18.251056,19.8353707 C18.4458276,19.936391 18.6911093,20 19,20 C20.5,20 21,19 21,18.5 L21,5 C21,5 20.9504902,3.95049024 19.7252451,3.72524512 C18.5,3.5 17.5,3.72524512 17.5,3.72524512" id="Path-9"></path>
                    <rect id="Rectangle" x="2.5" y="5.5" width="4" height="4"></rect>
                    <path d="M8.5,5.5 L14.5,5.5" id="Line" stroke-linecap="square"></path>
                    <path d="M8.5,9.5 L14.5,9.5" id="Line-Copy" stroke-linecap="square"></path>
                    <path d="M2.5,14.5 L14.5,14.5" id="Line-Copy-2" stroke-linecap="square"></path>
                </g>
            </g>
        </g>
    </g>
</svg>