<?xml version="1.0" encoding="UTF-8"?>
<svg width="23px" height="21px" viewBox="0 0 23 21" version="1.1" xmlns="http://www.w3.org/2000/svg" xmlns:xlink="http://www.w3.org/1999/xlink">
    <!-- Generator: Sketch 46 (44423) - http://www.bohemiancoding.com/sketch -->
    <title>删除</title>
    <desc>Created with Sketch.</desc>
    <defs>
        <path d="M0.988262239,4.66531576 C1.01875721,4.18570006 1.44193168,3.79689471 1.91536879,3.79689471 L23.1281095,3.79689471 C23.6096413,3.79689471 24,4.18235627 24,4.66531576 L24,4.66531576 C24,5.14493147 23.6188753,5.53373682 23.1239153,5.53373682 L1.80913096,5.53373682 C1.32528272,5.53373682 0.957554666,5.14827526 0.988262239,4.66531576 L0.988262239,4.66531576 Z" id="path-1"></path>
        <rect id="path-2" x="14.5652174" y="9.10846758" width="1.87826087" height="8.92022557" rx="0.939130435"></rect>
        <rect id="path-3" x="9.39130435" y="9.10846758" width="1.87826087" height="8.92022557" rx="0.939130435"></rect>
    </defs>
    <g id="Page-1" stroke="none" stroke-width="1" fill="none" fill-rule="evenodd">
        <g id="内容发布审阅-添加副标题" transform="translate(-1318.000000, -351.000000)">
            <g id="Group" transform="translate(138.000000, 226.000000)">
                <g id="输入标题" transform="translate(0.000000, 109.000000)">
                    <g id="标题" transform="translate(0.000000, 4.000000)">
                        <g id="删除" transform="translate(1179.000000, 12.000000)">
                            <g>
                                <g>
                                    <path d="M19.4086712,3.86531576 C19.4086712,3.77898819 19.4086712,3.67400485 19.4086712,3.49898682 L19.4086712,2.33265788 C19.4086712,1.48066036 18.7266969,0.8 17.8777264,0.8 L7.93092041,0.8 C7.0897591,0.8 6.39997559,1.48885706 6.39997559,2.33265788 L6.39997559,3.49898682 C6.39997559,3.69880261 6.39997559,3.80733174 6.39997559,3.9010328 L6.42116347,3.86531576 C6.9229895,3.86531576 7.01346884,3.86531576 7.88258428,3.86531576 L17.9260625,3.86531576 C18.6748417,3.86531576 19.1165872,3.86531576 19.4086712,3.86531576 Z" id="Rectangle-21" stroke="#F95759" stroke-width="1.6"></path>
                                    <g id="Rectangle-22">
                                        <use fill="#D8D8D8" fill-rule="evenodd" xlink:href="#path-1"></use>
                                        <path stroke="#F95759" stroke-width="1" d="M1.48725462,4.69704274 C1.47500827,4.88964976 1.61159315,5.03373682 1.80913096,5.03373682 L23.1239153,5.03373682 C23.3388937,5.03373682 23.5,4.87262835 23.5,4.66531576 C23.5,4.46040059 23.3354031,4.29689471 23.1281095,4.29689471 L1.91536879,4.29689471 C1.70210498,4.29689471 1.50077826,4.48434699 1.48725462,4.69704274 Z"></path>
                                    </g>
                                    <g id="Rectangle-17-Copy-3">
                                        <use fill="#79A3E0" fill-rule="evenodd" xlink:href="#path-2"></use>
                                        <rect stroke="#F95759" stroke-width="1" x="15.0652174" y="9.60846758" width="1" height="7.92022557" rx="0.5"></rect>
                                    </g>
                                    <g id="Path">
                                        <use fill="#79A3E0" fill-rule="evenodd" xlink:href="#path-3"></use>
                                        <rect stroke="#F95759" stroke-width="1" x="9.89130435" y="9.60846758" width="1" height="7.92022557" rx="0.5"></rect>
                                    </g>
                                    <path d="M20.470586,20.2 C20.470586,19.9595143 20.470586,19.8162087 20.470586,19.2817736 L20.470586,10.0033512 C20.470586,8.78477851 19.486969,7.8 18.2723413,7.8 L7.49824468,7.8 C6.28553443,7.8 5.3,8.78682682 5.3,10.0033512 L5.3,19.2817736 C5.3,19.8200443 5.3,19.9615511 5.3,20.2051929 L5.31518317,20.2 C6.00867708,20.2 6.05327064,20.2 7.12040406,20.2 L18.6501819,20.2 C19.6175579,20.2 20.1385255,20.2 20.470586,20.2 Z" id="Rectangle-21" stroke="#F95759" stroke-width="1.6" transform="translate(12.885293, 14.000000) scale(1, -1) translate(-12.885293, -14.000000) "></path>
                                </g>
                            </g>
                        </g>
                    </g>
                </g>
            </g>
        </g>
    </g>
</svg>