<?xml version="1.0" encoding="UTF-8"?>
<svg width="20px" height="20px" viewBox="0 0 20 20" version="1.1" xmlns="http://www.w3.org/2000/svg" xmlns:xlink="http://www.w3.org/1999/xlink">
    <!-- Generator: Sketch 43.1 (39012) - http://www.bohemiancoding.com/sketch -->
    <title>草稿</title>
    <desc>Created with Sketch.</desc>
    <defs></defs>
    <g id="Welcome" stroke="none" stroke-width="1" fill="none" fill-rule="evenodd" stroke-linecap="round">
        <g id="内容管理" transform="translate(-1493.000000, -1886.000000)" stroke="#7CD351">
            <g id="公告内容" transform="translate(395.000000, 412.000000)">
                <g id="3-copy-6" transform="translate(0.000000, 1427.000000)">
                    <g id="草稿" transform="translate(1098.000000, 47.000000)">
                        <path d="M6.5,10.5 L5,14 C5,14 7.95397198,13.546028 8.5,13 C9.04602802,12.453972 19.5,2.72151899 19.5,2.72151899 L6.5,10.5 Z" id="Path-5" stroke-linejoin="round"></path>
                        <path d="M16,0.5 L3.5,0.5 C3.5,0.5 0.5,1 0.5,4 L0.5,16 C0.5,16 0.5,19 4,19 C7.5,19 17,19 17,19 C17,19 19,19 19,16 L19,9" id="Path-11"></path>
                    </g>
                </g>
            </g>
        </g>
    </g>
</svg>