<?xml version="1.0" encoding="UTF-8"?>
<svg width="22px" height="22px" viewBox="0 0 22 22" version="1.1" xmlns="http://www.w3.org/2000/svg" xmlns:xlink="http://www.w3.org/1999/xlink">
    <!-- Generator: Sketch 46 (44423) - http://www.bohemiancoding.com/sketch -->
    <title>草稿</title>
    <desc>Created with Sketch.</desc>
    <defs></defs>
    <g id="Page-1" stroke="none" stroke-width="1" fill="none" fill-rule="evenodd">
        <g id="内容管理" transform="translate(-1493.000000, -1574.000000)" fill="#7566D6">
            <g id="公告内容" transform="translate(396.000000, 413.000000)">
                <g id="草稿" transform="translate(1097.000000, 1161.000000)">
                    <g id="Shape">
                        <path d="M11.0029772,21.9870176 C4.93778557,21.9870176 0.023047386,17.0668315 0.023047386,10.9948607 C0.023047386,4.92268933 4.93778557,0.00250319822 11.0029772,0.00250319822 C17.0682189,0.00250319822 21.9829571,4.9226893 21.9829571,10.9948607 C21.9829571,17.0668315 17.0682189,21.9870176 11.0029772,21.9870176 Z M12.1032966,5.4985942 L9.90273294,5.4985942 L9.90273294,7.69596763 L12.1032966,7.69596763 L12.1032966,5.4985942 Z M12.1032966,9.89895671 L9.90273294,9.89895671 L9.90273294,12.0905139 L12.1032966,12.0905139 L12.1032966,9.89895671 Z M18.6878838,8.79746218 C18.6878838,8.1879637 18.1962848,7.69596765 17.5930736,7.69596765 C16.9843783,7.69596765 16.4927793,8.1879637 16.4927793,8.79746218 L16.4927793,10.9948607 L16.4927793,13.1920586 C16.4927793,13.1920586 16.5679303,14.2935783 14.2980755,14.2935783 L7.70795399,14.2935782 C5.38668803,14.2935782 5.51322513,13.1920586 5.51322513,13.1920586 L5.51322513,12.090539 L5.51322513,10.9948607 L5.51322513,9.89895671 L5.51322513,8.79746218 C5.51322513,8.1879637 5.02155097,7.69596765 4.41293079,7.69596765 C3.80971966,7.69596765 3.31812063,8.1879637 3.31812063,8.79746218 L3.31812063,10.9948607 L3.31812063,13.1920586 C3.31812063,15.0148131 4.79254208,16.4909517 6.61351945,16.4909517 L15.3982697,16.4909517 C17.2134373,16.4909517 18.6878838,15.0148131 18.6878838,13.1920586 L18.6878838,10.9948607 L18.6878838,10.9948607 L18.6878838,8.79746218 Z" fill-rule="nonzero"></path>
                    </g>
                </g>
            </g>
        </g>
    </g>
</svg>