<?xml version="1.0" encoding="UTF-8"?>
<svg width="20px" height="20px" viewBox="0 0 20 20" version="1.1" xmlns="http://www.w3.org/2000/svg" xmlns:xlink="http://www.w3.org/1999/xlink">
    <!-- Generator: Sketch 43.1 (39012) - http://www.bohemiancoding.com/sketch -->
    <title>设置编辑</title>
    <desc>Created with Sketch.</desc>
    <defs></defs>
    <g id="Welcome" stroke="none" stroke-width="1" fill="none" fill-rule="evenodd" stroke-linecap="round">
        <g id="内容管理" transform="translate(-1712.000000, -472.000000)" stroke="#79A3E0">
            <g id="设置编辑" transform="translate(1712.000000, 473.000000)">
                <path d="M9,12 C9,12 7,11.5454545 7,9.72727273 C7,7.90909091 8.5,7 10,7 C11.5,7 13,8.36363636 13,9.72727273 C13,11.0909091 11.5,12 11,12" id="Path-20"></path>
                <path d="M2.5,11 L1,11 L0.5,10 L0.5,8 L3.5,7.5 L4,6 L2,3.5 L4,1.5 L6.5,3.5 L8,3 L8.5,0 L11.5,0 L12,3 L13,3.5 L15.5,2 L17.5,4 L16,6 L16.5,7.5 L19,8 L19,10.5 L16.5,11 L16,12.5 L17.5,14.5 L15.5,16.5 L13.5,15 L12,15.5 L11.5,18.5 L8.5,18.5 L8,15.5 L6.5,15 L5,17 L2.5,15 L2.5,14 L3.5,13" id="Path-21" stroke-linejoin="round"></path>
            </g>
        </g>
    </g>
</svg>