<?xml version="1.0" encoding="UTF-8"?>
<svg width="22px" height="22px" viewBox="0 0 22 22" version="1.1" xmlns="http://www.w3.org/2000/svg" xmlns:xlink="http://www.w3.org/1999/xlink">
    <!-- Generator: Sketch 43.1 (39012) - http://www.bohemiancoding.com/sketch -->
    <title>设置</title>
    <desc>Created with Sketch.</desc>
    <defs></defs>
    <g id="Welcome" stroke="none" stroke-width="1" fill="none" fill-rule="evenodd">
        <g id="账号信息" transform="translate(-104.000000, -420.000000)" stroke="#979797">
            <g id="设置" transform="translate(105.000000, 421.000000)">
                <polygon id="Path-10" stroke-linecap="round" points="4.5 1.5 6 2.5 7.5 2 8 0 12 0 12.5 2 14 2.5 16 1.5 18.5 4 17.5 6 18 7.5 20 8 20 12 18 12.5 17.5 14 18.5 15.5 15.5 18.5 14 17.5 12.5 18 12 20 8 20 7.5 18 6 17.5 4.5 18.5 1.5 15.5 2.5 14 2 12.5 0 12 0 8 2 7.5 2.5 6 1.5 4.5"></polygon>
                <circle id="Oval-2" cx="10" cy="10" r="4"></circle>
            </g>
        </g>
    </g>
</svg>