<?xml version="1.0" encoding="UTF-8"?>
<svg width="407px" height="417px" viewBox="0 0 407 417" version="1.1" xmlns="http://www.w3.org/2000/svg" xmlns:xlink="http://www.w3.org/1999/xlink">
    <!-- Generator: Sketch 43.1 (39012) - http://www.bohemiancoding.com/sketch -->
    <title>404</title>
    <desc>Created with Sketch.</desc>
    <defs>
        <polygon id="path-1" points="0 435 406.197 435 406.197 0.653 0 0.653"></polygon>
    </defs>
    <g id="Page-1" stroke="none" stroke-width="1" fill="none" fill-rule="evenodd">
        <g id="icon页面" transform="translate(-1503.000000, -338.000000)">
            <g id="404" transform="translate(1503.000000, 337.000000)">
                <g id="Group-51" transform="translate(0.000000, 0.347000)">
                    <polygon id="Fill-1" points="387.495 108.402 207.403 78.893 387.495 49.383"></polygon>
                    <polygon id="Fill-3" points="60.473 49.383 240.565 78.893 60.473 108.402"></polygon>
                    <polygon id="Fill-5" fill="#FFE2E2" points="371.4344 318.286 278.5914 416.953 185.7494 318.286"></polygon>
                    <polygon id="Fill-7" fill="#FFE2E2" points="0 318.286 43.846 361.06 87.692 318.286"></polygon>
                    <polygon id="Fill-9" points="266.868 363.63 246.807 344.06 159.84 435 48.226 318.286 220.388 318.286 271.455 318.286 313.348 318.286"></polygon>
                    <path d="M372.9962,306.1506 L286.7192,215.9336 C285.8112,214.9816 284.1442,214.9816 283.2352,215.9336 L196.8042,306.3136 C196.1362,307.0116 195.9502,308.0396 196.3292,308.9266 C196.7082,309.8146 197.5812,310.3906 198.5462,310.3906 L371.4092,310.3906 L371.4252,310.3906 C372.7572,310.3906 373.8362,309.3116 373.8362,307.9796 C373.8362,307.2486 373.5102,306.5926 372.9962,306.1506" id="Fill-11" fill="#FFFFFF"></path>
                    <path d="M372.9962,306.1506 L286.7192,215.9336 C285.8112,214.9816 284.1442,214.9816 283.2352,215.9336 L196.8042,306.3136 C196.1362,307.0116 195.9502,308.0396 196.3292,308.9266 C196.7082,309.8146 197.5812,310.3906 198.5462,310.3906 L371.4092,310.3906 L371.4252,310.3906 C372.7572,310.3906 373.8362,309.3116 373.8362,307.9796 C373.8362,307.2486 373.5102,306.5926 372.9962,306.1506 Z" id="Stroke-13" stroke="#F65759" stroke-width="4" stroke-linecap="round" stroke-linejoin="round"></path>
                    <mask id="mask-2" fill="white">
                        <use xlink:href="#path-1"></use>
                    </mask>
                    <g id="Clip-16"></g>
                    <polygon id="Fill-15" fill="#FFFFFF" mask="url(#mask-2)" points="196.139 118.206 251.829 118.206 251.829 78.893 196.139 78.893"></polygon>
                    <polygon id="Fill-17" fill="#FFFFFF" mask="url(#mask-2)" points="191.034 78.893 256.934 78.893 256.934 59.938 191.034 59.938"></polygon>
                    <path d="M251.9881,81.2243 L251.9881,118.4803" id="Stroke-18" stroke="#F65759" stroke-width="4" stroke-linecap="round" stroke-linejoin="round" mask="url(#mask-2)"></path>
                    <path d="M195.9919,81.2243 L195.9919,118.4803" id="Stroke-19" stroke="#F65759" stroke-width="4" stroke-linecap="round" stroke-linejoin="round" mask="url(#mask-2)"></path>
                    <path d="M191.0339,62.5963 L191.0339,79.1233" id="Stroke-20" stroke="#F65759" stroke-width="4" stroke-linecap="round" stroke-linejoin="round" mask="url(#mask-2)"></path>
                    <path d="M256.9341,62.5963 L256.9341,79.1233" id="Stroke-21" stroke="#F65759" stroke-width="4" stroke-linecap="round" stroke-linejoin="round" mask="url(#mask-2)"></path>
                    <path d="M223.984,2.6533 L223.984,35.8983" id="Stroke-22" stroke="#F65759" stroke-width="4" stroke-linecap="round" stroke-linejoin="round" mask="url(#mask-2)"></path>
                    <polygon id="Fill-23" fill="#FFE2E2" mask="url(#mask-2)" points="266.1782 308.4365 181.7902 308.4365 196.1392 118.2065 251.8292 118.2065"></polygon>
                    <polygon id="Stroke-24" stroke="#F65759" stroke-width="4" stroke-linecap="round" stroke-linejoin="round" mask="url(#mask-2)" points="266.1782 308.4365 181.7902 308.4365 196.1392 118.2065 251.8292 118.2065"></polygon>
                    <path d="M182.7125,100.354 L265.2555,100.354" id="Stroke-25" stroke="#F65759" stroke-width="4" stroke-linecap="round" stroke-linejoin="round" mask="url(#mask-2)"></path>
                    <path d="M208.0316,101.6034 L208.0316,118.2064" id="Stroke-26" stroke="#F65759" stroke-width="4" stroke-linecap="round" stroke-linejoin="round" mask="url(#mask-2)"></path>
                    <path d="M186.6782,101.6034 L186.6782,118.2064" id="Stroke-27" stroke="#F65759" stroke-width="4" stroke-linecap="round" stroke-linejoin="round" mask="url(#mask-2)"></path>
                    <path d="M223.984,101.6034 L223.984,118.2064" id="Stroke-28" stroke="#F65759" stroke-width="4" stroke-linecap="round" stroke-linejoin="round" mask="url(#mask-2)"></path>
                    <path d="M238.0173,101.6034 L238.0173,118.2064" id="Stroke-29" stroke="#F65759" stroke-width="4" stroke-linecap="round" stroke-linejoin="round" mask="url(#mask-2)"></path>
                    <path d="M260.7337,101.6034 L260.7337,118.2064" id="Stroke-30" stroke="#F65759" stroke-width="4" stroke-linecap="round" stroke-linejoin="round" mask="url(#mask-2)"></path>
                    <path d="M239.0642,119.5614 L240.8042,156.0654" id="Stroke-31" stroke="#FFFFFF" stroke-width="6" stroke-linecap="round" stroke-linejoin="round" mask="url(#mask-2)"></path>
                    <path d="M242.0173,177.3627 L246.5603,286.6287" id="Stroke-32" stroke="#FFFFFF" stroke-width="6" stroke-linecap="round" stroke-linejoin="round" mask="url(#mask-2)"></path>
                    <path d="M182.7125,118.206 L265.2555,118.206" id="Stroke-33" stroke="#F65759" stroke-width="4" stroke-linecap="round" stroke-linejoin="round" mask="url(#mask-2)"></path>
                    <path d="M228.2492,160.2686 C228.2492,163.0286 226.0112,165.2666 223.2512,165.2666 C220.4912,165.2666 218.2542,163.0286 218.2542,160.2686 C218.2542,157.5086 220.4912,155.2706 223.2512,155.2706 C226.0112,155.2706 228.2492,157.5086 228.2492,160.2686" id="Fill-34" fill="#F65759" mask="url(#mask-2)"></path>
                    <path d="M228.2492,136.0756 C228.2492,138.8356 226.0112,141.0736 223.2512,141.0736 C220.4912,141.0736 218.2542,138.8356 218.2542,136.0756 C218.2542,133.3156 220.4912,131.0776 223.2512,131.0776 C226.0112,131.0776 228.2492,133.3156 228.2492,136.0756" id="Fill-35" fill="#F65759" mask="url(#mask-2)"></path>
                    <path d="M244.1117,166.2759 C244.1117,167.8719 242.8177,169.1649 241.2227,169.1649 C239.6267,169.1649 238.3327,167.8719 238.3327,166.2759 C238.3327,164.6799 239.6267,163.3869 241.2227,163.3869 C242.8177,163.3869 244.1117,164.6799 244.1117,166.2759" id="Fill-36" fill="#FFFFFF" mask="url(#mask-2)"></path>
                    <path d="M195.0832,58.7829 C195.0832,43.2259 207.6942,30.6149 223.2512,30.6149 C238.8082,30.6149 251.4202,43.2259 251.4202,58.7829" id="Fill-37" fill="#FFE2E2" mask="url(#mask-2)"></path>
                    <path d="M215.2602,32.896 C215.2602,32.896 224.4402,33.519 229.1812,38.748" id="Stroke-38" stroke="#FFFFFF" stroke-width="6" stroke-linecap="round" stroke-linejoin="round" mask="url(#mask-2)"></path>
                    <path d="M237.0058,46.0617 C237.0058,47.6577 235.7118,48.9507 234.1168,48.9507 C232.5208,48.9507 231.2268,47.6577 231.2268,46.0617 C231.2268,44.4657 232.5208,43.1727 234.1168,43.1727 C235.7118,43.1727 237.0058,44.4657 237.0058,46.0617" id="Fill-39" fill="#FFFFFF" mask="url(#mask-2)"></path>
                    <path d="M236.8042,53.9457 C236.8042,53.9457 237.5632,55.4367 237.5632,58.5977" id="Stroke-40" stroke="#FFFFFF" stroke-width="6" stroke-linecap="round" stroke-linejoin="round" mask="url(#mask-2)"></path>
                    <path d="M182.7125,59.938 L265.2555,59.938" id="Stroke-41" stroke="#F65759" stroke-width="4" stroke-linecap="round" stroke-linejoin="round" mask="url(#mask-2)"></path>
                    <path d="M195.0832,58.7829 C195.0832,43.2259 207.6942,30.6149 223.2512,30.6149 C238.8082,30.6149 251.4202,43.2259 251.4202,58.7829" id="Stroke-42" stroke="#F65759" stroke-width="4" stroke-linecap="round" stroke-linejoin="round" mask="url(#mask-2)"></path>
                    <path d="M182.7125,78.8931 L239.3585,78.8931" id="Stroke-43" stroke="#F65759" stroke-width="4" stroke-linecap="round" stroke-linejoin="round" mask="url(#mask-2)"></path>
                    <path d="M247.8234,78.8931 L266.1784,78.8931" id="Stroke-44" stroke="#F65759" stroke-width="4" stroke-linecap="round" stroke-linejoin="round" mask="url(#mask-2)"></path>
                    <polygon id="Fill-45" fill="#FFFFFF" mask="url(#mask-2)" points="19.9065 310.3905 63.7525 267.6165 107.5985 310.3905"></polygon>
                    <polygon id="Stroke-46" stroke="#F65759" stroke-width="4" stroke-linecap="round" stroke-linejoin="round" mask="url(#mask-2)" points="19.9065 310.3905 63.7525 267.6165 107.5985 310.3905"></polygon>
                    <polygon id="Fill-47" fill="#FFFFFF" mask="url(#mask-2)" points="351.4904 310.3905 377.8434 284.6815 404.1974 310.3905"></polygon>
                    <polygon id="Stroke-48" stroke="#F65759" stroke-width="4" stroke-linecap="round" stroke-linejoin="round" mask="url(#mask-2)" points="351.4904 310.3905 377.8434 284.6815 404.1974 310.3905"></polygon>
                    <polygon id="Fill-49" fill="#FFFFFF" mask="url(#mask-2)" points="279.8504 265.046 259.7894 284.617 172.8224 193.676 61.2084 310.39 233.3704 310.39 284.4374 310.39 326.3304 310.39"></polygon>
                    <polygon id="Stroke-50" stroke="#F65759" stroke-width="4" stroke-linecap="round" stroke-linejoin="round" mask="url(#mask-2)" points="279.8504 265.046 259.7894 284.617 172.8224 193.676 61.2084 310.39 233.3704 310.39 284.4374 310.39 326.3304 310.39"></polygon>
                </g>
                <polygon id="Fill-52" points="343.577 318.633 369.93 344.343 396.284 318.633"></polygon>
                <g id="Group-70" transform="translate(67.000000, 185.347000)">
                    <path d="M104.6683,56.0194 C104.8823,57.6004 103.7733,59.0564 102.1913,59.2694 C100.6103,59.4834 99.1553,58.3744 98.9413,56.7934 C98.7273,55.2114 99.8363,53.7564 101.4183,53.5424 C102.9993,53.3294 104.4543,54.4384 104.6683,56.0194" id="Fill-54" fill="#F65759"></path>
                    <path d="M177.8339,152.0615 C177.8339,156.4835 166.4029,160.0675 152.3019,160.0675 C138.2009,160.0675 126.7699,156.4835 126.7699,152.0615 C126.7699,147.6395 138.2009,144.0555 152.3019,144.0555 C166.4029,144.0555 177.8339,147.6395 177.8339,152.0615 Z" id="Stroke-56" stroke="#F65759" stroke-width="4" stroke-linecap="round" stroke-linejoin="round"></path>
                    <path d="M97.6431,37.7269 C97.6431,37.7269 164.2271,51.9849 164.2271,149.2879" id="Stroke-58" stroke="#F65759" stroke-width="4" stroke-linecap="round" stroke-linejoin="round"></path>
                    <path d="M111.0905,60.6536 C111.0905,60.6536 144.0355,75.4836 150.0235,134.8176" id="Stroke-60" stroke="#F65759" stroke-width="4" stroke-linecap="round" stroke-linejoin="round"></path>
                    <path d="M58.3086,22.7358 C48.7356,3.5798 35.8866,-0.5772 24.7306,0.5828 C27.0906,11.9708 39.0706,25.9818 39.0156,35.2368 C39.0136,35.5818 38.9926,35.9228 38.9646,36.2618 C46.5386,34.7908 53.0366,31.1658 56.7376,28.7418 C54.8776,26.3698 53.4576,24.6868 53.4576,24.6868 C53.4576,24.6868 55.5236,23.9068 58.3086,22.7358" id="Fill-62" fill="#F65759"></path>
                    <path d="M24.7302,0.5833 C11.4032,1.9693 0.4972,10.9283 0.4972,10.9283 C11.0932,35.2533 26.4862,38.6843 38.9642,36.2613 C38.9932,35.9233 39.0142,35.5823 39.0162,35.2363 C39.0702,25.9823 27.0912,11.9713 24.7302,0.5833" id="Fill-64" fill="#F65759"></path>
                    <path d="M58.3086,22.7358 C58.8916,23.9018 59.4646,25.1128 60.0216,26.3928 C60.0216,26.3928 58.8216,27.3768 56.7376,28.7418 C59.7056,32.5308 63.7976,38.0828 65.0426,41.3928 L68.3766,28.5628 L71.7096,15.7328 C69.0126,18.0158 62.7446,20.8718 58.3086,22.7358" id="Fill-66" fill="#F65759"></path>
                    <path d="M58.3086,22.7358 C55.5236,23.9068 53.4576,24.6868 53.4576,24.6868 C53.4576,24.6868 54.8776,26.3698 56.7376,28.7418 C58.8216,27.3768 60.0216,26.3928 60.0216,26.3928 C59.4646,25.1128 58.8916,23.9018 58.3086,22.7358" id="Fill-68" fill="#F65759"></path>
                </g>
            </g>
        </g>
    </g>
</svg>