<?xml version="1.0" encoding="UTF-8"?>
<svg width="379px" height="342px" viewBox="0 0 379 342" version="1.1" xmlns="http://www.w3.org/2000/svg" xmlns:xlink="http://www.w3.org/1999/xlink">
    <!-- Generator: Sketch 43.1 (39012) - http://www.bohemiancoding.com/sketch -->
    <title>500</title>
    <desc>Created with Sketch.</desc>
    <defs></defs>
    <g id="Page-1" stroke="none" stroke-width="1" fill="none" fill-rule="evenodd">
        <g id="icon页面" transform="translate(-357.000000, -886.000000)">
            <g id="500" transform="translate(359.000000, 888.000000)">
                <path d="M364.3349,130.1248 C348.7479,78.3998 295.2629,50.8428 248.7399,66.6408 C216.5349,77.5768 194.6109,107.1728 189.3279,141.5088 C184.9329,171.8758 180.2409,194.7938 175.6129,212.0808 C167.4479,197.6488 154.3969,186.5918 138.9909,180.8368 L98.0989,255.4138 L168.7529,291.1668 C173.2169,285.7228 176.8629,279.6178 179.5369,273.0538 C240.6769,270.9248 339.8549,270.3138 362.4759,198.0878 C369.0959,176.9508 370.7939,151.5598 364.3349,130.1248" id="Fill-1" fill="#FFFFFF"></path>
                <path d="M364.3349,130.1248 C348.7479,78.3998 295.2629,50.8428 248.7399,66.6408 C216.5349,77.5768 194.6109,107.1728 189.3279,141.5088 C184.9329,171.8758 180.2409,194.7938 175.6129,212.0808 C167.4479,197.6488 154.3969,186.5918 138.9909,180.8368 L98.0989,255.4138 L168.7529,291.1668 C173.2169,285.7228 176.8629,279.6178 179.5369,273.0538 C240.6769,270.9248 339.8549,270.3138 362.4759,198.0878 C369.0959,176.9508 370.7939,151.5598 364.3349,130.1248 Z" id="Stroke-3" stroke="#F65759" stroke-width="4" stroke-linecap="round" stroke-linejoin="round"></path>
                <path d="M121.127,190.7536 C121.127,190.7536 150.839,190.7516 161.077,218.6756 L175.444,225.1926 L168.177,236.1656 C168.177,236.1656 189.802,264.4776 158.355,284.0656" id="Stroke-5" stroke="#F65759" stroke-width="4" stroke-linecap="round" stroke-linejoin="round"></path>
                <path d="M348.7234,136.293 C335.5774,92.667 293.1104,68.103 253.8714,81.428 C226.7094,90.651 208.2184,115.613 203.7624,144.572 C197.6404,246.811 166.6334,251.405 166.6334,251.405 L167.7924,256.166 C210.4304,255.897 256.5454,255.252 297.4174,241.357 C340.8104,226.605 361.7034,179.367 348.7234,136.293" id="Fill-7" fill="#F65759"></path>
                <path d="M348.7234,136.293 C335.5774,92.667 293.1104,68.103 253.8714,81.428 C243.3564,84.998 234.1484,90.935 226.5434,98.542 C245.0034,97.54 264.3924,99.401 279.8254,109.011 C326.1804,137.876 300.2664,208.025 269.8884,237.094 C264.3044,242.437 258.2974,247.339 251.9844,251.759 C267.5324,249.59 282.8104,246.323 297.4174,241.357 C340.8104,226.605 361.7034,179.367 348.7234,136.293" id="Fill-9" fill="#FFFFFF"></path>
                <path d="M98.0971,255.4134 L138.9901,180.8364 C128.5081,176.9214 116.9381,175.4574 105.0741,177.0614 C75.8731,181.0064 53.3091,202.3744 46.4341,229.2694 C44.2621,237.7664 43.6511,246.8134 44.8981,256.0394 C47.5091,275.3664 57.7551,291.7864 72.1821,302.6754 C86.4381,313.4354 104.7771,318.7954 123.8761,316.2154 C142.1891,313.7404 157.8901,304.4114 168.7511,291.1674 L98.0971,255.4134 Z" id="Fill-11" fill="#FFE2E2"></path>
                <path d="M98.0971,255.4134 L138.9901,180.8364 C128.5081,176.9214 116.9381,175.4574 105.0741,177.0614 C75.8731,181.0064 53.3091,202.3744 46.4341,229.2694 C44.2621,237.7664 43.6511,246.8134 44.8981,256.0394 C47.5091,275.3664 57.7551,291.7864 72.1821,302.6754 C86.4381,313.4354 104.7771,318.7954 123.8761,316.2154 C142.1891,313.7404 157.8901,304.4114 168.7511,291.1674 L98.0971,255.4134 Z" id="Stroke-13" stroke="#F65759" stroke-width="4" stroke-linecap="round" stroke-linejoin="round"></path>
                <path d="M122.9661,21.3301 C131.3471,39.6611 123.2801,61.3151 104.9491,69.6961 C86.6181,78.0761 64.9641,70.0101 56.5831,51.6791 C48.2031,33.3471 56.2691,11.6931 74.6001,3.3131 C92.9311,-5.0679 114.5851,2.9991 122.9661,21.3301" id="Fill-15" fill="#FFE2E2"></path>
                <path d="M122.9661,21.3301 C131.3471,39.6611 123.2801,61.3151 104.9491,69.6961 C86.6181,78.0761 64.9641,70.0101 56.5831,51.6791 C48.2031,33.3471 56.2691,11.6931 74.6001,3.3131 C92.9311,-5.0679 114.5851,2.9991 122.9661,21.3301 Z" id="Stroke-17" stroke="#F65759" stroke-width="4" stroke-linecap="round" stroke-linejoin="round"></path>
                <path d="M118.4756,252.0857 C120.0236,263.5437 111.9906,274.0877 100.5326,275.6357 C89.0746,277.1837 78.5306,269.1507 76.9826,257.6917 C75.4346,246.2337 83.4676,235.6907 94.9256,234.1427 C106.3836,232.5937 116.9276,240.6277 118.4756,252.0857" id="Fill-19" fill="#FFFFFF"></path>
                <path d="M118.4756,252.0857 C120.0236,263.5437 111.9906,274.0877 100.5326,275.6357 C89.0746,277.1837 78.5306,269.1507 76.9826,257.6917 C75.4346,246.2337 83.4676,235.6907 94.9256,234.1427 C106.3836,232.5937 116.9276,240.6277 118.4756,252.0857 Z" id="Stroke-21" stroke="#F65759" stroke-width="4" stroke-linecap="round" stroke-linejoin="round"></path>
                <path d="M90.3403,196.0552 C90.3403,196.0552 61.6663,206.5152 57.7343,244.2572" id="Stroke-23" stroke="#F65759" stroke-width="4" stroke-linecap="round" stroke-linejoin="round"></path>
                <path d="M105.5294,253.8349 C106.1114,258.1429 103.0914,262.1069 98.7834,262.6889 C94.4754,263.2709 90.5104,260.2509 89.9284,255.9429 C89.3464,251.6349 92.3674,247.6709 96.6754,247.0889 C100.9834,246.5069 104.9474,249.5269 105.5294,253.8349" id="Fill-25" fill="#F65759"></path>
                <path d="M170.8486,252.7012 C171.8246,256.5852 170.2036,260.3392 167.2296,261.0862 C164.2546,261.8332 161.0526,259.2912 160.0766,255.4072 C159.1016,251.5232 160.7216,247.7692 163.6966,247.0222 C166.6706,246.2752 169.8726,248.8172 170.8486,252.7012" id="Fill-27" fill="#F65759"></path>
                <path d="M136.6629,239.3841 C143.6759,240.0081 151.4769,244.6491 151.7819,252.4571 C152.0369,258.9611 146.2219,264.6041 140.6559,266.8631" id="Stroke-29" stroke="#F65759" stroke-width="4" stroke-linecap="round" stroke-linejoin="round"></path>
                <path d="M313.0563,119.5253 C313.0563,119.5253 340.8213,142.9683 326.6443,187.9573" id="Stroke-31" stroke="#FFE2E2" stroke-width="6" stroke-linecap="round" stroke-linejoin="round"></path>
                <path d="M288.0477,155.6629 C287.8357,155.2649 287.2107,154.3439 285.9837,154.3839 C285.9457,154.3859 285.9077,154.3889 285.8707,154.3949 L273.3897,155.9729 L273.7357,134.3589 C273.7367,134.2999 273.7357,134.2379 273.7327,134.1789 C273.6657,132.8369 273.3227,131.8139 272.7117,131.1349 C272.2007,130.5639 271.5467,130.3019 270.8707,130.3929 C270.0967,130.4979 269.4847,131.0429 269.3167,131.2079 C269.1647,131.3549 269.0387,131.5379 268.9417,131.7479 L250.0507,172.6929 C250.0217,172.7569 249.9957,172.8219 249.9717,172.8909 C249.7007,173.6679 249.6177,174.8569 250.1947,175.8629 C250.4897,176.3779 251.1837,177.2119 252.5207,177.0319 C252.5847,177.0229 252.6497,177.0109 252.7207,176.9979 L263.7557,175.4959 L260.7967,200.0349 C260.7787,200.1749 260.7737,200.3189 260.7797,200.4639 C260.7927,200.8029 260.8957,201.9769 261.6627,202.8399 C262.1647,203.4049 262.8137,203.6679 263.4907,203.5759 C263.9057,203.5199 264.3277,203.3359 264.7807,203.0139 C264.9827,202.8699 265.1547,202.6669 265.2847,202.4199 L288.0787,159.0589 C288.1277,158.9669 288.1697,158.8699 288.2047,158.7669 C288.3427,158.3699 288.7427,156.9699 288.0477,155.6629" id="Fill-33" fill="#FFE2E2"></path>
                <path d="M124.397,10.0983 C130.709,9.5583 134.978,10.4673 136.145,13.0223 C139.154,19.6023 120.445,34.6053 94.359,46.5313 C68.272,58.4573 44.686,62.7903 41.678,56.2103 C40.46,53.5463 42.801,49.5013 47.751,44.8393" id="Stroke-35" stroke="#F65759" stroke-width="4" stroke-linecap="round" stroke-linejoin="round"></path>
                <path d="M37.4683,188.9352 C37.4683,192.5422 34.5443,195.4672 30.9363,195.4672 C27.3293,195.4672 24.4043,192.5422 24.4043,188.9352 C24.4043,185.3272 27.3293,182.4032 30.9363,182.4032 C34.5443,182.4032 37.4683,185.3272 37.4683,188.9352" id="Fill-37" fill="#FFE2E2"></path>
                <path d="M37.4683,188.9352 C37.4683,192.5422 34.5443,195.4672 30.9363,195.4672 C27.3293,195.4672 24.4043,192.5422 24.4043,188.9352 C24.4043,185.3272 27.3293,182.4032 30.9363,182.4032 C34.5443,182.4032 37.4683,185.3272 37.4683,188.9352 Z" id="Stroke-39" stroke="#F65759" stroke-width="4" stroke-linecap="round" stroke-linejoin="round"></path>
                <path d="M78.543,150.6403 C78.543,154.2473 75.619,157.1723 72.011,157.1723 C68.404,157.1723 65.479,154.2473 65.479,150.6403 C65.479,147.0333 68.404,144.1083 72.011,144.1083 C75.619,144.1083 78.543,147.0333 78.543,150.6403" id="Fill-41" fill="#F65759"></path>
                <path d="M98.6987,15.55 C100.0527,20.19 97.3887,25.049 92.7487,26.403 C88.1087,27.757 83.2497,25.093 81.8957,20.453 C80.5417,15.813 83.2057,10.954 87.8457,9.6 C92.4857,8.246 97.3447,10.91 98.6987,15.55" id="Fill-43" fill="#FFE2E2"></path>
                <path d="M107.6771,27.5781 C108.1761,29.2891 107.1941,31.0801 105.4831,31.5791 C103.7721,32.0791 101.9811,31.0961 101.4821,29.3861 C100.9831,27.6751 101.9651,25.8831 103.6761,25.3841 C105.3861,24.8851 107.1781,25.8671 107.6771,27.5781" id="Fill-45" fill="#FFE2E2"></path>
                <path d="M143.2266,141.8014 C143.2266,148.3404 137.9256,153.6404 131.3876,153.6404 C124.8486,153.6404 119.5486,148.3404 119.5486,141.8014 C119.5486,135.2624 124.8486,129.9624 131.3876,129.9624 C137.9256,129.9624 143.2266,135.2624 143.2266,141.8014" id="Fill-47" fill="#FFE2E2"></path>
                <path d="M143.2266,141.8014 C143.2266,148.3404 137.9256,153.6404 131.3876,153.6404 C124.8486,153.6404 119.5486,148.3404 119.5486,141.8014 C119.5486,135.2624 124.8486,129.9624 131.3876,129.9624 C137.9256,129.9624 143.2266,135.2624 143.2266,141.8014 Z" id="Stroke-49" stroke="#F65759" stroke-width="4" stroke-linecap="round" stroke-linejoin="round"></path>
                <path d="M322.4001,206.0716 C321.2451,207.6216 319.0531,207.9426 317.5031,206.7876 C315.9531,205.6326 315.6321,203.4406 316.7871,201.8906 C317.9411,200.3406 320.1341,200.0196 321.6841,201.1746 C323.2341,202.3286 323.5551,204.5216 322.4001,206.0716" id="Fill-51" fill="#FFE2E2"></path>
                <path d="M158.357,322.6006 C161.785,322.1616 164.561,320.0376 165.156,317.0326 C165.942,313.0596 162.623,309.0556 157.743,308.0896 L43.359,285.4446 C38.479,284.4786 33.885,286.9166 33.098,290.8886 C32.335,294.7446 35.444,298.6216 40.089,299.7296 C36.66,300.1696 33.885,302.2926 33.29,305.2976 C32.504,309.2706 35.822,313.2746 40.703,314.2406 L155.087,336.8856 C159.967,337.8516 164.561,335.4146 165.348,331.4416 C166.111,327.5856 163.002,323.7096 158.357,322.6006" id="Fill-53" fill="#FFFFFF"></path>
                <path d="M158.357,322.6006 C161.785,322.1616 164.561,320.0376 165.156,317.0326 C165.942,313.0596 162.623,309.0556 157.743,308.0896 L43.359,285.4446 C38.479,284.4786 33.885,286.9166 33.098,290.8886 C32.335,294.7446 35.444,298.6216 40.089,299.7296 C36.66,300.1696 33.885,302.2926 33.29,305.2976 C32.504,309.2706 35.822,313.2746 40.703,314.2406 L155.087,336.8856 C159.967,337.8516 164.561,335.4146 165.348,331.4416 C166.111,327.5856 163.002,323.7096 158.357,322.6006 Z" id="Stroke-55" stroke="#F65759" stroke-width="4" stroke-linecap="round" stroke-linejoin="round"></path>
                <path d="M140.2587,318.5239 C140.4517,319.9559 139.4487,321.2729 138.0167,321.4659 C136.5857,321.6599 135.2677,320.6559 135.0747,319.2239 C134.8817,317.7929 135.8847,316.4759 137.3167,316.2819 C138.7477,316.0889 140.0657,317.0919 140.2587,318.5239" id="Fill-57" fill="#F65759"></path>
                <g id="Group-62" transform="translate(41.000000, 299.097000)">
                    <path d="M0.9983,0.9866 L84.6713,17.1616" id="Fill-59" fill="#FFDDDD"></path>
                    <path d="M0.9983,0.9866 L84.6713,17.1616" id="Stroke-61" stroke="#F65759" stroke-width="4" stroke-linecap="round" stroke-linejoin="round"></path>
                </g>
                <g id="Group-66" transform="translate(149.000000, 320.097000)">
                    <path d="M0.698,0.8253 L12.828,3.1703" id="Fill-63" fill="#FFDDDD"></path>
                    <path d="M0.698,0.8253 L12.828,3.1703" id="Stroke-65" stroke="#F65759" stroke-width="4" stroke-linecap="round" stroke-linejoin="round"></path>
                </g>
                <path d="M0,243.6905 L22.397,243.6905" id="Stroke-67" stroke="#F65759" stroke-width="4" stroke-linecap="round" stroke-linejoin="round"></path>
                <path d="M11.1984,232.492 L11.1984,254.889" id="Stroke-69" stroke="#F65759" stroke-width="4" stroke-linecap="round" stroke-linejoin="round"></path>
                <path d="M344.3987,48.7412 L375.0217,48.7412" id="Stroke-71" stroke="#F65759" stroke-width="4" stroke-linecap="round" stroke-linejoin="round"></path>
                <path d="M359.7101,33.4298 L359.7101,64.0528" id="Stroke-73" stroke="#F65759" stroke-width="4" stroke-linecap="round" stroke-linejoin="round"></path>
            </g>
        </g>
    </g>
</svg>