<?xml version="1.0" encoding="UTF-8"?>
<svg width="402px" height="341px" viewBox="0 0 402 341" version="1.1" xmlns="http://www.w3.org/2000/svg" xmlns:xlink="http://www.w3.org/1999/xlink">
    <!-- Generator: Sketch 43.1 (39012) - http://www.bohemiancoding.com/sketch -->
    <title>视频添加</title>
    <desc>Created with Sketch.</desc>
    <defs>
        <polygon id="path-1" points="0.9616 0.909 78.8156 0.909 78.8156 11.2807 0.9616 11.2807 0.9616 0.909"></polygon>
    </defs>
    <g id="Page-1" stroke="none" stroke-width="1" fill="none" fill-rule="evenodd">
        <g id="icon页面" transform="translate(-1501.000000, -885.000000)">
            <g id="视频添加" transform="translate(1503.000000, 884.000000)">
                <path d="M71.5123,310.5087 L48.5123,310.5087 L48.5123,298.2657 C48.5123,292.7657 53.0123,288.2657 58.5123,288.2657 L61.5123,288.2657 C67.0123,288.2657 71.5123,292.7657 71.5123,298.2657 L71.5123,310.5087 Z" id="Fill-1" fill="#FFE2E2"></path>
                <path d="M71.5123,310.5087 L48.5123,310.5087 L48.5123,298.2657 C48.5123,292.7657 53.0123,288.2657 58.5123,288.2657 L61.5123,288.2657 C67.0123,288.2657 71.5123,292.7657 71.5123,298.2657 L71.5123,310.5087 Z" id="Stroke-3" stroke="#FF6666" stroke-width="4"></path>
                <path d="M232.0697,310.5087 L209.0697,310.5087 L209.0697,298.2657 C209.0697,292.7657 213.5697,288.2657 219.0697,288.2657 L222.0697,288.2657 C227.5697,288.2657 232.0697,292.7657 232.0697,298.2657 L232.0697,310.5087 Z" id="Fill-5" fill="#FFE2E2"></path>
                <path d="M232.0697,310.5087 L209.0697,310.5087 L209.0697,298.2657 C209.0697,292.7657 213.5697,288.2657 219.0697,288.2657 L222.0697,288.2657 C227.5697,288.2657 232.0697,292.7657 232.0697,298.2657 L232.0697,310.5087 Z" id="Stroke-7" stroke="#FF6666" stroke-width="4"></path>
                <path d="M355.4667,275.4936 L303.4877,275.4936 C302.6487,275.3386 302.0127,274.6066 302.0127,273.7226 C302.0127,272.7886 302.7257,272.0286 303.6357,271.9376 L312.2477,271.9376 C315.1117,271.9376 317.4337,269.6156 317.4337,266.7516 C317.4337,263.8866 315.1117,261.5646 312.2477,261.5646 L257.1307,261.5646 C254.2657,261.5646 251.9437,263.8866 251.9437,266.7516 C251.9437,269.6156 254.2657,271.9376 257.1307,271.9376 L290.5587,271.9376 C291.4687,272.0286 292.1817,272.7886 292.1817,273.7226 C292.1817,274.6066 291.5457,275.3386 290.7067,275.4936 L287.9847,275.4936 C285.1207,275.4936 282.7987,277.8156 282.7987,280.6796 C282.7987,283.5436 285.1207,285.8656 287.9847,285.8656 L355.4667,285.8656 C358.3307,285.8656 360.6527,283.5436 360.6527,280.6796 C360.6527,277.8156 358.3307,275.4936 355.4667,275.4936" id="Fill-9" fill="#FFE2E2"></path>
                <path d="M200.1682,109.831 C200.1642,115.331 195.6602,119.831 190.1602,119.831 L91.9802,119.831 C86.4802,119.831 81.9802,115.331 81.9802,109.831 L81.9802,50.087 C81.9802,44.587 86.4802,40.087 91.9802,40.087 L190.2212,40.087 C195.7212,40.087 200.2172,44.587 200.2132,50.087 L200.1682,109.831 Z" id="Fill-11" fill="#FFE2E2"></path>
                <path d="M200.1682,208.0539 C200.1642,213.5539 195.6602,218.0539 190.1602,218.0539 L91.9802,218.0539 C86.4802,218.0539 81.9802,213.5539 81.9802,208.0539 L81.9802,148.3099 C81.9802,142.8099 86.4802,138.3099 91.9802,138.3099 L190.2212,138.3099 C195.7212,138.3099 200.2172,142.8099 200.2132,148.3099 L200.1682,208.0539 Z" id="Fill-13" fill="#FFE2E2"></path>
                <path d="M200.1691,301.5087 C200.1641,307.0087 195.6611,311.5087 190.1611,311.5087 L91.9801,311.5087 C86.4801,311.5087 81.9801,307.0087 81.9801,301.5087 L81.9801,250.1667 C81.9801,244.6667 86.4801,240.1667 91.9801,240.1667 L190.2211,240.1667 C195.7211,240.1667 200.2171,244.6667 200.2121,250.1667 L200.1691,301.5087 Z" id="Fill-15" fill="#FFE2E2"></path>
                <path d="M257.2585,20.2346 L254.5365,20.2346 C251.6725,20.2346 249.3505,22.5566 249.3505,25.4206 C249.3505,28.2846 251.6725,30.6066 254.5365,30.6066 L322.0185,30.6066 C324.8825,30.6066 327.2045,28.2846 327.2045,25.4206 C327.2045,22.5566 324.8825,20.2346 322.0185,20.2346 L270.0385,20.2346" id="Fill-17" fill="#FFE2E2"></path>
                <g id="Group-21" transform="translate(177.000000, 0.091000)">
                    <mask id="mask-2" fill="white">
                        <use xlink:href="#path-1"></use>
                    </mask>
                    <g id="Clip-20"></g>
                    <path d="M8.8696,0.9087 L6.1476,0.9087 C3.2836,0.9087 0.9616,3.2307 0.9616,6.0947 C0.9616,8.9587 3.2836,11.2807 6.1476,11.2807 L73.6296,11.2807 C76.4936,11.2807 78.8156,8.9587 78.8156,6.0947 C78.8156,3.2307 76.4936,0.9087 73.6296,0.9087 L21.6496,0.9087" id="Fill-19" fill="#FFE2E2" mask="url(#mask-2)"></path>
                </g>
                <path d="M12.2752,289.2653 C12.2752,292.6553 9.5272,295.4033 6.1372,295.4033 C2.7482,295.4033 0.0002,292.6553 0.0002,289.2653 C0.0002,285.8753 2.7482,283.1273 6.1372,283.1273 C9.5272,283.1273 12.2752,285.8753 12.2752,289.2653" id="Fill-22" fill="#FFE2E2"></path>
                <path d="M12.2752,289.2653 C12.2752,292.6553 9.5272,295.4033 6.1372,295.4033 C2.7482,295.4033 0.0002,292.6553 0.0002,289.2653 C0.0002,285.8753 2.7482,283.1273 6.1372,283.1273 C9.5272,283.1273 12.2752,285.8753 12.2752,289.2653 Z" id="Stroke-24" stroke="#F65759" stroke-width="4"></path>
                <path d="M92.0643,329.2939 C92.0643,332.3069 89.6213,334.7499 86.6083,334.7499 C83.5953,334.7499 81.1533,332.3069 81.1533,329.2939 C81.1533,326.2809 83.5953,323.8379 86.6083,323.8379 C89.6213,323.8379 92.0643,326.2809 92.0643,329.2939" id="Fill-26" fill="#F65759"></path>
                <polygon id="Fill-28" fill="#F65759" points="41.5909 329.2939 34.7799 341.0909 27.9689 329.2939"></polygon>
                <path d="M367.6889,145.4782 C367.6889,148.8682 364.9409,151.6162 361.5509,151.6162 C358.1619,151.6162 355.4139,148.8682 355.4139,145.4782 C355.4139,142.0882 358.1619,139.3402 361.5509,139.3402 C364.9409,139.3402 367.6889,142.0882 367.6889,145.4782" id="Fill-30" fill="#FFE2E2"></path>
                <path d="M367.6889,145.4782 C367.6889,148.8682 364.9409,151.6162 361.5509,151.6162 C358.1619,151.6162 355.4139,148.8682 355.4139,145.4782 C355.4139,142.0882 358.1619,139.3402 361.5509,139.3402 C364.9409,139.3402 367.6889,142.0882 367.6889,145.4782 Z" id="Stroke-32" stroke="#F65759" stroke-width="4"></path>
                <path d="M339.8556,179.7735 C339.8556,182.0585 338.0036,183.9115 335.7176,183.9115 C333.4326,183.9115 331.5806,182.0585 331.5806,179.7735 C331.5806,177.4885 333.4326,175.6355 335.7176,175.6355 C338.0036,175.6355 339.8556,177.4885 339.8556,179.7735" id="Fill-34" fill="#FFE2E2"></path>
                <path d="M339.8556,179.7735 C339.8556,182.0585 338.0036,183.9115 335.7176,183.9115 C333.4326,183.9115 331.5806,182.0585 331.5806,179.7735 C331.5806,177.4885 333.4326,175.6355 335.7176,175.6355 C338.0036,175.6355 339.8556,177.4885 339.8556,179.7735 Z" id="Stroke-36" stroke="#F65759" stroke-width="4"></path>
                <path d="M280.3429,234.7115 C280.3429,237.7245 277.8999,240.1675 274.8869,240.1675 C271.8739,240.1675 269.4319,237.7245 269.4319,234.7115 C269.4319,231.6985 271.8739,229.2555 274.8869,229.2555 C277.8999,229.2555 280.3429,231.6985 280.3429,234.7115" id="Fill-38" fill="#F65759"></path>
                <path d="M354.0497,87.323 C354.0497,90.336 351.6067,92.779 348.5937,92.779 C345.5807,92.779 343.1387,90.336 343.1387,87.323 C343.1387,84.31 345.5807,81.867 348.5937,81.867 C351.6067,81.867 354.0497,84.31 354.0497,87.323" id="Fill-40" fill="#F65759"></path>
                <path d="M385.468,199.5336 C385.468,202.5466 383.025,204.9896 380.012,204.9896 C376.999,204.9896 374.557,202.5466 374.557,199.5336 C374.557,196.5206 376.999,194.0776 380.012,194.0776 C383.025,194.0776 385.468,196.5206 385.468,199.5336" id="Fill-42" fill="#F65759"></path>
                <polygon id="Fill-44" fill="#F65759" points="331.8684 199.5336 343.6654 206.3446 331.8684 213.1556"></polygon>
                <polygon id="Fill-46" fill="#F65759" points="332.8855 50.4589 321.0885 43.6479 332.8855 36.8369"></polygon>
                <path d="M384.2832,107.0801 L397.9222,107.0801" id="Stroke-48" stroke="#F65759" stroke-width="4" stroke-linecap="round"></path>
                <path d="M391.1028,100.2605 L391.1028,113.8995" id="Stroke-50" stroke="#F65759" stroke-width="4" stroke-linecap="round"></path>
                <path d="M200.1768,122.6069 C200.1738,128.1069 195.6718,132.6069 190.1718,132.6069 L96.6088,132.6069 C91.1088,132.6069 86.6088,128.1069 86.6088,122.6069 L86.6088,67.0469 C86.6088,61.5469 91.1088,57.0469 96.6088,57.0469 L190.2068,57.0469 C195.7068,57.0469 200.2048,61.5469 200.2018,67.0469 L200.1768,122.6069 Z" id="Fill-52" fill="#FFFFFF"></path>
                <path d="M205.6325,221.8577 C205.6295,227.3577 201.1275,231.8577 195.6275,231.8577 L102.0645,231.8577 C96.5645,231.8577 92.0645,227.3577 92.0645,221.8577 L92.0645,166.2977 C92.0645,160.7977 96.5645,156.2977 102.0645,156.2977 L195.6625,156.2977 C201.1625,156.2977 205.6605,160.7977 205.6575,166.2977 L205.6325,221.8577 Z" id="Fill-54" fill="#FFFFFF"></path>
                <path d="M205.6325,313.6457 C205.6295,319.1457 201.1275,323.6457 195.6275,323.6457 L102.0645,323.6457 C96.5645,323.6457 92.0645,319.1457 92.0645,313.6457 L92.0645,258.0857 C92.0645,252.5857 96.5645,248.0857 102.0645,248.0857 L195.6625,248.0857 C201.1625,248.0857 205.6605,252.5857 205.6575,258.0857 L205.6325,313.6457 Z" id="Fill-56" fill="#FFFFFF"></path>
                <path d="M240.0049,301.5088 C240.0049,307.0088 235.5049,311.5088 230.0049,311.5088 L48.1959,311.5088 C42.6959,311.5088 38.1959,307.0088 38.1959,301.5088 L38.1959,40.6068 C38.1959,35.1068 42.6959,30.6068 48.1959,30.6068 L230.0049,30.6068 C235.5049,30.6068 240.0049,35.1068 240.0049,40.6068 L240.0049,301.5088 Z" id="Stroke-58" stroke="#F65759" stroke-width="4"></path>
                <path d="M71.5123,74.7679 C71.5123,80.2679 67.0123,84.7679 61.5123,84.7679 L58.5123,84.7679 C53.0123,84.7679 48.5123,80.2679 48.5123,74.7679 L48.5123,51.5099 C48.5123,46.0099 53.0123,41.5099 58.5123,41.5099 L61.5123,41.5099 C67.0123,41.5099 71.5123,46.0099 71.5123,51.5099 L71.5123,74.7679 Z" id="Fill-60" fill="#FFE2E2"></path>
                <path d="M71.5123,74.7679 C71.5123,80.2679 67.0123,84.7679 61.5123,84.7679 L58.5123,84.7679 C53.0123,84.7679 48.5123,80.2679 48.5123,74.7679 L48.5123,51.5099 C48.5123,46.0099 53.0123,41.5099 58.5123,41.5099 L61.5123,41.5099 C67.0123,41.5099 71.5123,46.0099 71.5123,51.5099 L71.5123,74.7679 Z" id="Stroke-62" stroke="#FF6666" stroke-width="4"></path>
                <path d="M71.5123,138.5523 C71.5123,144.0523 67.0123,148.5523 61.5123,148.5523 L58.5123,148.5523 C53.0123,148.5523 48.5123,144.0523 48.5123,138.5523 L48.5123,115.2943 C48.5123,109.7943 53.0123,105.2943 58.5123,105.2943 L61.5123,105.2943 C67.0123,105.2943 71.5123,109.7943 71.5123,115.2943 L71.5123,138.5523 Z" id="Fill-64" fill="#FFE2E2"></path>
                <path d="M71.5123,138.5523 C71.5123,144.0523 67.0123,148.5523 61.5123,148.5523 L58.5123,148.5523 C53.0123,148.5523 48.5123,144.0523 48.5123,138.5523 L48.5123,115.2943 C48.5123,109.7943 53.0123,105.2943 58.5123,105.2943 L61.5123,105.2943 C67.0123,105.2943 71.5123,109.7943 71.5123,115.2943 L71.5123,138.5523 Z" id="Stroke-66" stroke="#FF6666" stroke-width="4"></path>
                <path d="M71.5123,201.809 C71.5123,207.309 67.0123,211.809 61.5123,211.809 L58.5123,211.809 C53.0123,211.809 48.5123,207.309 48.5123,201.809 L48.5123,178.551 C48.5123,173.051 53.0123,168.551 58.5123,168.551 L61.5123,168.551 C67.0123,168.551 71.5123,173.051 71.5123,178.551 L71.5123,201.809 Z" id="Fill-68" fill="#FFE2E2"></path>
                <path d="M71.5123,201.809 C71.5123,207.309 67.0123,211.809 61.5123,211.809 L58.5123,211.809 C53.0123,211.809 48.5123,207.309 48.5123,201.809 L48.5123,178.551 C48.5123,173.051 53.0123,168.551 58.5123,168.551 L61.5123,168.551 C67.0123,168.551 71.5123,173.051 71.5123,178.551 L71.5123,201.809 Z" id="Stroke-70" stroke="#FF6666" stroke-width="4"></path>
                <path d="M71.5123,265.1156 C71.5123,270.6156 67.0123,275.1156 61.5123,275.1156 L58.5123,275.1156 C53.0123,275.1156 48.5123,270.6156 48.5123,265.1156 L48.5123,241.8576 C48.5123,236.3576 53.0123,231.8576 58.5123,231.8576 L61.5123,231.8576 C67.0123,231.8576 71.5123,236.3576 71.5123,241.8576 L71.5123,265.1156 Z" id="Fill-72" fill="#FFE2E2"></path>
                <path d="M71.5123,265.1156 C71.5123,270.6156 67.0123,275.1156 61.5123,275.1156 L58.5123,275.1156 C53.0123,275.1156 48.5123,270.6156 48.5123,265.1156 L48.5123,241.8576 C48.5123,236.3576 53.0123,231.8576 58.5123,231.8576 L61.5123,231.8576 C67.0123,231.8576 71.5123,236.3576 71.5123,241.8576 L71.5123,265.1156 Z" id="Stroke-74" stroke="#FF6666" stroke-width="4"></path>
                <path d="M232.0697,261.1082 C232.0697,266.6082 227.5697,271.1082 222.0697,271.1082 L219.0697,271.1082 C213.5697,271.1082 209.0697,266.6082 209.0697,261.1082 L209.0697,238.8502 C209.0697,233.3502 213.5697,228.8502 219.0697,228.8502 L222.0697,228.8502 C227.5697,228.8502 232.0697,233.3502 232.0697,238.8502 L232.0697,261.1082 Z" id="Fill-76" fill="#FFE2E2"></path>
                <path d="M232.0697,261.1082 C232.0697,266.6082 227.5697,271.1082 222.0697,271.1082 L219.0697,271.1082 C213.5697,271.1082 209.0697,266.6082 209.0697,261.1082 L209.0697,238.8502 C209.0697,233.3502 213.5697,228.8502 219.0697,228.8502 L222.0697,228.8502 C227.5697,228.8502 232.0697,233.3502 232.0697,238.8502 L232.0697,261.1082 Z" id="Stroke-78" stroke="#FF6666" stroke-width="4"></path>
                <path d="M311.4738,60.5655 C346.5308,95.6225 346.5308,152.4625 311.4738,187.5195 C276.4168,222.5775 219.5768,222.5775 184.5198,187.5195 C149.4618,152.4625 149.4618,95.6225 184.5198,60.5655 C219.5768,25.5085 276.4168,25.5085 311.4738,60.5655" id="Fill-80" fill="#FFFFFF"></path>
                <path d="M311.4738,60.5655 C346.5308,95.6225 346.5308,152.4625 311.4738,187.5195 C276.4168,222.5775 219.5768,222.5775 184.5198,187.5195 C149.4618,152.4625 149.4618,95.6225 184.5198,60.5655 C219.5768,25.5085 276.4168,25.5085 311.4738,60.5655 Z" id="Stroke-82" stroke="#F65759" stroke-width="4" stroke-linecap="round" stroke-linejoin="round"></path>
                <path d="M297.5191,74.5203 C324.8691,101.8703 324.8691,146.2143 297.5191,173.5653 C270.1691,200.9153 225.8251,200.9153 198.4741,173.5653 C171.1241,146.2143 171.1241,101.8703 198.4741,74.5203 C225.8251,47.1703 270.1691,47.1703 297.5191,74.5203" id="Fill-84" fill="#FFE2E2"></path>
                <path d="M187.7233,138.509 C187.7233,99.83 219.0793,68.474 257.7583,68.474 C278.8013,68.474 297.6623,77.767 310.5003,92.458 C298.9513,69.651 275.3083,54.007 247.9963,54.007 C209.3173,54.007 177.9613,85.363 177.9613,124.043 C177.9613,141.679 184.4953,157.781 195.2553,170.094 C190.4483,160.601 187.7233,149.877 187.7233,138.509" id="Fill-86" fill="#FFE2E2"></path>
                <path d="M288.2773,87.0796 C291.1343,90.1946 293.6363,93.6406 295.7163,97.3556" id="Stroke-88" stroke="#FFFFFF" stroke-width="5" stroke-linecap="round"></path>
                <path d="M223.5452,75.0926 C230.8962,71.4186 239.1902,69.3506 247.9662,69.3506 C260.0822,69.3506 271.2782,73.2906 280.3432,79.9596" id="Stroke-90" stroke="#FFFFFF" stroke-width="5" stroke-linecap="round"></path>
                <path d="M206.3189,88.5914 C208.7119,85.7834 211.3839,83.2194 214.2919,80.9444" id="Stroke-92" stroke="#FFFFFF" stroke-width="5" stroke-linecap="round"></path>
                <path d="M297.5191,74.5203 C324.8691,101.8703 324.8691,146.2143 297.5191,173.5653 C270.1691,200.9153 225.8251,200.9153 198.4741,173.5653 C171.1241,146.2143 171.1241,101.8703 198.4741,74.5203 C225.8251,47.1703 270.1691,47.1703 297.5191,74.5203 Z" id="Stroke-94" stroke="#F65759" stroke-width="4" stroke-linecap="round" stroke-linejoin="round"></path>
                <polygon id="Fill-96" fill="#F65759" points="230.0209 88.8322 291.9969 123.8602 230.0209 165.0142"></polygon>
            </g>
        </g>
    </g>
</svg>