<?xml version="1.0" encoding="UTF-8"?>
<svg width="299px" height="252px" viewBox="0 0 299 252" version="1.1" xmlns="http://www.w3.org/2000/svg" xmlns:xlink="http://www.w3.org/1999/xlink">
    <!-- Generator: Sketch 46 (44423) - http://www.bohemiancoding.com/sketch -->
    <title>视频添加</title>
    <desc>Created with Sketch.</desc>
    <defs></defs>
    <g id="Page-1" stroke="none" stroke-width="1" fill="none" fill-rule="evenodd" opacity="0.144078351">
        <g id="内容发布审阅-本地上传中" transform="translate(-810.000000, -422.000000)">
            <g id="弹框" transform="translate(360.000000, 270.000000)">
                <g id="视频添加" transform="translate(452.000000, 152.000000)">
                    <g id="Group" transform="translate(35.878958, 212.442872)">
                        <path d="M17.2600877,16.4726722 L0.255075188,16.4726722 L0.255075188,7.42505929 C0.255075188,3.36054316 3.58214286,0.0350299673 7.6485589,0.0350299673 L9.86660401,0.0350299673 C13.9330201,0.0350299673 17.2600877,3.36054316 17.2600877,7.42505929 L17.2600877,16.4726722 Z" id="Shape" fill="#FFE2E2" fill-rule="nonzero"></path>
                        <path d="M17.2600877,16.4726722 L0.255075188,16.4726722 L0.255075188,7.42505929 C0.255075188,3.36054316 3.58214286,0.0350299673 7.6485589,0.0350299673 L9.86660401,0.0350299673 C13.9330201,0.0350299673 17.2600877,3.36054316 17.2600877,7.42505929 L17.2600877,16.4726722 Z" id="Shape" stroke="#FF6666" stroke-width="4"></path>
                    </g>
                    <g id="Group" transform="translate(154.523810, 212.442872)">
                        <path d="M17.3235317,16.4726722 L0.318519153,16.4726722 L0.318519153,7.42505929 C0.318519153,3.36054316 3.64558682,0.0350299673 7.71200286,0.0350299673 L9.93004797,0.0350299673 C13.996464,0.0350299673 17.3235317,3.36054316 17.3235317,7.42505929 L17.3235317,16.4726722 Z" id="Shape" fill="#FFE2E2" fill-rule="nonzero"></path>
                        <path d="M17.3235317,16.4726722 L0.318519153,16.4726722 L0.318519153,7.42505929 C0.318519153,3.36054316 3.64558682,0.0350299673 7.71200286,0.0350299673 L9.93004797,0.0350299673 C13.996464,0.0350299673 17.3235317,3.36054316 17.3235317,7.42505929 L17.3235317,16.4726722 Z" id="Shape" stroke="#FF6666" stroke-width="4"></path>
                    </g>
                    <path d="M263.080712,203.039357 L224.650123,203.039357 C224.02981,202.924811 223.559584,202.383861 223.559584,201.730582 C223.559584,201.039615 224.08674,200.478711 224.760286,200.410723 L231.127554,200.410723 C233.245048,200.410723 234.961815,198.694758 234.961815,196.578254 C234.961815,194.46175 233.245048,192.745785 231.127554,192.745785 L190.37689,192.745785 C188.259396,192.745785 186.542629,194.46175 186.542629,196.578254 C186.542629,198.694758 188.259396,200.410723 190.37689,200.410723 L215.091827,200.410723 C215.764634,200.478711 216.292529,201.039615 216.292529,201.730582 C216.292529,202.383861 215.822304,202.924811 215.20199,203.039357 L213.189484,203.039357 C211.07199,203.039357 209.355223,204.755321 209.355223,206.871826 C209.355223,208.98833 211.07199,210.704295 213.189484,210.704295 L263.082191,210.704295 C265.199685,210.704295 266.916451,208.98833 266.916451,206.871826 C266.916451,204.755321 265.198206,203.039357 263.080712,203.039357 Z" id="Shape" fill="#FFE2E2" fill-rule="nonzero"></path>
                    <path d="M148.260649,80.6139138 C148.257692,84.6784299 144.927667,88.0039431 140.861251,88.0039431 L68.2712886,88.0039431 C64.2048725,88.0039431 60.8778049,84.6784299 60.8778049,80.6139138 L60.8778049,36.4629226 C60.8778049,32.3984065 64.2048725,29.0728933 68.2712886,29.0728933 L140.905612,29.0728933 C144.972028,29.0728933 148.296878,32.3984065 148.293181,36.4629226 L148.260649,80.6139138 Z" id="Shape" fill="#FFE2E2" fill-rule="nonzero"></path>
                    <path d="M148.260649,153.200999 C148.257692,157.265515 144.927667,160.591028 140.861251,160.591028 L68.2712886,160.591028 C64.2048725,160.591028 60.8778049,157.265515 60.8778049,153.200999 L60.8778049,109.050008 C60.8778049,104.985492 64.2048725,101.659978 68.2712886,101.659978 L140.905612,101.659978 C144.972028,101.659978 148.296878,104.985492 148.293181,109.050008 L148.260649,153.200999 Z" id="Shape" fill="#FFE2E2" fill-rule="nonzero"></path>
                    <path d="M148.261389,222.264518 C148.257692,226.329034 144.927667,229.654547 140.861251,229.654547 L68.2712886,229.654547 C64.2048725,229.654547 60.8778049,226.329034 60.8778049,222.264518 L60.8778049,184.322629 C60.8778049,180.258113 64.2048725,176.9326 68.2712886,176.9326 L140.905612,176.9326 C144.972028,176.9326 148.296138,180.258113 148.292441,184.322629 L148.261389,222.264518 Z" id="Shape" fill="#FFE2E2" fill-rule="nonzero"></path>
                    <path d="M190.470787,14.4022071 L188.458281,14.4022071 C186.340787,14.4022071 184.62402,16.1181719 184.62402,18.2346763 C184.62402,20.3511807 186.340787,22.0671455 188.458281,22.0671455 L238.350988,22.0671455 C240.468482,22.0671455 242.185248,20.3511807 242.185248,18.2346763 C242.185248,16.1181719 240.468482,14.4022071 238.350988,14.4022071 L199.920399,14.4022071" id="Shape" fill="#FFE2E2" fill-rule="nonzero"></path>
                    <path d="M137.689446,0.187485658 L135.67694,0.187485658 C133.559446,0.187485658 131.84268,1.90345047 131.84268,4.01995487 C131.84268,6.13645927 133.559446,7.85242407 135.67694,7.85242407 L185.569647,7.85242407 C187.687141,7.85242407 189.403908,6.13645927 189.403908,4.01995487 C189.403908,1.90345047 187.687141,0.187485658 185.569647,0.187485658 L147.139058,0.187485658" id="Shape" fill="#FFE2E2" fill-rule="nonzero"></path>
                    <g id="Group" transform="translate(0.000000, 208.398827)" fill-rule="nonzero">
                        <ellipse id="Oval" stroke="#F55759" stroke-width="4" fill="#FFE2E2" cx="4.80488507" cy="4.81807803" rx="4.5381203" ry="4.536"></ellipse>
                        <ellipse id="Oval" fill="#F55759" cx="64.3009878" cy="34.3988874" rx="4.03388471" ry="4.032"></ellipse>
                        <polygon id="Shape" fill="#F55759" points="31.0170029 34.3988874 25.9813011 43.116905 20.9455994 34.3988874"></polygon>
                    </g>
                    <g id="Group" transform="translate(199.274948, 26.604106)">
                        <g fill-rule="nonzero">
                            <ellipse id="Oval" stroke="#F55759" stroke-width="4" fill="#FFE2E2" cx="68.3039599" cy="80.3537848" rx="4.5381203" ry="4.536"></ellipse>
                            <ellipse id="Oval" stroke="#F55759" stroke-width="4" fill="#FFE2E2" cx="49.2043734" cy="105.69789" rx="3.05942356" ry="3.05799413"></ellipse>
                            <ellipse id="Oval" fill="#F55759" cx="4.22907268" cy="146.297233" rx="4.03388471" ry="4.032"></ellipse>
                            <ellipse id="Oval" fill="#F55759" cx="58.7242231" cy="37.3763302" rx="4.03388471" ry="4.032"></ellipse>
                            <ellipse id="Oval" fill="#F55759" cx="81.9530702" cy="120.300588" rx="4.03388471" ry="4.032"></ellipse>
                            <polygon id="Shape" fill="#F55759" points="46.3578822 120.300588 55.0807143 125.333937 46.3578822 130.367286"></polygon>
                            <polygon id="Shape" fill="#F55759" points="47.1105388 10.1337261 38.3877068 5.10037715 47.1105388 0.0670281801"></polygon>
                        </g>
                        <g transform="translate(85.025063, 46.906215)" id="Shape" stroke="#F55759" stroke-width="4" stroke-linecap="round">
                            <path d="M0.085764411,5.07133495 L10.1697368,5.07133495"></path>
                            <path d="M5.1281203,0.0313349526 L5.1281203,10.1105959"></path>
                        </g>
                    </g>
                    <g id="Group" opacity="0.5" transform="translate(63.974196, 41.384164)" fill-rule="nonzero" fill="#FFFFFF">
                        <path d="M84.2931078,48.6712511 C84.2916291,52.7357672 80.9630827,56.0612804 76.8966667,56.0612804 L7.72027569,56.0612804 C3.65385965,56.0612804 0.32679198,52.7357672 0.32679198,48.6712511 L0.32679198,7.61224812 C0.32679198,3.54773199 3.65385965,0.222218796 7.72027569,0.222218796 L76.9218045,0.222218796 C80.9882206,0.222218796 84.3138095,3.54773199 84.3115915,7.61224812 L84.2931078,48.6712511 Z" id="Shape"></path>
                    </g>
                    <g id="Group" opacity="0.5" transform="translate(68.020050, 114.935427)" fill-rule="nonzero" fill="#FFFFFF">
                        <path d="M84.2811382,48.4667683 C84.2796595,52.5312845 80.9503738,55.8567977 76.8839577,55.8567977 L7.70830612,55.8567977 C3.64189008,55.8567977 0.314822411,52.5312845 0.314822411,48.4667683 L0.314822411,7.4077654 C0.314822411,3.34324927 3.64189008,0.0177360704 7.70830612,0.0177360704 L76.9098349,0.0177360704 C80.976251,0.0177360704 84.30184,3.34324927 84.3003613,7.4077654 L84.2811382,48.4667683 Z" id="Shape"></path>
                    </g>
                    <g id="Group" opacity="0.5" transform="translate(68.020050, 182.533724)" fill-rule="nonzero" fill="#FFFFFF">
                        <path d="M84.2811382,48.7000722 C84.2796595,52.7645883 80.9503738,56.0901015 76.8839577,56.0901015 L7.70830612,56.0901015 C3.64189008,56.0901015 0.314822411,52.7645883 0.314822411,48.7000722 L0.314822411,7.64106924 C0.314822411,3.57655311 3.64189008,0.25103991 7.70830612,0.25103991 L76.9098349,0.25103991 C80.976251,0.25103991 84.30184,3.57655311 84.3003613,7.64106924 L84.2811382,48.7000722 Z" id="Shape"></path>
                    </g>
                    <path d="M177.714071,222.264518 C177.714071,226.329034 174.387003,229.654547 170.320587,229.654547 L35.9003989,229.654547 C31.8339828,229.654547 28.5069151,226.329034 28.5069151,222.264518 L28.5069151,29.4571748 C28.5069151,25.3926587 31.8339828,22.0671455 35.9003989,22.0671455 L170.320587,22.0671455 C174.387003,22.0671455 177.714071,25.3926587 177.714071,29.4571748 L177.714071,222.264518 Z" id="Shape" stroke="#F55759" stroke-width="4"></path>
                    <g id="Group" transform="translate(35.878958, 29.950090)">
                        <path d="M17.2600877,24.7521642 C17.2600877,28.8166804 13.9330201,32.1421935 9.86660401,32.1421935 L7.6485589,32.1421935 C3.58214286,32.1421935 0.255075188,28.8166804 0.255075188,24.7521642 L0.255075188,7.56443402 C0.255075188,3.49991789 3.58214286,0.174404692 7.6485589,0.174404692 L9.86660401,0.174404692 C13.9330201,0.174404692 17.2600877,3.49991789 17.2600877,7.56443402 L17.2600877,24.7521642 Z" id="Shape" fill="#FFE2E2" fill-rule="nonzero"></path>
                        <path d="M17.2600877,24.7521642 C17.2600877,28.8166804 13.9330201,32.1421935 9.86660401,32.1421935 L7.6485589,32.1421935 C3.58214286,32.1421935 0.255075188,28.8166804 0.255075188,24.7521642 L0.255075188,7.56443402 C0.255075188,3.49991789 3.58214286,0.174404692 7.6485589,0.174404692 L9.86660401,0.174404692 C13.9330201,0.174404692 17.2600877,3.49991789 17.2600877,7.56443402 L17.2600877,24.7521642 Z" id="Shape" stroke="#FF6666" stroke-width="4"></path>
                    </g>
                    <g id="Group" transform="translate(35.878958, 77.246277)">
                        <path d="M17.2600877,24.5932786 C17.2600877,28.6577947 13.9330201,31.9833079 9.86660401,31.9833079 L7.6485589,31.9833079 C3.58214286,31.9833079 0.255075188,28.6577947 0.255075188,24.5932786 L0.255075188,7.40554839 C0.255075188,3.34103226 3.58214286,0.0155190616 7.6485589,0.0155190616 L9.86660401,0.0155190616 C13.9330201,0.0155190616 17.2600877,3.34103226 17.2600877,7.40554839 L17.2600877,24.5932786 Z" id="Shape" fill="#FFE2E2" fill-rule="nonzero"></path>
                        <path d="M17.2600877,24.5932786 C17.2600877,28.6577947 13.9330201,31.9833079 9.86660401,31.9833079 L7.6485589,31.9833079 C3.58214286,31.9833079 0.255075188,28.6577947 0.255075188,24.5932786 L0.255075188,7.40554839 C0.255075188,3.34103226 3.58214286,0.0155190616 7.6485589,0.0155190616 L9.86660401,0.0155190616 C13.9330201,0.0155190616 17.2600877,3.34103226 17.2600877,7.40554839 L17.2600877,24.5932786 Z" id="Shape" stroke="#FF6666" stroke-width="4"></path>
                    </g>
                    <g id="Group" transform="translate(35.878958, 123.803462)">
                        <path d="M17.2600877,24.7824633 C17.2600877,28.8469795 13.9330201,32.1724927 9.86660401,32.1724927 L7.6485589,32.1724927 C3.58214286,32.1724927 0.255075188,28.8469795 0.255075188,24.7824633 L0.255075188,7.59473314 C0.255075188,3.53021701 3.58214286,0.204703812 7.6485589,0.204703812 L9.86660401,0.204703812 C13.9330201,0.204703812 17.2600877,3.53021701 17.2600877,7.59473314 L17.2600877,24.7824633 Z" id="Shape" fill="#FFE2E2" fill-rule="nonzero"></path>
                        <path d="M17.2600877,24.7824633 C17.2600877,28.8469795 13.9330201,32.1724927 9.86660401,32.1724927 L7.6485589,32.1724927 C3.58214286,32.1724927 0.255075188,28.8469795 0.255075188,24.7824633 L0.255075188,7.59473314 C0.255075188,3.53021701 3.58214286,0.204703812 7.6485589,0.204703812 L9.86660401,0.204703812 C13.9330201,0.204703812 17.2600877,3.53021701 17.2600877,7.59473314 L17.2600877,24.7824633 Z" id="Shape" stroke="#FF6666" stroke-width="4"></path>
                    </g>
                    <g id="Group" transform="translate(35.878958, 170.709677)">
                        <path d="M17.2600877,24.6603068 C17.2600877,28.7248229 13.9330201,32.0503361 9.86660401,32.0503361 L7.6485589,32.0503361 C3.58214286,32.0503361 0.255075188,28.7248229 0.255075188,24.6603068 L0.255075188,7.47257657 C0.255075188,3.40806044 3.58214286,0.0825472417 7.6485589,0.0825472417 L9.86660401,0.0825472417 C13.9330201,0.0825472417 17.2600877,3.40806044 17.2600877,7.47257657 L17.2600877,24.6603068 Z" id="Shape" fill="#FFE2E2" fill-rule="nonzero"></path>
                        <path d="M17.2600877,24.6603068 C17.2600877,28.7248229 13.9330201,32.0503361 9.86660401,32.0503361 L7.6485589,32.0503361 C3.58214286,32.0503361 0.255075188,28.7248229 0.255075188,24.6603068 L0.255075188,7.47257657 C0.255075188,3.40806044 3.58214286,0.0825472417 7.6485589,0.0825472417 L9.86660401,0.0825472417 C13.9330201,0.0825472417 17.2600877,3.40806044 17.2600877,7.47257657 L17.2600877,24.6603068 Z" id="Shape" stroke="#FF6666" stroke-width="4"></path>
                    </g>
                    <g id="Group" transform="translate(154.523810, 168.492669)">
                        <path d="M17.3235317,23.9161308 C17.3235317,27.9806469 13.996464,31.3061601 9.93004797,31.3061601 L7.71200286,31.3061601 C3.64558682,31.3061601 0.318519153,27.9806469 0.318519153,23.9161308 L0.318519153,7.46740355 C0.318519153,3.40288742 3.64558682,0.0773742212 7.71200286,0.0773742212 L9.93004797,0.0773742212 C13.996464,0.0773742212 17.3235317,3.40288742 17.3235317,7.46740355 L17.3235317,23.9161308 Z" id="Shape" fill="#FFE2E2" fill-rule="nonzero"></path>
                        <path d="M17.3235317,23.9161308 C17.3235317,27.9806469 13.996464,31.3061601 9.93004797,31.3061601 L7.71200286,31.3061601 C3.64558682,31.3061601 0.318519153,27.9806469 0.318519153,23.9161308 L0.318519153,7.46740355 C0.318519153,3.40288742 3.64558682,0.0773742212 7.71200286,0.0773742212 L9.93004797,0.0773742212 C13.996464,0.0773742212 17.3235317,3.40288742 17.3235317,7.46740355 L17.3235317,23.9161308 Z" id="Shape" stroke="#FF6666" stroke-width="4"></path>
                    </g>
                    <g id="Group" transform="translate(117.207279, 24.736127)">
                        <ellipse id="Oval" stroke="#F55759" stroke-width="4" fill="#FFFFFF" fill-rule="nonzero" stroke-linecap="round" stroke-linejoin="round" cx="66.4156642" cy="66.3804962" rx="66.3713033" ry="66.3402933"></ellipse>
                        <ellipse id="Oval" fill="#FFE2E2" fill-rule="nonzero" cx="66.4156642" cy="66.3804962" rx="51.7802632" ry="51.7560704"></ellipse>
                        <g transform="translate(14.396731, 14.431028)" id="Shape">
                            <path d="M7.45544898,62.6406235 C7.45544898,34.0567291 30.6384565,10.8845531 59.2357121,10.8845531 C74.7930806,10.8845531 88.7379302,17.7521074 98.2296846,28.6087994 C89.6916896,11.7543596 72.2105367,0.194136685 52.0181933,0.194136685 C23.4209377,0.194136685 0.23793018,23.3663126 0.23793018,51.9502071 C0.23793018,64.9840018 5.06883244,76.882688 13.0242209,85.9820311 C9.47091264,78.9666763 7.45544898,71.0408698 7.45544898,62.6406235 Z" fill="#FFE2E2" fill-rule="nonzero"></path>
                            <g transform="translate(21.091990, 11.475016)" stroke="#FFFFFF" stroke-width="5" stroke-linecap="round">
                                <path d="M60.7078947,13.1586862 C62.820213,15.4606804 64.6700627,18.0072845 66.2079073,20.7526804"></path>
                                <path d="M12.848396,4.30025806 C18.2833459,1.58516129 24.4155013,0.0569032258 30.9040226,0.0569032258 C39.8619674,0.0569032258 48.1397118,2.96857478 54.8411654,7.89624633"></path>
                                <path d="M0.112380952,14.2760587 C1.8816416,12.2009384 3.8564411,10.3061349 6.00646617,8.62490323"></path>
                            </g>
                        </g>
                        <ellipse id="Oval" stroke="#F55759" stroke-width="4" stroke-linecap="round" stroke-linejoin="round" cx="66.4156642" cy="66.3804962" rx="51.7802632" ry="51.7560704"></ellipse>
                    </g>
                    <polygon id="Shape" fill="#F55759" fill-rule="nonzero" points="170.332416 65.0963302 216.154271 90.981386 170.332416 121.395052"></polygon>
                </g>
            </g>
        </g>
    </g>
</svg>