<?xml version="1.0" encoding="UTF-8"?>
<svg width="400px" height="250px" viewBox="0 0 400 250" version="1.1" xmlns="http://www.w3.org/2000/svg" xmlns:xlink="http://www.w3.org/1999/xlink">
    <!-- Generator: Sketch 43.1 (39012) - http://www.bohemiancoding.com/sketch -->
    <title>没数据</title>
    <desc>Created with Sketch.</desc>
    <defs></defs>
    <g id="Page-1" stroke="none" stroke-width="1" fill="none" fill-rule="evenodd">
        <g id="icon页面" transform="translate(-337.000000, -430.000000)">
            <g id="没数据" transform="translate(338.000000, 430.000000)">
                <path d="M33.4754,155.7999 L68.8864,191.2109" id="Stroke-1" stroke="#F65759" stroke-width="2" stroke-linecap="round"></path>
                <path d="M56.1219,164.3586 L87.6509,195.8876" id="Stroke-2" stroke="#F65759" stroke-width="2" stroke-linecap="round"></path>
                <g id="Group-65" transform="translate(0.000000, 0.042000)">
                    <path d="M309.6469,54.4174 L297.5359,54.4174 C293.4579,52.2454 290.6789,47.9534 290.6789,43.0104 C290.6789,35.8744 296.4629,30.0894 303.5989,30.0894 C306.8579,30.0894 309.8269,31.3054 312.0999,33.2964 C313.1709,25.9554 319.4739,20.3124 327.1119,20.3124 C335.5019,20.3124 342.3019,27.1134 342.3019,35.5024 C342.3019,36.9504 342.0869,38.3464 341.7079,39.6724 C342.8219,39.1314 344.0669,38.8194 345.3869,38.8194 C350.0469,38.8194 353.8259,42.5984 353.8259,47.2584 C353.8259,47.6454 353.7909,48.0234 353.7399,48.3954 C355.9459,49.0694 357.5509,51.1184 357.5509,53.5444 C357.5509,53.8424 357.5199,54.1324 357.4739,54.4174 L340.9329,54.4174 L309.6469,54.4174 Z" id="Stroke-3" stroke="#F65759" stroke-width="3" stroke-linecap="round"></path>
                    <path d="M127.0738,5.3992 L190.1328,68.4582" id="Stroke-5" stroke="#F65759" stroke-width="2" stroke-linecap="round"></path>
                    <path d="M324.1147,101.481 C324.1147,152.082 283.0947,193.102 232.4937,193.102 C181.8937,193.102 140.8737,152.082 140.8737,101.481 C140.8737,50.88 181.8937,9.86 232.4937,9.86 C283.0947,9.86 324.1147,50.88 324.1147,101.481" id="Fill-7" fill="#FFE2E2"></path>
                    <path d="M161.6454,101.481 C161.6454,54.394 197.1724,15.623 242.8804,10.463 C239.4694,10.078 236.0074,9.86 232.4944,9.86 C181.8934,9.86 140.8734,50.88 140.8734,101.481 C140.8734,152.082 181.8934,193.102 232.4944,193.102 C236.0074,193.102 239.4694,192.884 242.8804,192.499 C197.1724,187.339 161.6454,148.568 161.6454,101.481" id="Fill-9" fill="#FFFFFF"></path>
                    <path d="M324.1147,101.481 C324.1147,152.082 283.0947,193.102 232.4937,193.102 C181.8937,193.102 140.8737,152.082 140.8737,101.481 C140.8737,50.88 181.8937,9.86 232.4937,9.86 C283.0947,9.86 324.1147,50.88 324.1147,101.481 Z" id="Stroke-11" stroke="#F65759" stroke-width="4"></path>
                    <path d="M196.9998,52.5209 C201.3458,56.8669 200.0538,65.2039 194.1148,71.1439 C188.1758,77.0829 179.8378,78.3749 175.4918,74.0289 C171.1458,69.6829 172.4378,61.3449 178.3768,55.4059 C184.3168,49.4669 192.6538,48.1749 196.9998,52.5209" id="Fill-13" fill="#F65759"></path>
                    <path d="M287.3746,53.8454 C289.0076,52.2124 292.1406,52.6974 294.3726,54.9294 C296.6046,57.1614 297.0896,60.2944 295.4566,61.9274 C293.8236,63.5604 290.6906,63.0754 288.4586,60.8434 C286.2266,58.6114 285.7416,55.4784 287.3746,53.8454" id="Fill-15" fill="#FFFFFF"></path>
                    <path d="M178.5272,111.5731 C183.9682,110.4441 189.5172,115.0121 190.9202,121.7761 C192.3242,128.5401 189.0502,134.9381 183.6092,136.0671 C178.1672,137.1961 172.6182,132.6281 171.2152,125.8641 C169.8122,119.1001 173.0862,112.7021 178.5272,111.5731" id="Fill-17" fill="#FFFFFF"></path>
                    <path d="M196.9998,52.5209 C201.3458,56.8669 200.0538,65.2039 194.1148,71.1439 C188.1758,77.0829 179.8378,78.3749 175.4918,74.0289 C171.1458,69.6829 172.4378,61.3449 178.3768,55.4059 C184.3168,49.4669 192.6538,48.1749 196.9998,52.5209 Z" id="Stroke-19" stroke="#F65759" stroke-width="3" stroke-linecap="round"></path>
                    <path d="M295.8563,118.3789 C304.3963,126.9189 301.8583,143.3029 290.1863,154.9749 C278.5153,166.6459 262.1313,169.1839 253.5913,160.6439 C245.0513,152.1049 247.5893,135.7199 259.2603,124.0489 C270.9323,112.3769 287.3163,109.8389 295.8563,118.3789" id="Fill-21" fill="#F65759"></path>
                    <path d="M295.8563,118.3789 C304.3963,126.9189 301.8583,143.3029 290.1863,154.9749 C278.5153,166.6459 262.1313,169.1839 253.5913,160.6439 C245.0513,152.1049 247.5893,135.7199 259.2603,124.0489 C270.9323,112.3769 287.3163,109.8389 295.8563,118.3789 Z" id="Stroke-23" stroke="#F65759" stroke-width="3" stroke-linecap="round"></path>
                    <path d="M140.8731,95.8543 C97.4511,100.4563 68.9121,108.2363 68.9121,117.0603 C68.9121,131.1953 142.1501,142.6543 232.4941,142.6543 C322.8381,142.6543 396.0761,131.1953 396.0761,117.0603 C396.0761,108.2363 367.5371,100.4563 324.1151,95.8543" id="Stroke-25" stroke="#F65759" stroke-width="4" stroke-linecap="round"></path>
                    <path d="M286.425,122.9691 C286.425,122.9691 275.91,119.3621 263.669,133.2721" id="Stroke-27" stroke="#FFFFFF" stroke-width="4" stroke-linecap="round"></path>
                    <path d="M108.7874,49.9487 C108.7874,53.9437 105.5494,57.1817 101.5544,57.1817 C97.5594,57.1817 94.3214,53.9437 94.3214,49.9487 C94.3214,45.9537 97.5594,42.7157 101.5544,42.7157 C105.5494,42.7157 108.7874,45.9537 108.7874,49.9487" id="Fill-29" fill="#FFE2E2"></path>
                    <path d="M108.7874,49.9487 C108.7874,53.9437 105.5494,57.1817 101.5544,57.1817 C97.5594,57.1817 94.3214,53.9437 94.3214,49.9487 C94.3214,45.9537 97.5594,42.7157 101.5544,42.7157 C105.5494,42.7157 108.7874,45.9537 108.7874,49.9487 Z" id="Stroke-31" stroke="#F65759" stroke-width="2"></path>
                    <path d="M324.4856,209.1691 C324.4856,212.8571 321.4966,215.8461 317.8086,215.8461 C314.1216,215.8461 311.1316,212.8571 311.1316,209.1691 C311.1316,205.4811 314.1216,202.4921 317.8086,202.4921 C321.4966,202.4921 324.4856,205.4811 324.4856,209.1691" id="Fill-33" fill="#FFE2E2"></path>
                    <path d="M324.4856,209.1691 C324.4856,212.8571 321.4966,215.8461 317.8086,215.8461 C314.1216,215.8461 311.1316,212.8571 311.1316,209.1691 C311.1316,205.4811 314.1216,202.4921 317.8086,202.4921 C321.4966,202.4921 324.4856,205.4811 324.4856,209.1691 Z" id="Stroke-35" stroke="#F65759" stroke-width="2"></path>
                    <path d="M328.9368,5.4091 C328.9368,7.8671 326.9438,9.8601 324.4858,9.8601 C322.0268,9.8601 320.0348,7.8671 320.0348,5.4091 C320.0348,2.9511 322.0268,0.9581 324.4858,0.9581 C326.9438,0.9581 328.9368,2.9511 328.9368,5.4091" id="Fill-37" fill="#FFE2E2"></path>
                    <path d="M328.9368,5.4091 C328.9368,7.8671 326.9438,9.8601 324.4858,9.8601 C322.0268,9.8601 320.0348,7.8671 320.0348,5.4091 C320.0348,2.9511 322.0268,0.9581 324.4858,0.9581 C326.9438,0.9581 328.9368,2.9511 328.9368,5.4091 Z" id="Stroke-39" stroke="#F65759" stroke-width="2"></path>
                    <path d="M324.1147,165.6992 L387.1737,228.7582" id="Stroke-41" stroke="#F65759" stroke-width="2" stroke-linecap="round"></path>
                    <path d="M336.3555,79.2292 L372.3595,115.2332" id="Stroke-43" stroke="#F65759" stroke-width="2" stroke-linecap="round"></path>
                    <path d="M384.9478,64.8513 L394.7778,74.6813" id="Stroke-45" stroke="#F65759" stroke-width="3" stroke-linecap="round"></path>
                    <path d="M394.7776,64.8513 L384.9476,74.6813" id="Stroke-47" stroke="#F65759" stroke-width="3" stroke-linecap="round"></path>
                    <path d="M246.3104,243.5488 L250.7614,247.9998" id="Stroke-49" stroke="#F65759" stroke-width="2" stroke-linecap="round"></path>
                    <path d="M250.7616,243.5488 L246.3106,247.9998" id="Stroke-51" stroke="#F65759" stroke-width="2" stroke-linecap="round"></path>
                    <path d="M129.3011,196.5664 L129.3011,216.5964" id="Stroke-53" stroke="#F65759" stroke-width="3" stroke-linecap="round"></path>
                    <path d="M139.3163,206.5817 L119.2863,206.5817" id="Stroke-55" stroke="#F65759" stroke-width="3" stroke-linecap="round"></path>
                    <path d="M77.0892,183.022 L96.4522,183.022 C102.9732,179.549 107.4162,172.688 107.4162,164.784 C107.4162,153.375 98.1672,144.127 86.7582,144.127 C81.5472,144.127 76.8012,146.071 73.1672,149.254 C71.4552,137.517 61.3772,128.494 49.1662,128.494 C35.7522,128.494 24.8792,139.367 24.8792,152.78 C24.8792,155.095 25.2242,157.327 25.8292,159.448 C24.0492,158.583 22.0592,158.084 19.9472,158.084 C12.4962,158.084 6.4552,164.125 6.4552,171.577 C6.4552,172.195 6.5112,172.799 6.5922,173.395 C3.0662,174.471 0.5002,177.748 0.5002,181.626 C0.5002,182.103 0.5482,182.567 0.6232,183.022 L27.0682,183.022 L77.0892,183.022 Z" id="Fill-57" fill="#FFE2E2"></path>
                    <path d="M77.0892,183.022 L96.4522,183.022 C102.9732,179.549 107.4162,172.688 107.4162,164.784 C107.4162,153.375 98.1672,144.127 86.7582,144.127 C81.5472,144.127 76.8012,146.071 73.1672,149.254 C71.4552,137.517 61.3772,128.494 49.1662,128.494 C35.7522,128.494 24.8792,139.367 24.8792,152.78 C24.8792,155.095 25.2242,157.327 25.8292,159.448 C24.0492,158.583 22.0592,158.084 19.9472,158.084 C12.4962,158.084 6.4552,164.125 6.4552,171.577 C6.4552,172.195 6.5112,172.799 6.5922,173.395 C3.0662,174.471 0.5002,177.748 0.5002,181.626 C0.5002,182.103 0.5482,182.567 0.6232,183.022 L27.0682,183.022 L77.0892,183.022 Z" id="Stroke-59" stroke="#F65759" stroke-width="3" stroke-linecap="round"></path>
                    <path d="M16.1016,146.2977 C16.1016,149.3127 13.6576,151.7567 10.6426,151.7567 C7.6276,151.7567 5.1836,149.3127 5.1836,146.2977 C5.1836,143.2827 7.6276,140.8387 10.6426,140.8387 C13.6576,140.8387 16.1016,143.2827 16.1016,146.2977" id="Fill-61" fill="#FFE2E2"></path>
                    <path d="M16.1016,146.2977 C16.1016,149.3127 13.6576,151.7567 10.6426,151.7567 C7.6276,151.7567 5.1836,149.3127 5.1836,146.2977 C5.1836,143.2827 7.6276,140.8387 10.6426,140.8387 C13.6576,140.8387 16.1016,143.2827 16.1016,146.2977 Z" id="Stroke-63" stroke="#F65759" stroke-width="3" stroke-linecap="round"></path>
                </g>
            </g>
        </g>
    </g>
</svg>