<?xml version="1.0" encoding="UTF-8"?>
<svg width="454px" height="309px" viewBox="0 0 454 309" version="1.1" xmlns="http://www.w3.org/2000/svg" xmlns:xlink="http://www.w3.org/1999/xlink">
    <!-- Generator: Sketch 43.1 (39012) - http://www.bohemiancoding.com/sketch -->
    <title>没结果</title>
    <desc>Created with Sketch.</desc>
    <defs></defs>
    <g id="Page-1" stroke="none" stroke-width="1" fill="none" fill-rule="evenodd">
        <g id="icon页面" transform="translate(-891.000000, -917.000000)">
            <g id="没结果" transform="translate(893.000000, 919.000000)">
                <path d="M236.4855,263.5393 C236.4855,271.0733 230.3215,277.2363 222.7885,277.2363 L48.3735,277.2363 C40.8405,277.2363 34.6765,271.0733 34.6765,263.5393 L34.6765,123.8253 C34.6765,116.2913 40.8405,110.1283 48.3735,110.1283 L91.2915,110.1283 L118.6865,110.1283 L135.5805,129.3043 L162.9755,129.3043 L222.7885,129.3043 C230.3215,129.3043 236.4855,135.4683 236.4855,143.0013 L236.4855,263.5393 Z" id="Fill-1" fill="#F65759"></path>
                <path d="M236.4855,263.5393 C236.4855,271.0733 230.3215,277.2363 222.7885,277.2363 L48.3735,277.2363 C40.8405,277.2363 34.6765,271.0733 34.6765,263.5393 L34.6765,123.8253 C34.6765,116.2913 40.8405,110.1283 48.3735,110.1283 L91.2915,110.1283 L118.6865,110.1283 L135.5805,129.3043 L162.9755,129.3043 L222.7885,129.3043 C230.3215,129.3043 236.4855,135.4683 236.4855,143.0013 L236.4855,263.5393 Z" id="Stroke-3" stroke="#F65759" stroke-width="4"></path>
                <path d="M337.0082,241.2216 L285.0292,241.2216 C284.1902,241.0666 283.5542,240.3346 283.5542,239.4506 C283.5542,238.5166 284.2672,237.7566 285.1772,237.6656 L293.7892,237.6656 C296.6532,237.6656 298.9752,235.3436 298.9752,232.4796 C298.9752,229.6146 296.6532,227.2926 293.7892,227.2926 L238.6722,227.2926 C235.8072,227.2926 233.4852,229.6146 233.4852,232.4796 C233.4852,235.3436 235.8072,237.6656 238.6722,237.6656 L272.1002,237.6656 C273.0102,237.7566 273.7232,238.5166 273.7232,239.4506 C273.7232,240.3346 273.0872,241.0666 272.2482,241.2216 L269.5262,241.2216 C266.6622,241.2216 264.3402,243.5436 264.3402,246.4076 C264.3402,249.2716 266.6622,251.5936 269.5262,251.5936 L337.0082,251.5936 C339.8722,251.5936 342.1942,249.2716 342.1942,246.4076 C342.1942,243.5436 339.8722,241.2216 337.0082,241.2216" id="Fill-5" fill="#FFE2E2"></path>
                <path d="M238.8796,267.5275 C237.5626,272.8675 231.9856,277.2365 226.4856,277.2365 L44.6766,277.2365 C39.1766,277.2365 35.7536,272.8675 37.0706,267.5275 L65.1566,153.6235 C66.4726,148.2835 72.0506,143.9145 77.5506,143.9145 L259.3596,143.9145 C264.8596,143.9145 268.2826,148.2835 266.9656,153.6235 L238.8796,267.5275 Z" id="Fill-7" fill="#FFE2E2"></path>
                <path d="M108.0156,61.7666 L105.2936,61.7666 C102.4296,61.7666 100.1076,64.0886 100.1076,66.9526 C100.1076,69.8166 102.4296,72.1386 105.2936,72.1386 L172.7756,72.1386 C175.6396,72.1386 177.9616,69.8166 177.9616,66.9526 C177.9616,64.0886 175.6396,61.7666 172.7756,61.7666 L120.7956,61.7666" id="Fill-9" fill="#FFE2E2"></path>
                <path d="M79.5156,43.1332 L76.7936,43.1332 C73.9296,43.1332 71.6076,45.4552 71.6076,48.3192 C71.6076,51.1832 73.9296,53.5052 76.7936,53.5052 L144.2756,53.5052 C147.1396,53.5052 149.4616,51.1832 149.4616,48.3192 C149.4616,45.4552 147.1396,43.1332 144.2756,43.1332 L92.2956,43.1332" id="Fill-11" fill="#FFE2E2"></path>
                <path d="M12.2752,254.9933 C12.2752,258.3833 9.5272,261.1313 6.1372,261.1313 C2.7482,261.1313 0.0002,258.3833 0.0002,254.9933 C0.0002,251.6033 2.7482,248.8553 6.1372,248.8553 C9.5272,248.8553 12.2752,251.6033 12.2752,254.9933" id="Fill-13" fill="#FFE2E2"></path>
                <path d="M12.2752,254.9933 C12.2752,258.3833 9.5272,261.1313 6.1372,261.1313 C2.7482,261.1313 0.0002,258.3833 0.0002,254.9933 C0.0002,251.6033 2.7482,248.8553 6.1372,248.8553 C9.5272,248.8553 12.2752,251.6033 12.2752,254.9933 Z" id="Stroke-15" stroke="#F65759" stroke-width="4"></path>
                <path d="M92.0643,295.0219 C92.0643,298.0349 89.6213,300.4779 86.6083,300.4779 C83.5953,300.4779 81.1533,298.0349 81.1533,295.0219 C81.1533,292.0089 83.5953,289.5659 86.6083,289.5659 C89.6213,289.5659 92.0643,292.0089 92.0643,295.0219" id="Fill-17" fill="#F65759"></path>
                <polygon id="Fill-19" fill="#F65759" points="41.5909 295.0219 34.7799 306.8189 27.9689 295.0219"></polygon>
                <path d="M371.7806,115.8794 C371.7806,119.2694 369.0326,122.0174 365.6426,122.0174 C362.2536,122.0174 359.5056,119.2694 359.5056,115.8794 C359.5056,112.4894 362.2536,109.7414 365.6426,109.7414 C369.0326,109.7414 371.7806,112.4894 371.7806,115.8794" id="Fill-21" fill="#FFE2E2"></path>
                <path d="M371.7806,115.8794 C371.7806,119.2694 369.0326,122.0174 365.6426,122.0174 C362.2536,122.0174 359.5056,119.2694 359.5056,115.8794 C359.5056,112.4894 362.2536,109.7414 365.6426,109.7414 C369.0326,109.7414 371.7806,112.4894 371.7806,115.8794 Z" id="Stroke-23" stroke="#F65759" stroke-width="4"></path>
                <path d="M451.5696,155.908 C451.5696,158.921 449.1266,161.364 446.1136,161.364 C443.1006,161.364 440.6586,158.921 440.6586,155.908 C440.6586,152.895 443.1006,150.452 446.1136,150.452 C449.1266,150.452 451.5696,152.895 451.5696,155.908" id="Fill-25" fill="#F65759"></path>
                <path d="M358.1414,57.7242 C358.1414,60.7372 355.6984,63.1802 352.6854,63.1802 C349.6724,63.1802 347.2304,60.7372 347.2304,57.7242 C347.2304,54.7112 349.6724,52.2682 352.6854,52.2682 C355.6984,52.2682 358.1414,54.7112 358.1414,57.7242" id="Fill-27" fill="#F65759"></path>
                <polygon id="Fill-29" fill="#F65759" points="407.4815 105.8946 419.2785 112.7056 407.4815 119.5166"></polygon>
                <polygon id="Fill-31" fill="#F65759" points="336.9772 20.8601 325.1802 14.0491 336.9772 7.2381"></polygon>
                <path d="M384.2832,72.8081 L397.9222,72.8081" id="Stroke-33" stroke="#F65759" stroke-width="4" stroke-linecap="round"></path>
                <path d="M391.1028,65.9885 L391.1028,79.6275" id="Stroke-35" stroke="#F65759" stroke-width="4" stroke-linecap="round"></path>
                <path d="M236.2387,267.4355 C234.9217,272.7755 229.3447,277.1445 223.8447,277.1445 L42.0357,277.1445 C36.5357,277.1445 33.1127,272.7755 34.4297,267.4355 L62.5157,153.5315 C63.8317,148.1915 69.4097,143.8225 74.9097,143.8225 L256.7187,143.8225 C262.2187,143.8225 265.6417,148.1915 264.3247,153.5315 L236.2387,267.4355 Z" id="Fill-37" fill="#FFFFFF"></path>
                <path d="M238.8796,267.5275 C237.5626,272.8675 231.9856,277.2365 226.4856,277.2365 L44.6766,277.2365 C39.1766,277.2365 35.7536,272.8675 37.0706,267.5275 L65.1566,153.6235 C66.4726,148.2835 72.0506,143.9145 77.5506,143.9145 L259.3596,143.9145 C264.8596,143.9145 268.2826,148.2835 266.9656,153.6235 L238.8796,267.5275 Z" id="Stroke-39" stroke="#F65759" stroke-width="4"></path>
                <polygon id="Fill-41" fill="#FFE2E2" points="324.2842 152.1674 310.3932 166.0584 302.1362 157.8004 316.0272 143.9104"></polygon>
                <polygon id="Stroke-43" stroke="#F65759" stroke-width="4" stroke-linecap="round" points="337.2489 165.1322 323.3579 179.0232 302.1359 157.8012 316.0269 143.9102"></polygon>
                <path d="M312.6663,184.9999 L374.7923,247.1259 C383.2313,255.5649 396.9133,255.5649 405.3523,247.1259 C413.7913,238.6869 413.7913,225.0049 405.3523,216.5669 L343.2263,154.4399 L312.6663,184.9999 Z" id="Fill-45" fill="#FFE2E2"></path>
                <path d="M323.8123,196.146 L354.3723,165.586" id="Stroke-47" stroke="#F65759" stroke-width="4" stroke-linecap="square"></path>
                <path d="M373.4333,245.7669 L403.9933,215.2069" id="Stroke-49" stroke="#F65759" stroke-width="4" stroke-linecap="square"></path>
                <path d="M323.0844,174.5819 L312.6664,184.9999 L374.7924,247.1259 C381.5294,253.8629 391.6024,255.2049 399.6874,251.1849 L323.0844,174.5819 Z" id="Fill-51" fill="#FFE2E2"></path>
                <path d="M312.6663,184.9999 L374.7923,247.1259 C383.2313,255.5649 396.9133,255.5649 405.3523,247.1259 C413.7913,238.6869 413.7913,225.0049 405.3523,216.5669 L343.2263,154.4399 L312.6663,184.9999 Z" id="Stroke-53" stroke="#F65759" stroke-width="4"></path>
                <path d="M343.8017,196.6883 L372.8907,225.7773" id="Stroke-55" stroke="#F65759" stroke-width="3" stroke-linecap="round"></path>
                <path d="M354.9143,185.5757 L384.0033,214.6647" id="Stroke-57" stroke="#F65759" stroke-width="3" stroke-linecap="round"></path>
                <path d="M311.4738,26.2935 C346.5308,61.3505 346.5308,118.1905 311.4738,153.2475 C276.4168,188.3055 219.5768,188.3055 184.5198,153.2475 C149.4618,118.1905 149.4618,61.3505 184.5198,26.2935 C219.5768,-8.7635 276.4168,-8.7635 311.4738,26.2935" id="Fill-59" fill="#FFFFFF"></path>
                <path d="M311.4738,26.2935 C346.5308,61.3505 346.5308,118.1905 311.4738,153.2475 C276.4168,188.3055 219.5768,188.3055 184.5198,153.2475 C149.4618,118.1905 149.4618,61.3505 184.5198,26.2935 C219.5768,-8.7635 276.4168,-8.7635 311.4738,26.2935 Z" id="Stroke-61" stroke="#F65759" stroke-width="4" stroke-linecap="round" stroke-linejoin="round"></path>
                <path d="M297.5191,40.2483 C324.8691,67.5983 324.8691,111.9423 297.5191,139.2933 C270.1691,166.6433 225.8251,166.6433 198.4741,139.2933 C171.1241,111.9423 171.1241,67.5983 198.4741,40.2483 C225.8251,12.8983 270.1691,12.8983 297.5191,40.2483" id="Fill-63" fill="#FFE2E2"></path>
                <path d="M187.7233,104.237 C187.7233,65.558 219.0793,34.202 257.7583,34.202 C278.8013,34.202 297.6623,43.495 310.5003,58.186 C298.9513,35.379 275.3083,19.735 247.9963,19.735 C209.3173,19.735 177.9613,51.091 177.9613,89.771 C177.9613,107.407 184.4953,123.509 195.2553,135.822 C190.4483,126.329 187.7233,115.605 187.7233,104.237" id="Fill-65" fill="#FFE2E2"></path>
                <path d="M288.2773,52.8076 C291.1343,55.9226 293.6363,59.3686 295.7163,63.0836" id="Stroke-67" stroke="#FFFFFF" stroke-width="5" stroke-linecap="round"></path>
                <path d="M223.5452,40.8206 C230.8962,37.1466 239.1902,35.0786 247.9662,35.0786 C260.0822,35.0786 271.2782,39.0186 280.3432,45.6876" id="Stroke-69" stroke="#FFFFFF" stroke-width="5" stroke-linecap="round"></path>
                <path d="M206.3189,54.3194 C208.7119,51.5114 211.3839,48.9474 214.2919,46.6724" id="Stroke-71" stroke="#FFFFFF" stroke-width="5" stroke-linecap="round"></path>
                <path d="M297.5191,40.2483 C324.8691,67.5983 324.8691,111.9423 297.5191,139.2933 C270.1691,166.6433 225.8251,166.6433 198.4741,139.2933 C171.1241,111.9423 171.1241,67.5983 198.4741,40.2483 C225.8251,12.8983 270.1691,12.8983 297.5191,40.2483 Z" id="Stroke-73" stroke="#F65759" stroke-width="4" stroke-linecap="round" stroke-linejoin="round"></path>
                <path d="M217.418,92.6514 C217.418,97.4244 213.549,101.2934 208.776,101.2934 C204.003,101.2934 200.134,97.4244 200.134,92.6514 C200.134,87.8784 204.003,84.0094 208.776,84.0094 C213.549,84.0094 217.418,87.8784 217.418,92.6514" id="Fill-75" fill="#F65759"></path>
                <path d="M256.6385,92.6514 C256.6385,97.4244 252.7695,101.2934 247.9965,101.2934 C243.2235,101.2934 239.3545,97.4244 239.3545,92.6514 C239.3545,87.8784 243.2235,84.0094 247.9965,84.0094 C252.7695,84.0094 256.6385,87.8784 256.6385,92.6514" id="Fill-77" fill="#F65759"></path>
                <path d="M295.8591,92.6514 C295.8591,97.4244 291.9901,101.2934 287.2171,101.2934 C282.4441,101.2934 278.5751,97.4244 278.5751,92.6514 C278.5751,87.8784 282.4441,84.0094 287.2171,84.0094 C291.9901,84.0094 295.8591,87.8784 295.8591,92.6514" id="Fill-79" fill="#F65759"></path>
            </g>
        </g>
    </g>
</svg>