<?xml version="1.0" encoding="UTF-8"?>
<svg width="458px" height="371px" viewBox="0 0 458 371" version="1.1" xmlns="http://www.w3.org/2000/svg" xmlns:xlink="http://www.w3.org/1999/xlink">
    <!-- Generator: Sketch 43.1 (39012) - http://www.bohemiancoding.com/sketch -->
    <title>页面出错</title>
    <desc>Created with Sketch.</desc>
    <defs></defs>
    <g id="Page-1" stroke="none" stroke-width="1" fill="none" fill-rule="evenodd">
        <g id="icon页面" transform="translate(-890.000000, -369.000000)">
            <g id="页面出错" transform="translate(892.000000, 370.000000)">
                <path d="M226.7871,301.6615 C226.7871,301.6615 206.9901,301.0225 205.4961,317.6895 C205.4961,317.6895 183.0841,309.6895 179.1621,332.1895 C179.1621,332.1895 152.8281,328.6895 149.4661,352.6895 C149.4661,352.6895 134.8981,353.4185 138.2601,367.8035 L314.8841,367.8035 C318.2451,353.4185 303.6781,352.6895 303.6781,352.6895 C300.3161,328.6895 273.9821,332.1895 273.9821,332.1895 C270.0601,309.6895 247.6481,317.6895 247.6481,317.6895 C246.1541,301.0225 226.3561,301.6615 226.3561,301.6615" id="Fill-1" fill="#FFE2E2"></path>
                <path d="M0,367.804 L453.144,367.804" id="Stroke-3" stroke="#F65759" stroke-width="4" stroke-linecap="round" stroke-linejoin="round"></path>
                <polyline id="Stroke-5" stroke="#F65759" stroke-width="4" stroke-linecap="round" stroke-linejoin="round" points="147.5697 324.6893 105.7337 298.6893 37.7517 346.6893"></polyline>
                <polyline id="Stroke-7" stroke="#F65759" stroke-width="4" stroke-linecap="round" stroke-linejoin="round" points="175.355 331.1715 133.519 305.1715 125.395 310.9075"></polyline>
                <path d="M103.2587,313.3638 L84.8167,326.3848" id="Stroke-9" stroke="#F65759" stroke-width="4" stroke-linecap="round" stroke-linejoin="round"></path>
                <polyline id="Stroke-11" stroke="#F65759" stroke-width="4" stroke-linecap="round" stroke-linejoin="round" points="305.5739 324.6893 347.4099 298.6893 415.3929 346.6893"></polyline>
                <polyline id="Stroke-13" stroke="#F65759" stroke-width="4" stroke-linecap="round" stroke-linejoin="round" points="277.7886 331.1715 319.6246 305.1715 327.7486 310.9075"></polyline>
                <path d="M349.8849,313.3638 L368.3269,326.3848" id="Stroke-15" stroke="#F65759" stroke-width="4" stroke-linecap="round" stroke-linejoin="round"></path>
                <polyline id="Fill-17" points="198.183 345.225 132.854 305.172 125.041 310.688 105.734 298.689 37.751 346.689"></polyline>
                <polyline id="Fill-19" points="255.334 345.225 320.663 305.172 328.476 310.688 347.783 298.689 415.766 346.689"></polyline>
                <polygon id="Fill-21" fill="#FFE2E2" points="316.7629 191.7803 344.4179 206.7453 281.3039 226.4943"></polygon>
                <polygon id="Stroke-23" stroke="#F65759" stroke-width="4" stroke-linecap="round" stroke-linejoin="round" points="316.7629 191.7803 344.4179 206.7453 281.3039 226.4943"></polygon>
                <path d="M240.6192,247.5833 C240.6192,254.5063 234.3302,260.1193 226.5722,260.1193 C218.8132,260.1193 212.5242,254.5063 212.5242,247.5833 C212.5242,240.6603 218.8132,235.0473 226.5722,235.0473 C234.3302,235.0473 240.6192,240.6603 240.6192,247.5833" id="Fill-25" fill="#FFE2E2"></path>
                <path d="M240.6192,247.5833 C240.6192,254.5063 234.3302,260.1193 226.5722,260.1193 C218.8132,260.1193 212.5242,254.5063 212.5242,247.5833 C212.5242,240.6603 218.8132,235.0473 226.5722,235.0473 C234.3302,235.0473 240.6192,240.6603 240.6192,247.5833 Z" id="Stroke-27" stroke="#F65759" stroke-width="4" stroke-linecap="round" stroke-linejoin="round"></path>
                <path d="M235.8387,282.3706 C235.8387,286.9376 231.6897,290.6406 226.5717,290.6406 C221.4537,290.6406 217.3047,286.9376 217.3047,282.3706 C217.3047,277.8036 221.4537,274.1006 226.5717,274.1006 C231.6897,274.1006 235.8387,277.8036 235.8387,282.3706" id="Fill-29" fill="#FFE2E2"></path>
                <path d="M235.8387,282.3706 C235.8387,286.9376 231.6897,290.6406 226.5717,290.6406 C221.4537,290.6406 217.3047,286.9376 217.3047,282.3706 C217.3047,277.8036 221.4537,274.1006 226.5717,274.1006 C231.6897,274.1006 235.8387,277.8036 235.8387,282.3706 Z" id="Stroke-31" stroke="#F65759" stroke-width="4" stroke-linecap="round" stroke-linejoin="round"></path>
                <path d="M208.9364,312.6373 C208.9364,312.6373 234.1494,303.1373 238.0724,326.8043 C238.0724,326.8043 264.4064,318.9703 264.9664,340.6373 C264.9664,340.6373 286.0704,338.6373 285.5104,349.1373 C285.5104,349.1373 289.8064,367.4703 211.1774,366.9703 L315.2064,367.8043 C315.2064,367.8043 318.0074,352.4703 301.5724,353.6373 C301.5724,353.6373 301.5724,328.8043 273.7444,332.3043 C273.7444,332.3043 271.8764,311.3043 246.4764,317.1373 C246.4764,317.1373 243.6754,301.9703 225.9324,301.6373 C225.9324,301.6373 214.5394,302.1373 208.9364,312.6373" id="Fill-33" fill="#FFE2E2"></path>
                <path d="M226.7871,301.6615 C226.7871,301.6615 206.9901,301.0225 205.4961,317.6895 C205.4961,317.6895 183.0841,309.6895 179.1621,332.1895 C179.1621,332.1895 152.8281,328.6895 149.4661,352.6895 C149.4661,352.6895 134.8981,353.4185 138.2601,367.8035" id="Stroke-35" stroke="#F65759" stroke-width="4" stroke-linecap="round" stroke-linejoin="round"></path>
                <path d="M226.3566,301.6615 C226.3566,301.6615 246.1536,301.0225 247.6476,317.6895 C247.6476,317.6895 270.0596,309.6895 273.9816,332.1895 C273.9816,332.1895 300.3156,328.6895 303.6776,352.6895 C303.6776,352.6895 318.2456,353.4185 314.8836,367.8035" id="Stroke-37" stroke="#F65759" stroke-width="4" stroke-linecap="round" stroke-linejoin="round"></path>
                <path d="M241.8779,41.0816 C241.4789,41.1436 267.3549,65.4676 256.7689,105.1986 C245.5219,147.4086 208.4239,178.9806 208.4239,178.9806 L232.2779,184.2896 C232.2779,184.2896 262.0229,148.2826 272.1779,108.2646 C282.2899,68.4136 242.2299,41.3116 241.8949,41.0856 L241.8779,41.0816 Z" id="Fill-39" fill="#FFE2E2"></path>
                <polygon id="Fill-41" fill="#FFE2E2" points="222.7931 196.3243 202.0451 220.1093 193.3421 189.7703"></polygon>
                <polygon id="Stroke-43" stroke="#F65759" stroke-width="4" stroke-linecap="round" stroke-linejoin="round" points="222.7931 196.3243 202.0451 220.1093 193.3421 189.7703"></polygon>
                <polygon id="Fill-45" fill="#FFE2E2" points="175.7841 185.8625 173.2101 154.5235 129.7371 204.3585"></polygon>
                <polygon id="Stroke-47" stroke="#F65759" stroke-width="4" stroke-linecap="round" stroke-linejoin="round" points="175.7841 185.8625 173.2101 154.5235 129.7371 204.3585"></polygon>
                <path d="M165.9665,208.6089 L162.3675,224.7819" id="Stroke-49" stroke="#F65759" stroke-width="4" stroke-linecap="round" stroke-linejoin="round"></path>
                <path d="M144.0645,214.8742 L140.4655,231.0482" id="Stroke-51" stroke="#F65759" stroke-width="4" stroke-linecap="round" stroke-linejoin="round"></path>
                <path d="M250.1981,105.7053 C247.8261,116.3613 236.2231,122.8463 224.2821,120.1883 C212.3401,117.5313 204.5821,106.7373 206.9541,96.0813 C209.3251,85.4253 220.9281,78.9403 232.8701,81.5983 C244.8121,84.2553 252.5701,95.0493 250.1981,105.7053" id="Fill-53" fill="#F65759"></path>
                <path d="M227.6418,59.6844 C227.2688,61.3594 225.4458,62.3784 223.5688,61.9604 C221.6918,61.5434 220.4728,59.8464 220.8458,58.1714 C221.2178,56.4974 223.0418,55.4784 224.9188,55.8954 C226.7948,56.3134 228.0148,58.0094 227.6418,59.6844" id="Fill-55" fill="#F65759"></path>
                <path d="M253.695,65.4826 C253.322,67.1576 251.499,68.1766 249.622,67.7586 C247.745,67.3416 246.526,65.6446 246.899,63.9696 C247.271,62.2956 249.095,61.2766 250.972,61.6936 C252.848,62.1116 254.068,63.8076 253.695,65.4826" id="Fill-57" fill="#F65759"></path>
                <path d="M240.6684,62.5835 C240.2954,64.2585 238.4724,65.2775 236.5954,64.8595 C234.7184,64.4425 233.4994,62.7455 233.8724,61.0705 C234.2444,59.3965 236.0684,58.3775 237.9454,58.7945 C239.8214,59.2125 241.0414,60.9085 240.6684,62.5835" id="Fill-59" fill="#F65759"></path>
                <path d="M202.6401,147.9883 C202.2671,149.6633 200.4441,150.6823 198.5671,150.2643 C196.6901,149.8473 195.4711,148.1503 195.8441,146.4753 C196.2161,144.8013 198.0401,143.7823 199.9171,144.1993 C201.7931,144.6173 203.0131,146.3133 202.6401,147.9883" id="Fill-61" fill="#F65759"></path>
                <path d="M226.8054,153.3663 C226.4324,155.0413 224.6094,156.0603 222.7324,155.6423 C220.8554,155.2253 219.6364,153.5283 220.0094,151.8533 C220.3814,150.1793 222.2054,149.1603 224.0824,149.5773 C225.9584,149.9953 227.1784,151.6913 226.8054,153.3663" id="Fill-63" fill="#F65759"></path>
                <path d="M238.888,156.0553 C238.515,157.7303 236.692,158.7493 234.815,158.3313 C232.938,157.9143 231.719,156.2173 232.092,154.5423 C232.464,152.8683 234.288,151.8493 236.165,152.2663 C238.041,152.6843 239.261,154.3803 238.888,156.0553" id="Fill-65" fill="#F65759"></path>
                <path d="M214.7227,150.6773 C214.3497,152.3523 212.5267,153.3713 210.6497,152.9533 C208.7727,152.5363 207.5537,150.8393 207.9267,149.1643 C208.2987,147.4903 210.1227,146.4713 211.9997,146.8883 C213.8757,147.3063 215.0957,149.0023 214.7227,150.6773" id="Fill-67" fill="#F65759"></path>
                <path d="M241.8779,41.0816 C241.4789,41.1436 193.7059,48.6996 185.9639,89.0776 C178.1889,129.6246 189.8559,174.8486 189.8559,174.8486 L202.6079,177.6866 L219.5259,181.4516 L232.2779,184.2896 C232.2779,184.2896 262.0229,148.2826 272.1779,108.2646 C282.2899,68.4136 242.2299,41.3116 241.8949,41.0856 L241.8779,41.0816 Z" id="Stroke-69" stroke="#F65759" stroke-width="4" stroke-linejoin="round"></path>
                <path d="M186.8164,157.5513 L242.3664,169.9143" id="Stroke-71" stroke="#F65759" stroke-width="4" stroke-linejoin="round"></path>
                <path d="M219.673,48.1636 L259.001,56.9156" id="Stroke-73" stroke="#F65759" stroke-width="4" stroke-linejoin="round"></path>
                <path d="M229.8195,85.8523 C229.8195,85.8523 217.5885,83.6683 212.4675,95.8173" id="Stroke-75" stroke="#FFFFFF" stroke-width="2" stroke-linecap="round"></path>
                <path d="M212.9972,101.7044 C212.7822,102.6724 211.8222,103.2824 210.8542,103.0674 C209.8852,102.8514 209.2752,101.8924 209.4912,100.9244 C209.7062,99.9554 210.6662,99.3454 211.6342,99.5614 C212.6022,99.7764 213.2122,100.7364 212.9972,101.7044" id="Fill-77" fill="#FFFFFF"></path>
                <polygon id="Fill-79" fill="#FFE2E2" points="302.5378 0.5 320.9668 0.5 308.1498 18.497 326.7488 18.497 295.9058 53.512 305.3988 26.482 288.1408 26.482"></polygon>
                <polygon id="Stroke-81" stroke="#F65759" stroke-width="3" stroke-linecap="round" stroke-linejoin="round" points="302.5378 0.5 320.9668 0.5 308.1498 18.497 326.7488 18.497 295.9058 53.512 305.3988 26.482 288.1408 26.482"></polygon>
                <polygon id="Fill-83" fill="#F65759" points="273.4678 22.4721 282.6828 22.4721 276.2738 31.4701 285.5728 31.4701 270.1518 48.9781 274.8978 35.4631 266.2698 35.4631"></polygon>
            </g>
        </g>
    </g>
</svg>