<?xml version="1.0" encoding="UTF-8"?>
<svg width="43px" height="43px" viewBox="0 0 43 43" version="1.1" xmlns="http://www.w3.org/2000/svg" xmlns:xlink="http://www.w3.org/1999/xlink">
    <!-- Generator: Sketch 46 (44423) - http://www.bohemiancoding.com/sketch -->
    <title>视频名称icon</title>
    <desc>Created with Sketch.</desc>
    <defs></defs>
    <g id="Page-1" stroke="none" stroke-width="1" fill="none" fill-rule="evenodd">
        <g id="内容发布审阅-本地上传失败" transform="translate(-473.000000, -401.000000)" fill-rule="nonzero" fill="#FE7677">
            <g id="视频名称icon" transform="translate(473.000000, 401.000000)">
                <path d="M16.1359433,32.2255185 C16.1359433,29.2595593 18.5374071,26.8553256 21.4999493,26.8553256 C24.4630491,26.8553256 26.8641074,29.2595593 26.8641074,32.2255185 C26.8641074,35.191427 24.4630491,37.5958637 21.4999493,37.5958637 C18.5373564,37.5958129 16.1359433,35.1913762 16.1359433,32.2255185 L16.1359433,32.2255185 Z M28.2051596,21.4851835 C28.2051596,18.5192243 30.60637,16.1147876 33.569115,16.1147876 C36.5318599,16.1147876 38.9332731,18.5192243 38.9332731,21.4851835 C38.9332731,24.4512949 36.5318599,26.8553256 33.569115,26.8553256 C30.60637,26.8553256 28.2051596,24.4512949 28.2051596,21.4851835 L28.2051596,21.4851835 Z M16.1359433,10.7448992 C16.1359433,7.77853395 18.5374071,5.37470629 21.4999493,5.37470629 C24.4630491,5.37470629 26.8641074,7.778534 26.8641074,10.7448992 C26.8641074,13.7110106 24.4630491,16.1147876 21.4999493,16.1147876 C18.5373564,16.1148383 16.1359433,13.7110106 16.1359433,10.7448992 L16.1359433,10.7448992 Z M5.40798189,21.4851835 C5.40798189,18.5192243 7.80924298,16.1147876 10.7719879,16.1147876 C13.7348849,16.1147876 16.1359433,18.5192243 16.1359433,21.4851835 C16.1359433,24.4512949 13.7348849,26.8553256 10.7719879,26.8553256 C7.80924298,26.8553256 5.40798189,24.4512949 5.40798189,21.4851835 L5.40798189,21.4851835 Z M18.8178956,21.4851835 C18.8178956,20.0019501 20.0188303,18.7999348 21.4998986,18.7999348 C22.9815753,18.7999348 24.1820538,20.0020009 24.1820538,21.4851835 C24.1820538,22.9685691 22.9815246,24.1702292 21.4998986,24.1702292 C20.0188303,24.1702799 18.8178956,22.9685691 18.8178956,21.4851835 L18.8178956,21.4851835 Z M32.9122762,39.6833529 C34.2331016,41.6137132 37.3306919,42.9661581 40.9444966,42.9661581 C41.6371758,42.9661581 42.9561256,38.7977268 42.9561256,38.7977268 C40.4804461,38.4373861 38.4155886,37.424981 37.2569832,36.0720794 C40.7963694,32.240998 42.9561256,27.1156845 42.9561256,21.4851835 C42.9561256,9.62144829 33.3499153,0.00436115225 21.4998986,0.00436115225 C9.65003409,0.00436115225 0.0438744654,9.62144829 0.0438744654,21.4851835 C0.0438744654,33.348868 9.65008477,42.9661581 21.4998986,42.9661581 C25.6928285,42.9661581 29.6071964,41.764904 32.9122762,39.6833529 L32.9122762,39.6833529 Z" id="Shape"></path>
            </g>
        </g>
    </g>
</svg>