<?xml version="1.0" encoding="UTF-8"?>
<svg width="19px" height="23px" viewBox="0 0 19 23" version="1.1" xmlns="http://www.w3.org/2000/svg" xmlns:xlink="http://www.w3.org/1999/xlink">
    <!-- Generator: Sketch 43.1 (39012) - http://www.bohemiancoding.com/sketch -->
    <title>账号</title>
    <desc>Created with Sketch.</desc>
    <defs></defs>
    <g id="Page-1" stroke="none" stroke-width="1" fill="none" fill-rule="evenodd">
        <g id="首页" transform="translate(-1368.000000, -465.000000)">
            <g id="登入" transform="translate(1337.000000, 385.000000)">
                <g id="账号" transform="translate(31.000000, 80.000000)">
                    <ellipse id="Oval-2" fill="#F95759" cx="9.47827921" cy="6.03111111" rx="2.81786679" ry="2.88444444"></ellipse>
                    <path d="M18.2848469,18.1527595 C17.7805964,16.661423 16.9206694,15.2974522 15.7973615,14.2090544 C15.5542407,13.9728489 15.1692995,13.9844276 14.9396855,14.2368433 C14.7100715,14.4892589 14.721327,14.8829347 14.9666989,15.1191402 C15.9481864,16.0685935 16.7000598,17.2611996 17.1390278,18.5626454 C17.3123639,19.0744239 17.2358259,19.6232543 16.9296738,20.0655606 C16.6235218,20.5101827 16.1440336,20.7649141 15.6127698,20.7649141 L2.8534328,20.7649141 C2.32442006,20.7649141 1.84493192,20.5101827 1.53652875,20.0655606 C1.2303767,19.6232543 1.15383868,19.0767397 1.32717477,18.5626454 C2.46398938,15.1955596 5.18333996,13.2619168 8.78737992,13.2549696 C8.93595371,13.2642325 9.08227638,13.2711797 9.23310129,13.2711797 C10.9552066,13.2711797 12.5715093,12.5810892 13.7893642,11.3305897 C15.007219,10.0777744 15.6758011,8.41275742 15.6758011,6.64353213 C15.6758011,4.87199111 15.0049679,3.20928986 13.7893642,1.95647457 C12.5715093,0.70365928 10.9552066,0.0135687885 9.23310129,0.0135687885 C7.510996,0.0135687885 5.89469325,0.70365928 4.6768384,1.95415883 C3.45898355,3.20697412 2.79040149,4.87199111 2.79040149,6.64121639 C2.79040149,8.41275742 3.46123466,10.0754587 4.6768384,11.328274 C5.07978853,11.7427914 5.52776101,12.0970996 6.00950027,12.3842514 C5.97123127,12.3958301 5.93071114,12.4074088 5.89244214,12.4189875 C4.99199492,12.6922448 4.15908125,13.0974992 3.41846342,13.6278037 C2.68009671,14.1557924 2.0295236,14.8111468 1.48475303,15.5707095 C0.939982472,16.3302722 0.501014456,17.1986746 0.179104578,18.1527595 C0.0237774342,18.6089602 -0.0167426903,19.0813712 0.0552930866,19.5514664 C0.122826627,19.9937727 0.29166048,20.4198688 0.546036817,20.7880715 C0.800413154,21.1562741 1.13808086,21.4619518 1.52302204,21.6726841 C1.93272552,21.8973109 2.38069801,22.0107821 2.85118168,22.0107821 L15.6105187,22.0107821 C16.0810023,22.0107821 16.5289748,21.8973109 16.9386783,21.6726841 C17.3236195,21.4619518 17.6612872,21.1562741 17.9156635,20.7880715 C18.1700399,20.4198688 18.3388737,19.9937727 18.4064073,19.5514664 C18.4806942,19.0813712 18.440174,18.611276 18.2848469,18.1527595 Z M4.00375411,6.64353213 C4.00375411,3.67706932 6.34941909,1.26406834 9.23310129,1.26406834 C12.1167835,1.26406834 14.4624485,3.67706932 14.4624485,6.64353213 C14.4624485,8.42433612 13.6160281,10.0059865 12.3148819,10.9855445 C11.2816187,11.7265812 9.6968316,12.0021543 8.82790004,12.0067858 C6.13331176,11.7914219 4.00375411,9.46873482 4.00375411,6.64353213 Z" id="Shape" fill="#333333" fill-rule="nonzero"></path>
                </g>
            </g>
        </g>
    </g>
</svg>