<?xml version="1.0" encoding="UTF-8"?>
<svg width="30px" height="30px" viewBox="0 0 30 30" version="1.1" xmlns="http://www.w3.org/2000/svg" xmlns:xlink="http://www.w3.org/1999/xlink">
    <!-- Generator: Sketch 43.1 (39012) - http://www.bohemiancoding.com/sketch -->
    <title>下拉(1)</title>
    <desc>Created with Sketch.</desc>
    <defs></defs>
    <g id="Page-1" stroke="none" stroke-width="1" fill="none" fill-rule="evenodd">
        <g id="首页" transform="translate(-944.000000, -1038.000000)" fill-rule="nonzero" fill="#FFFFFF">
            <g id="下拉(1)" transform="translate(944.000000, 1038.000000)">
                <path d="M15,30 C6.71484375,30 0,23.2851562 0,15 C0,6.71484375 6.71484375,0 15,0 C23.2851562,0 30,6.71484375 30,15 C30,23.2851562 23.2851562,30 15,30 Z M15,1.5 C7.54394531,1.5 1.5,7.54394531 1.5,15 C1.5,22.4560547 7.54394531,28.5 15,28.5 C22.4560547,28.5 28.5,22.4560547 28.5,15 C28.5,7.54394531 22.4560547,1.5 15,1.5 Z M16.1894531,20.8710937 C16.0634766,20.9970703 15.3867188,21.75 15,21.75 C14.6132813,21.75 13.9365234,20.9970703 13.8105469,20.8710937 L10.6289063,17.6894531 C10.3359375,17.3964844 10.3359375,16.921875 10.6289063,16.6289062 C10.921875,16.3359375 11.3964844,16.3359375 11.6894531,16.6289062 L14.8710938,19.8105469 C14.9296875,19.8662109 14.9648438,19.9365234 15,20.0039062 C15.0351563,19.9365234 15.0703125,19.8662109 15.1289063,19.8105469 L18.3105469,16.6289062 C18.6035156,16.3359375 19.078125,16.3359375 19.3710938,16.6289062 C19.6640625,16.921875 19.6640625,17.3964844 19.3710938,17.6894531 L16.1894531,20.8710937 Z M15,14.25 C14.5869141,14.25 14.25,13.9130859 14.25,13.5 C14.25,13.0869141 14.5869141,12.75 15,12.75 C15.4130859,12.75 15.75,13.0869141 15.75,13.5 C15.75,13.9130859 15.4130859,14.25 15,14.25 Z M15,11.25 C14.5869141,11.25 14.25,10.9130859 14.25,10.5 C14.25,10.0869141 14.5869141,9.75 15,9.75 C15.4130859,9.75 15.75,10.0869141 15.75,10.5 C15.75,10.9130859 15.4130859,11.25 15,11.25 Z M15,8.25 C14.5869141,8.25 14.25,7.91308594 14.25,7.5 C14.25,7.08691406 14.5869141,6.75 15,6.75 C15.4130859,6.75 15.75,7.08691406 15.75,7.5 C15.75,7.91308594 15.4130859,8.25 15,8.25 Z" id="Shape"></path>
            </g>
        </g>
    </g>
</svg>