<?xml version="1.0" encoding="UTF-8"?>
<svg width="17px" height="20px" viewBox="0 0 17 20" version="1.1" xmlns="http://www.w3.org/2000/svg" xmlns:xlink="http://www.w3.org/1999/xlink">
    <!-- Generator: Sketch 43.1 (39012) - http://www.bohemiancoding.com/sketch -->
    <title>密码</title>
    <desc>Created with Sketch.</desc>
    <defs></defs>
    <g id="Page-1" stroke="none" stroke-width="1" fill="none" fill-rule="evenodd">
        <g id="首页" transform="translate(-1369.000000, -528.000000)">
            <g id="登入" transform="translate(1337.000000, 385.000000)">
                <g id="密码" transform="translate(32.000000, 143.000000)">
                    <path d="M14.8463324,7.36372131 L1.36470236,7.36372131 C0.619526323,7.36372131 0.016539349,7.98095504 0.016539349,8.74373733 L0.016539349,17.9429457 C0.016539349,18.7057279 0.619526323,19.3229617 1.36470236,19.3229617 L14.8463324,19.3229617 C15.5915085,19.3229617 16.1944955,18.7057279 16.1944955,17.9429457 L16.1944955,8.74373733 C16.1944955,7.98095504 15.5915085,7.36372131 14.8463324,7.36372131 L14.8463324,7.36372131 Z M14.8463324,17.0238334 C14.8463324,17.7866157 14.6909777,17.9429457 13.9484348,17.9429457 L2.26259999,17.9429457 C1.51742395,17.9429457 1.36470236,17.7839204 1.36470236,17.0238334 L1.36470236,9.66284956 C1.36470236,8.90006727 1.51742395,8.74373733 2.26259999,8.74373733 L13.9484348,8.74373733 C14.6936109,8.74373733 14.8463324,8.90276262 14.8463324,9.66284956 L14.8463324,17.0238334 L14.8463324,17.0238334 Z M1.73597381,6.66832262 C2.1098784,6.66832262 2.41532159,6.36374877 2.42585411,5.9837053 L2.42848723,5.9837053 C3.03674047,3.34765908 5.34599624,1.38275347 8.10815054,1.38275347 C10.2673179,1.38275347 12.1447402,2.58487679 13.1558624,4.36919439 C13.2611876,4.61177533 13.4981694,4.78158198 13.7746482,4.78158198 C14.1485528,4.78158198 14.4513628,4.47161744 14.4513628,4.08887863 C14.4513628,3.94063472 14.4039665,3.80047685 14.3276057,3.68727239 C13.0821348,1.48787188 10.7676127,0.00273745579 8.1055174,0.00273745579 C4.62715151,0.00273745579 1.73070755,2.44471892 1.06452544,5.80311727 C1.06189231,5.816594 1.05925918,5.8300707 1.05662604,5.84624277 C1.05399291,5.86241484 1.04872665,5.87858689 1.04609353,5.89745429 L1.04872665,5.89745429 C1.04609351,5.91901703 1.04609351,5.94327514 1.04609353,5.9648379 C1.04609353,6.35296741 1.35416985,6.66832264 1.73597381,6.66832262 Z" id="Shape" fill="#333333" fill-rule="nonzero"></path>
                    <path d="M8.32933353,10.5846571 C7.46040033,10.5846571 6.75735439,11.3043139 6.75735439,12.1937774 C6.75735439,12.8352692 7.12599271,13.382424 7.65525202,13.6438723 L7.65525202,15.4147132 C7.65525202,15.7947567 7.95806207,16.1047212 8.32933353,16.1047212 C8.70060498,16.1047212 9.00341503,15.7947567 9.00341503,15.4147132 L9.00341503,13.641177 C9.53267434,13.382424 9.90131266,12.8325738 9.90131266,12.1937774 C9.9039458,11.3043139 9.19826672,10.5846571 8.32933353,10.5846571 Z" id="Path" fill="#F95759"></path>
                </g>
            </g>
        </g>
    </g>
</svg>