<?xml version="1.0" encoding="UTF-8"?>
<svg width="20px" height="20px" viewBox="0 0 20 20" version="1.1" xmlns="http://www.w3.org/2000/svg" xmlns:xlink="http://www.w3.org/1999/xlink">
    <!-- Generator: Sketch 46 (44423) - http://www.bohemiancoding.com/sketch -->
    <title>下载</title>
    <desc>Created with Sketch.</desc>
    <defs></defs>
    <g id="Page-1" stroke="none" stroke-width="1" fill="none" fill-rule="evenodd">
        <g id="内容发布审阅-添加到内容里样式" transform="translate(-955.000000, -976.000000)" fill-rule="nonzero" fill="#999999">
            <g id="下载" transform="translate(955.000000, 976.000000)">
                <path d="M14.2857143,4.28571429 L17.8571429,4.28571429 C18.251632,4.28571429 18.5714286,4.60551089 18.5714286,5 L18.5714286,17.8571429 C18.5714286,18.251632 18.251632,18.5714286 17.8571429,18.5714286 L2.14285714,18.5714286 C1.74836804,18.5714286 1.42857143,18.251632 1.42857143,17.8571429 L1.42857143,5 C1.42857143,4.60551089 1.74836804,4.28571429 2.14285714,4.28571429 L5.71428571,4.28571429 C6.10877482,4.28571429 6.42857143,3.96591768 6.42857143,3.57142857 C6.42857143,3.17693946 6.10877482,2.85714286 5.71428571,2.85714286 L2.14285714,2.85714286 C0.959389822,2.85714286 3.17206578e-16,3.81653268 0,5 L0,17.8571429 C3.17206578e-16,19.0406102 0.959389822,20 2.14285714,20 L17.8571429,20 C19.0406102,20 20,19.0406102 20,17.8571429 L20,5 C20,3.81653268 19.0406102,2.85714286 17.8571429,2.85714286 L14.2857143,2.85714286 C13.8912252,2.85714286 13.5714286,3.17693946 13.5714286,3.57142857 C13.5714286,3.96591768 13.8912252,4.28571429 14.2857143,4.28571429 Z" id="Shape"></path>
                <path d="M13.3621429,9.00428571 C13.2282875,8.8702026 13.046604,8.79485631 12.8571429,8.79485631 C12.6676817,8.79485631 12.4859982,8.8702026 12.3521429,9.00428571 L10.7142857,10.6428571 L10.7142857,0.714285714 C10.7142857,0.319796607 10.3944891,0 10,0 C9.60551089,0 9.28571429,0.319796607 9.28571429,0.714285714 L9.28571429,10.6428571 L7.64785714,9.00428571 C7.46743802,8.82386658 7.20447142,8.75340488 6.9580143,8.81944286 C6.71155719,8.88548084 6.51905227,9.07798576 6.45301429,9.32444287 C6.38697631,9.57089999 6.45743801,9.83386659 6.63785714,10.0142857 L9.11357143,12.49 C9.3479955,12.726095 9.66729283,12.8583423 10,12.8571429 C10.335,12.8571429 10.65,12.7271429 10.8864286,12.49 L13.3621429,10.0142857 C13.496226,9.8804304 13.5715723,9.69874686 13.5715723,9.50928571 C13.5715723,9.31982457 13.496226,9.13814103 13.3621429,9.00428571" id="Shape"></path>
            </g>
        </g>
    </g>
</svg>