<?xml version="1.0" encoding="UTF-8"?>
<svg width="530px" height="309px" viewBox="0 0 530 309" version="1.1" xmlns="http://www.w3.org/2000/svg" xmlns:xlink="http://www.w3.org/1999/xlink">
    <!-- Generator: Sketch 46 (44423) - http://www.bohemiancoding.com/sketch -->
    <title>添加视频</title>
    <desc>Created with Sketch.</desc>
    <defs>
        <linearGradient x1="50%" y1="3.62324617%" x2="50%" y2="100%" id="linearGradient-1">
            <stop stop-color="#75A8F2" offset="0%"></stop>
            <stop stop-color="#6D74C2" offset="100%"></stop>
        </linearGradient>
        <linearGradient x1="50%" y1="0%" x2="50%" y2="98.0787628%" id="linearGradient-2">
            <stop stop-color="#8BE5FB" offset="0%"></stop>
            <stop stop-color="#7E7CFF" offset="100%"></stop>
        </linearGradient>
        <linearGradient x1="50%" y1="-12.2369846%" x2="63.6323025%" y2="85.7831398%" id="linearGradient-3">
            <stop stop-color="#3023AE" offset="0%"></stop>
            <stop stop-color="#53A0FD" offset="100%"></stop>
        </linearGradient>
        <linearGradient x1="50%" y1="0%" x2="50%" y2="96.5959821%" id="linearGradient-4">
            <stop stop-color="#8AE1FB" offset="0%"></stop>
            <stop stop-color="#7E7CFF" offset="100%"></stop>
        </linearGradient>
        <linearGradient x1="50%" y1="2.3696588%" x2="50%" y2="96.6896524%" id="linearGradient-5">
            <stop stop-color="#89DCFB" offset="0%"></stop>
            <stop stop-color="#7E7DFF" offset="100%"></stop>
        </linearGradient>
        <linearGradient x1="-19.6453149%" y1="37.9618473%" x2="101.257813%" y2="49.7500002%" id="linearGradient-6">
            <stop stop-color="#3023AE" offset="0%"></stop>
            <stop stop-color="#53A0FD" offset="100%"></stop>
        </linearGradient>
        <linearGradient x1="0.25781251%" y1="49.7500002%" x2="101.257813%" y2="49.7500002%" id="linearGradient-7">
            <stop stop-color="#3023AE" offset="0%"></stop>
            <stop stop-color="#53A0FD" offset="100%"></stop>
        </linearGradient>
        <rect id="path-8" x="0" y="0" width="530" height="309"></rect>
        <mask id="mask-9" maskContentUnits="userSpaceOnUse" maskUnits="objectBoundingBox" x="0" y="0" width="530" height="309" fill="white">
            <use xlink:href="#path-8"></use>
        </mask>
    </defs>
    <g id="Page-1" stroke="none" stroke-width="1" fill="none" fill-rule="evenodd">
        <g id="创建视频" transform="translate(-670.000000, -645.000000)">
            <g id="Group-3" transform="translate(551.000000, 605.000000)">
                <g id="添加视频" transform="translate(119.000000, 40.000000)">
                    <g id="视频" opacity="0.5" transform="translate(196.000000, 82.000000)" fill-rule="nonzero">
                        <polygon id="Shape" fill="url(#linearGradient-1)" points="6 63 135 63 135 140 6 140"></polygon>
                        <path d="M129.5625,66.6 C131.115801,66.6 132.375,67.8536027 132.375,69.4 L132.375,136.6 C132.375,138.146397 131.115801,139.4 129.5625,139.4 L11.4375,139.4 C9.88419917,139.4 8.62500003,138.146397 8.62500003,136.6 L8.62500003,69.4 C8.62500003,67.8536027 9.88419917,66.6 11.4375,66.6 L129.5625,66.6 L129.5625,66.6 Z M129.5625,61 L11.4375,61 C6.77759744,61 3,64.7608081 3,69.4 L3,136.6 C3,141.239192 6.77759744,145 11.4375,145 L129.5625,145 C134.222403,145 138,141.239192 138,136.6 L138,69.4 C138,64.7608081 134.222403,61 129.5625,61 L129.5625,61 Z" id="Shape" fill="url(#linearGradient-2)"></path>
                        <polygon id="Shape" fill="url(#linearGradient-3)" points="33.646489 28 35 48.2422744 23.353511 51 22 30.7577256"></polygon>
                        <path d="M32.1997117,46.2431261 L27.4969201,47.554975 L26.6814072,32.7165068 L31.3841988,31.4046579 L32.1997117,46.2431261 Z M21,28.314525 L22.4265734,54 L38,48.3629674 L36.4131955,24 L21,28.314525 Z" id="Shape" fill="url(#linearGradient-4)"></path>
                        <polygon id="Shape" fill="url(#linearGradient-3)" points="48 24.7577256 59.6747573 22 61 42.2707045 49.3252427 45"></polygon>
                        <path d="M56.6465915,25.1488787 L57.5612453,39.418601 L52.3172302,40.6521331 L51.4025764,26.3824107 L56.6770799,25.1208439 L56.6465915,25.1488787 Z M45,22.1491531 L46.6,46 L65,41.463272 L62.4089104,18 L45,22.1491531 Z" id="Shape" fill="url(#linearGradient-4)"></path>
                        <polygon id="Shape" fill="url(#linearGradient-3)" points="83.5 14.5 84.5 35 76.3220339 37 75 17.6345679"></polygon>
                        <path d="M81.69021,32.3267859 L76.7814568,33.5829448 L75.930228,19.3743924 L80.8389812,18.1182336 L81.69021,32.3267859 Z M86.1449746,11 L70,15.0197084 L71.3649635,39 L87,34.4424713 L86.1449746,11 Z" id="Shape" fill="url(#linearGradient-4)"></path>
                        <polygon id="Shape" fill="url(#linearGradient-3)" points="111.643204 8 113 28.2422744 101.325243 31 100 10.7292955"></polygon>
                        <path d="M108.439705,26.2558198 L103.63614,27.5666992 L102.803152,12.7391963 L107.606717,11.4283168 L108.439705,26.2558198 Z M112.771245,4 L97,8.31133684 L98.4571429,32 L114,28.1354632 L112.771245,4 Z" id="Shape" fill="url(#linearGradient-4)"></path>
                        <path d="M125.629091,5.95697634 L129.205142,19.9529031 L9.33703348,52.0509994 L5.78914026,38.1418243 L125.629091,5.95697634 L125.629091,5.95697634 Z M126.135933,3.2257296e-05 C125.717452,0.00360245942 125.301119,0.0619061724 124.896986,0.173535517 L3.67729898,32.7343071 C1.05285643,33.4420374 -0.52060764,36.1955225 0.157563596,38.8936716 L4.07150933,54.2776242 C4.78552724,56.9494378 7.45891212,58.534854 10.0691384,57.8344402 L131.316983,25.3315029 C132.583803,24.9918877 133.666935,24.1484842 134.327297,22.987459 C134.987658,21.8264339 135.170952,20.4432501 134.836719,19.1432214 L130.922773,3.788186 C130.356869,1.55092996 128.386729,-0.00817605321 126.135933,3.2257296e-05 Z" id="Shape" fill="url(#linearGradient-5)"></path>
                        <path d="M59.4183316,122 C56.4258697,122 54,119.431711 54,116.263566 L54,90.7364341 C54,87.568289 56.4258697,85 59.4183316,85 C60.3699526,85.0017879 61.3043454,85.2688853 62.1274973,85.7744186 L83.204807,98.5379844 C84.9295476,99.5482786 86,101.47051 86,103.557364 C86,105.644219 84.9295476,107.56645 83.204807,108.576744 L62.1274973,121.225581 C61.3043454,121.731115 60.3699526,121.998212 59.4183316,122 L59.4183316,122 Z" id="Shape" fill="url(#linearGradient-6)"></path>
                        <path d="M59.2382178,85.5330843 C59.7217326,85.5382206 60.1953479,85.6738646 60.6111671,85.9262984 L81.9742591,98.4248898 C82.8766657,98.9104914 83.441692,99.8675857 83.441692,100.910565 C83.441692,101.953544 82.8766657,102.910638 81.9742591,103.39624 L60.6111671,115.894831 C60.1953479,116.147265 59.7217326,116.282909 59.2382178,116.288045 C57.7216998,116.288045 56.492319,115.03056 56.492319,113.479373 L56.492319,88.4821901 C56.492319,86.9310033 57.7216998,85.6735179 59.2382178,85.6735179 L59.2382178,85.5330843 Z M59.2382178,80.0561734 C54.6886638,80.0561734 51.0005216,83.8286296 51.0005216,88.4821901 L51.0005216,113.479373 C50.9671616,116.518149 52.5361419,119.339862 55.1065852,120.86387 C57.6770285,122.387879 60.8506292,122.378029 63.4119838,120.838094 L84.7750758,108.339503 C87.3834293,106.85137 89,104.035723 89,100.980782 C89,97.9258396 87.3834293,95.110193 84.7750758,93.6220603 L63.4119838,81.1234688 C62.167255,80.3905651 60.7568208,80.0032691 59.3205947,80 L59.2382178,80.0561734 Z" id="Shape" fill="#8BE1FC"></path>
                    </g>
                    <use id="Rectangle-3-Copy-5" stroke="url(#linearGradient-7)" mask="url(#mask-9)" stroke-width="2" stroke-dasharray="3" xlink:href="#path-8"></use>
                </g>
            </g>
        </g>
    </g>
</svg>